Archivo Narrow Devanagari-Regular.ufo
<glyph name="exclam" format="1">
  <advance width="202"/>
  <unicode hex="0021"/>
  <outline>
    <contour>
      <point x="53" y="606" type="line"/>
      <point x="62" y="455"/>
      <point x="68" y="302"/>
      <point x="75" y="151" type="curve"/>
      <point x="130" y="151" type="line"/>
      <point x="138" y="311"/>
      <point x="149" y="556"/>
      <point x="153" y="606" type="curve"/>
    </contour>
    <contour>
      <point x="148" y="0" type="line"/>
      <point x="148" y="95" type="line"/>
      <point x="59" y="95" type="line"/>
      <point x="59" y="0" type="line"/>
    </contour>
  </outline>
</glyph>
<glyph name="quotedbl" format="1">
  <advance width="257"/>
  <unicode hex="0022"/>
  <outline>
    <contour>
      <point x="105" y="476" type="line"/>
      <point x="105" y="606" type="line"/>
      <point x="33" y="606" type="line"/>
      <point x="33" y="476" type="line"/>
      <point x="52" y="360" type="line"/>
      <point x="87" y="360" type="line"/>
    </contour>
    <contour>
      <point x="223" y="476" type="line"/>
      <point x="223" y="606" type="line"/>
      <point x="150" y="606" type="line"/>
      <point x="150" y="476" type="line"/>
      <point x="169" y="360" type="line"/>
      <point x="203" y="360" type="line"/>
    </contour>
  </outline>
</glyph>
<glyph name="percent" format="1">
  <advance width="644"/>
  <unicode hex="0025"/>
  <outline>
    <contour>
      <point x="153" y="617" type="curve" smooth="yes"/>
      <point x="82" y="617"/>
      <point x="40" y="580"/>
      <point x="40" y="457" type="curve" smooth="yes"/>
      <point x="40" y="335"/>
      <point x="82" y="298"/>
      <point x="153" y="298" type="curve" smooth="yes"/>
      <point x="224" y="298"/>
      <point x="266" y="334"/>
      <point x="266" y="457" type="curve" smooth="yes"/>
      <point x="266" y="580"/>
      <point x="224" y="617"/>
    </contour>
    <contour>
      <point x="172" y="0" type="line"/>
      <point x="543" y="606" type="line"/>
      <point x="480" y="606" type="line"/>
      <point x="110" y="0" type="line"/>
    </contour>
    <contour>
      <point x="205" y="451" type="line" smooth="yes"/>
      <point x="205" y="392"/>
      <point x="195" y="350"/>
      <point x="153" y="350" type="curve" smooth="yes"/>
      <point x="110" y="350"/>
      <point x="101" y="392"/>
      <point x="101" y="451" type="curve" smooth="yes"/>
      <point x="101" y="464" type="line" smooth="yes"/>
      <point x="101" y="523"/>
      <point x="110" y="565"/>
      <point x="153" y="565" type="curve" smooth="yes"/>
      <point x="195" y="565"/>
      <point x="205" y="523"/>
      <point x="205" y="464" type="curve" smooth="yes"/>
    </contour>
    <contour>
      <point x="499" y="309" type="curve" smooth="yes"/>
      <point x="429" y="309"/>
      <point x="386" y="271"/>
      <point x="386" y="149" type="curve" smooth="yes"/>
      <point x="386" y="27"/>
      <point x="429" y="-11"/>
      <point x="499" y="-11" type="curve" smooth="yes"/>
      <point x="570" y="-11"/>
      <point x="613" y="26"/>
      <point x="613" y="149" type="curve" smooth="yes"/>
      <point x="613" y="271"/>
      <point x="570" y="309"/>
    </contour>
    <contour>
      <point x="552" y="142" type="line" smooth="yes"/>
      <point x="552" y="83"/>
      <point x="542" y="42"/>
      <point x="499" y="42" type="curve" smooth="yes"/>
      <point x="457" y="42"/>
      <point x="447" y="83"/>
      <point x="447" y="142" type="curve" smooth="yes"/>
      <point x="447" y="156" type="line" smooth="yes"/>
      <point x="447" y="215"/>
      <point x="457" y="256"/>
      <point x="499" y="256" type="curve" smooth="yes"/>
      <point x="542" y="256"/>
      <point x="552" y="215"/>
      <point x="552" y="156" type="curve" smooth="yes"/>
    </contour>
  </outline>
</glyph>
<glyph name="ampersand" format="1">
  <advance width="484"/>
  <unicode hex="0026"/>
  <outline>
    <contour>
      <point x="120" y="311" type="line"/>
      <point x="69" y="292"/>
      <point x="31" y="243"/>
      <point x="31" y="163" type="curve" smooth="yes"/>
      <point x="31" y="55"/>
      <point x="109" y="-11"/>
      <point x="219" y="-11" type="curve" smooth="yes"/>
      <point x="345" y="-11"/>
      <point x="410" y="61"/>
      <point x="410" y="171" type="curve" smooth="yes"/>
      <point x="410" y="275" type="line"/>
      <point x="472" y="275" type="line"/>
      <point x="472" y="340" type="line"/>
      <point x="338" y="340" type="line"/>
      <point x="338" y="169" type="line" smooth="yes"/>
      <point x="338" y="94"/>
      <point x="300" y="56"/>
      <point x="225" y="56" type="curve" smooth="yes"/>
      <point x="156" y="56"/>
      <point x="109" y="88"/>
      <point x="109" y="168" type="curve" smooth="yes"/>
      <point x="109" y="254"/>
      <point x="160" y="276"/>
      <point x="214" y="276" type="curve" smooth="yes"/>
      <point x="257" y="276" type="line"/>
      <point x="257" y="340" type="line"/>
      <point x="212" y="340" type="line" smooth="yes"/>
      <point x="163" y="340"/>
      <point x="119" y="375"/>
      <point x="119" y="446" type="curve" smooth="yes"/>
      <point x="119" y="522"/>
      <point x="168" y="551"/>
      <point x="225" y="551" type="curve" smooth="yes"/>
      <point x="290" y="551"/>
      <point x="338" y="518"/>
      <point x="338" y="443" type="curve" smooth="yes"/>
      <point x="338" y="435" type="line"/>
      <point x="410" y="435" type="line"/>
      <point x="410" y="451" type="line" smooth="yes"/>
      <point x="410" y="552"/>
      <point x="334" y="617"/>
      <point x="226" y="617" type="curve" smooth="yes"/>
      <point x="116" y="617"/>
      <point x="42" y="559"/>
      <point x="42" y="451" type="curve" smooth="yes"/>
      <point x="42" y="379"/>
      <point x="75" y="340"/>
      <point x="120" y="315" type="curve"/>
    </contour>
  </outline>
</glyph>
<glyph name="plus" format="1">
  <advance width="423"/>
  <unicode hex="002B"/>
  <outline>
    <contour>
      <point x="248" y="263" type="line"/>
      <point x="248" y="452" type="line"/>
      <point x="174" y="452" type="line"/>
      <point x="174" y="263" type="line"/>
      <point x="38" y="263" type="line"/>
      <point x="38" y="188" type="line"/>
      <point x="174" y="188" type="line"/>
      <point x="174" y="0" type="line"/>
      <point x="248" y="0" type="line"/>
      <point x="248" y="188" type="line"/>
      <point x="385" y="188" type="line"/>
      <point x="385" y="263" type="line"/>
    </contour>
  </outline>
</glyph>
<glyph name="six" format="1">
  <advance width="403"/>
  <unicode hex="0036"/>
  <outline>
    <contour>
      <point x="352" y="420" type="line"/>
      <point x="352" y="532"/>
      <point x="309" y="617"/>
      <point x="205" y="617" type="curve" smooth="yes"/>
      <point x="98" y="617"/>
      <point x="35" y="538"/>
      <point x="35" y="286" type="curve" smooth="yes"/>
      <point x="35" y="61"/>
      <point x="101" y="-11"/>
      <point x="210" y="-11" type="curve" smooth="yes"/>
      <point x="301" y="-11"/>
      <point x="368" y="65"/>
      <point x="368" y="186" type="curve" smooth="yes"/>
      <point x="368" y="294"/>
      <point x="319" y="381"/>
      <point x="217" y="381" type="curve" smooth="yes"/>
      <point x="172" y="381"/>
      <point x="135" y="359"/>
      <point x="110" y="324" type="curve"/>
      <point x="110" y="464"/>
      <point x="128" y="552"/>
      <point x="202" y="552" type="curve" smooth="yes"/>
      <point x="253" y="552"/>
      <point x="278" y="504"/>
      <point x="278" y="420" type="curve"/>
    </contour>
    <contour>
      <point x="205" y="317" type="curve" smooth="yes"/>
      <point x="266" y="317"/>
      <point x="293" y="258"/>
      <point x="293" y="186" type="curve" smooth="yes"/>
      <point x="293" y="113"/>
      <point x="266" y="54"/>
      <point x="205" y="54" type="curve" smooth="yes"/>
      <point x="144" y="54"/>
      <point x="116" y="113"/>
      <point x="116" y="186" type="curve" smooth="yes"/>
      <point x="116" y="258"/>
      <point x="144" y="317"/>
    </contour>
  </outline>
</glyph>
<glyph name="seven" format="1">
  <advance width="403"/>
  <unicode hex="0037"/>
  <outline>
    <contour>
      <point x="374" y="606" type="line"/>
      <point x="29" y="606" type="line"/>
      <point x="29" y="532" type="line"/>
      <point x="283" y="532" type="line"/>
      <point x="204" y="406"/>
      <point x="105" y="209"/>
      <point x="105" y="0" type="curve"/>
      <point x="187" y="0" type="line"/>
      <point x="187" y="45" type="line" smooth="yes"/>
      <point x="187" y="241"/>
      <point x="291" y="434"/>
      <point x="374" y="560" type="curve"/>
    </contour>
  </outline>
</glyph>
<glyph name="nine" format="1">
  <advance width="403"/>
  <unicode hex="0039"/>
  <outline>
    <contour>
      <point x="51" y="187" type="line"/>
      <point x="51" y="74"/>
      <point x="95" y="-11"/>
      <point x="202" y="-11" type="curve" smooth="yes"/>
      <point x="306" y="-11"/>
      <point x="368" y="68"/>
      <point x="368" y="321" type="curve" smooth="yes"/>
      <point x="368" y="545"/>
      <point x="302" y="617"/>
      <point x="194" y="617" type="curve" smooth="yes"/>
      <point x="103" y="617"/>
      <point x="35" y="542"/>
      <point x="35" y="421" type="curve" smooth="yes"/>
      <point x="35" y="312"/>
      <point x="84" y="225"/>
      <point x="187" y="225" type="curve" smooth="yes"/>
      <point x="231" y="225"/>
      <point x="267" y="247"/>
      <point x="293" y="282" type="curve"/>
      <point x="292" y="142"/>
      <point x="276" y="54"/>
      <point x="205" y="54" type="curve" smooth="yes"/>
      <point x="151" y="54"/>
      <point x="125" y="103"/>
      <point x="125" y="187" type="curve"/>
    </contour>
    <contour>
      <point x="198" y="552" type="curve" smooth="yes"/>
      <point x="259" y="552"/>
      <point x="287" y="493"/>
      <point x="287" y="421" type="curve" smooth="yes"/>
      <point x="287" y="348"/>
      <point x="259" y="289"/>
      <point x="198" y="289" type="curve" smooth="yes"/>
      <point x="137" y="289"/>
      <point x="110" y="348"/>
      <point x="110" y="421" type="curve" smooth="yes"/>
      <point x="110" y="493"/>
      <point x="137" y="552"/>
    </contour>
  </outline>
</glyph>
<glyph name="semicolon" format="1">
  <advance width="202"/>
  <unicode hex="003B"/>
  <outline>
    <contour>
      <point x="57" y="370" type="line"/>
      <point x="145" y="370" type="line"/>
      <point x="145" y="465" type="line"/>
      <point x="57" y="465" type="line"/>
    </contour>
    <contour>
      <point x="103" y="-110" type="line"/>
      <point x="145" y="8" type="line"/>
      <point x="145" y="95" type="line"/>
      <point x="57" y="95" type="line"/>
      <point x="57" y="0" type="line"/>
      <point x="92" y="0" type="line"/>
      <point x="57" y="-110" type="line"/>
    </contour>
  </outline>
</glyph>
<glyph name="greater" format="1">
  <advance width="423"/>
  <unicode hex="003E"/>
  <outline>
    <contour>
      <point x="385" y="177" type="line"/>
      <point x="385" y="271" type="line"/>
      <point x="39" y="446" type="line"/>
      <point x="39" y="366" type="line"/>
      <point x="314" y="225" type="line"/>
      <point x="39" y="83" type="line"/>
      <point x="39" y="4" type="line"/>
    </contour>
  </outline>
</glyph>
<glyph name="E" format="1">
  <advance width="484"/>
  <unicode hex="0045"/>
  <outline>
    <contour>
      <point x="62" y="606" type="line"/>
      <point x="62" y="0" type="line"/>
      <point x="441" y="0" type="line"/>
      <point x="441" y="71" type="line"/>
      <point x="140" y="71" type="line"/>
      <point x="140" y="275" type="line"/>
      <point x="397" y="275" type="line"/>
      <point x="397" y="346" type="line"/>
      <point x="140" y="346" type="line"/>
      <point x="140" y="536" type="line"/>
      <point x="436" y="536" type="line"/>
      <point x="436" y="606" type="line"/>
    </contour>
    <contour>
      <point x="435" y="9" type="move" name="ogonek"/>
    </contour>
    <contour>
      <point x="242" y="0" type="move" name="bottom"/>
    </contour>
    <contour>
      <point x="242" y="606" type="move" name="top"/>
    </contour>
  </outline>
</glyph>
<glyph name="H" format="1">
  <advance width="592"/>
  <unicode hex="0048"/>
  <outline>
    <contour>
      <point x="434" y="686" type="line"/>
      <point x="434" y="391" type="line"/>
      <point x="158" y="391" type="line"/>
      <point x="158" y="686" type="line"/>
      <point x="70" y="686" type="line"/>
      <point x="70" y="0" type="line"/>
      <point x="158" y="0" type="line"/>
      <point x="158" y="311" type="line"/>
      <point x="434" y="311" type="line"/>
      <point x="434" y="0" type="line"/>
      <point x="522" y="0" type="line"/>
      <point x="522" y="686" type="line"/>
    </contour>
    <contour>
      <point x="296" y="343" type="move" name="center"/>
    </contour>
    <contour>
      <point x="296" y="686" type="move" name="top"/>
    </contour>
  </outline>
</glyph>
<glyph name="L" format="1">
  <advance width="456"/>
  <unicode hex="004C"/>
  <outline>
    <contour>
      <point x="70" y="686" type="line"/>
      <point x="70" y="0" type="line"/>
      <point x="438" y="0" type="line"/>
      <point x="438" y="80" type="line"/>
      <point x="158" y="80" type="line"/>
      <point x="158" y="686" type="line"/>
    </contour>
    <contour>
      <point x="228" y="686" type="move" name="top"/>
    </contour>
    <contour>
      <point x="228" y="0" type="move" name="bottom"/>
    </contour>
  </outline>
</glyph>
<glyph name="N" format="1">
  <advance width="523"/>
  <unicode hex="004E"/>
  <outline>
    <contour>
      <point x="392" y="606" type="line"/>
      <point x="392" y="225" type="line"/>
      <point x="394" y="145" type="line"/>
      <point x="392" y="144" type="line"/>
      <point x="392" y="144"/>
      <point x="368" y="202"/>
      <point x="354" y="225" type="curve" smooth="yes"/>
      <point x="129" y="606" type="line"/>
      <point x="62" y="606" type="line"/>
      <point x="62" y="0" type="line"/>
      <point x="132" y="0" type="line"/>
      <point x="132" y="386" type="line" smooth="yes"/>
      <point x="132" y="411"/>
      <point x="128" y="467"/>
      <point x="128" y="467" type="curve"/>
      <point x="131" y="468" type="line"/>
      <point x="131" y="468"/>
      <point x="155" y="412"/>
      <point x="170" y="386" type="curve" smooth="yes"/>
      <point x="397" y="0" type="line"/>
      <point x="461" y="0" type="line"/>
      <point x="461" y="606" type="line"/>
    </contour>
    <contour>
      <point x="262" y="606" type="move" name="top"/>
    </contour>
    <contour>
      <point x="262" y="0" type="move" name="bottom"/>
    </contour>
  </outline>
</glyph>
<glyph name="P" format="1">
  <advance width="484"/>
  <unicode hex="0050"/>
  <outline>
    <contour>
      <point x="62" y="606" type="line"/>
      <point x="62" y="0" type="line"/>
      <point x="140" y="0" type="line"/>
      <point x="140" y="250" type="line"/>
      <point x="278" y="250" type="line" smooth="yes"/>
      <point x="391" y="250"/>
      <point x="460" y="323"/>
      <point x="460" y="430" type="curve" smooth="yes"/>
      <point x="460" y="535"/>
      <point x="398" y="606"/>
      <point x="278" y="606" type="curve" smooth="yes"/>
    </contour>
    <contour>
      <point x="140" y="536" type="line"/>
      <point x="276" y="536" type="line" smooth="yes"/>
      <point x="342" y="536"/>
      <point x="378" y="495"/>
      <point x="378" y="430" type="curve" smooth="yes"/>
      <point x="378" y="364"/>
      <point x="338" y="321"/>
      <point x="276" y="321" type="curve" smooth="yes"/>
      <point x="140" y="321" type="line"/>
    </contour>
  </outline>
</glyph>
<glyph name="T" format="1">
  <advance width="501"/>
  <unicode hex="0054"/>
  <outline>
    <contour>
      <point x="19" y="686" type="line"/>
      <point x="19" y="606" type="line"/>
      <point x="206" y="606" type="line"/>
      <point x="206" y="0" type="line"/>
      <point x="294" y="0" type="line"/>
      <point x="294" y="606" type="line"/>
      <point x="481" y="606" type="line"/>
      <point x="481" y="686" type="line"/>
    </contour>
    <contour>
      <point x="251" y="343" type="move" name="center"/>
    </contour>
    <contour>
      <point x="251" y="0" type="move" name="bottom"/>
    </contour>
    <contour>
      <point x="251" y="686" type="move" name="top"/>
    </contour>
  </outline>
</glyph>
<glyph name="X" format="1">
  <advance width="484"/>
  <unicode hex="0058"/>
  <outline>
    <contour>
      <point x="388" y="0" type="line"/>
      <point x="480" y="0" type="line"/>
      <point x="285" y="322" type="line"/>
      <point x="461" y="606" type="line"/>
      <point x="377" y="606" type="line"/>
      <point x="244" y="390" type="line"/>
      <point x="113" y="606" type="line"/>
      <point x="21" y="606" type="line"/>
      <point x="197" y="315" type="line"/>
      <point x="4" y="0" type="line"/>
      <point x="87" y="0" type="line"/>
      <point x="239" y="248" type="line"/>
    </contour>
  </outline>
</glyph>
<glyph name="Z" format="1">
  <advance width="501"/>
  <unicode hex="005A"/>
  <outline>
    <contour>
      <point x="41" y="686" type="line"/>
      <point x="41" y="606" type="line"/>
      <point x="346" y="606" type="line"/>
      <point x="20" y="38" type="line"/>
      <point x="20" y="0" type="line"/>
      <point x="479" y="0" type="line"/>
      <point x="479" y="80" type="line"/>
      <point x="145" y="80" type="line"/>
      <point x="472" y="648" type="line"/>
      <point x="472" y="686" type="line"/>
    </contour>
    <contour>
      <point x="251" y="686" type="move" name="top"/>
    </contour>
  </outline>
</glyph>
<glyph name="bracketright" format="1">
  <advance width="202"/>
  <unicode hex="005D"/>
  <outline>
    <contour>
      <point x="158" y="-142" type="line"/>
      <point x="158" y="650" type="line"/>
      <point x="18" y="650" type="line"/>
      <point x="18" y="592" type="line"/>
      <point x="91" y="592" type="line"/>
      <point x="91" y="-85" type="line"/>
      <point x="18" y="-85" type="line"/>
      <point x="18" y="-142" type="line"/>
    </contour>
  </outline>
</glyph>
<glyph name="asciicircum" format="1">
  <advance width="340"/>
  <unicode hex="005E"/>
  <outline>
    <contour>
      <point x="339" y="260" type="line"/>
      <point x="218" y="606" type="line"/>
      <point x="124" y="606" type="line"/>
      <point x="4" y="260" type="line"/>
      <point x="83" y="260" type="line"/>
      <point x="171" y="538" type="line"/>
      <point x="260" y="260" type="line"/>
    </contour>
  </outline>
</glyph>
<glyph name="i" format="1">
  <advance width="161"/>
  <unicode hex="0069"/>
  <outline>
    <contour>
      <point x="44" y="552" type="line"/>
      <point x="117" y="552" type="line"/>
      <point x="117" y="639" type="line"/>
      <point x="44" y="639" type="line"/>
    </contour>
    <contour>
      <point x="44" y="0" type="line"/>
      <point x="117" y="0" type="line"/>
      <point x="117" y="465" type="line"/>
      <point x="44" y="465" type="line"/>
    </contour>
  </outline>
</glyph>
<glyph name="k" format="1">
  <advance width="362"/>
  <unicode hex="006B"/>
  <outline>
    <contour>
      <point x="276" y="465" type="line"/>
      <point x="126" y="249" type="line"/>
      <point x="126" y="639" type="line"/>
      <point x="53" y="639" type="line"/>
      <point x="53" y="0" type="line"/>
      <point x="126" y="0" type="line"/>
      <point x="126" y="158" type="line"/>
      <point x="175" y="212" type="line"/>
      <point x="281" y="0" type="line"/>
      <point x="363" y="0" type="line"/>
      <point x="219" y="274" type="line"/>
      <point x="356" y="465" type="line"/>
    </contour>
    <contour>
      <point x="181" y="0" type="move" name="bottom"/>
    </contour>
  </outline>
</glyph>
<glyph name="v" format="1">
  <advance width="362"/>
  <unicode hex="0076"/>
  <outline>
    <contour>
      <point x="221" y="0" type="line"/>
      <point x="354" y="465" type="line"/>
      <point x="281" y="465" type="line"/>
      <point x="217" y="225" type="line" smooth="yes"/>
      <point x="207" y="187"/>
      <point x="196" y="149"/>
      <point x="187" y="111" type="curve"/>
      <point x="183" y="111" type="line"/>
      <point x="172" y="150"/>
      <point x="163" y="188"/>
      <point x="152" y="227" type="curve" smooth="yes"/>
      <point x="88" y="465" type="line"/>
      <point x="9" y="465" type="line"/>
      <point x="142" y="0" type="line"/>
    </contour>
  </outline>
</glyph>
<glyph name="x" format="1">
  <advance width="362"/>
  <unicode hex="0078"/>
  <outline>
    <contour>
      <point x="270" y="0" type="line"/>
      <point x="357" y="0" type="line"/>
      <point x="221" y="241" type="line"/>
      <point x="351" y="465" type="line"/>
      <point x="270" y="465" type="line"/>
      <point x="183" y="306" type="line"/>
      <point x="99" y="465" type="line"/>
      <point x="11" y="465" type="line"/>
      <point x="141" y="235" type="line"/>
      <point x="5" y="0" type="line"/>
      <point x="85" y="0" type="line"/>
      <point x="179" y="171" type="line"/>
    </contour>
  </outline>
</glyph>
<glyph name="y" format="1">
  <advance width="362"/>
  <unicode hex="0079"/>
  <outline>
    <contour>
      <point x="181" y="465" type="move" name="top"/>
    </contour>
    <contour>
      <point x="354" y="465" type="line"/>
      <point x="281" y="465" type="line"/>
      <point x="224" y="225" type="line"/>
      <point x="194" y="104" type="line"/>
      <point x="191" y="104" type="line"/>
      <point x="179" y="145"/>
      <point x="168" y="186"/>
      <point x="156" y="226" type="curve" smooth="yes"/>
      <point x="88" y="465" type="line"/>
      <point x="9" y="465" type="line"/>
      <point x="151" y="0" type="line"/>
      <point x="134" y="-80"/>
      <point x="98" y="-103"/>
      <point x="59" y="-103" type="curve" smooth="yes"/>
      <point x="34" y="-103" type="line"/>
      <point x="34" y="-154" type="line"/>
      <point x="49" y="-159"/>
      <point x="65" y="-161"/>
      <point x="86" y="-161" type="curve" smooth="yes"/>
      <point x="167" y="-161"/>
      <point x="209" y="-78"/>
      <point x="236" y="24" type="curve" smooth="yes"/>
    </contour>
  </outline>
</glyph>
<glyph name="braceleft" format="1">
  <advance width="242"/>
  <unicode hex="007B"/>
  <outline>
    <contour>
      <point x="225" y="650" type="line"/>
      <point x="151" y="650"/>
      <point x="86" y="630"/>
      <point x="86" y="519" type="curve" smooth="yes"/>
      <point x="86" y="345" type="line" smooth="yes"/>
      <point x="86" y="305"/>
      <point x="50" y="292"/>
      <point x="18" y="292" type="curve"/>
      <point x="18" y="217" type="line"/>
      <point x="50" y="217"/>
      <point x="86" y="204"/>
      <point x="86" y="164" type="curve" smooth="yes"/>
      <point x="86" y="-10" type="line" smooth="yes"/>
      <point x="86" y="-121"/>
      <point x="151" y="-141"/>
      <point x="225" y="-141" type="curve"/>
      <point x="225" y="-90" type="line"/>
      <point x="193" y="-90"/>
      <point x="155" y="-80"/>
      <point x="155" y="-27" type="curve" smooth="yes"/>
      <point x="155" y="34"/>
      <point x="151" y="93"/>
      <point x="149" y="155" type="curve" smooth="yes"/>
      <point x="147" y="215"/>
      <point x="127" y="250"/>
      <point x="71" y="250" type="curve"/>
      <point x="71" y="259" type="line"/>
      <point x="127" y="259"/>
      <point x="147" y="294"/>
      <point x="149" y="354" type="curve" smooth="yes"/>
      <point x="151" y="416"/>
      <point x="155" y="476"/>
      <point x="155" y="537" type="curve" smooth="yes"/>
      <point x="155" y="589"/>
      <point x="193" y="599"/>
      <point x="225" y="599" type="curve"/>
    </contour>
  </outline>
</glyph>
<glyph name="asciitilde" format="1">
  <advance width="423"/>
  <unicode hex="007E"/>
  <outline>
    <contour>
      <point x="392" y="343" type="line"/>
      <point x="392" y="343"/>
      <point x="349" y="278"/>
      <point x="288" y="278" type="curve" smooth="yes"/>
      <point x="232" y="278"/>
      <point x="190" y="332"/>
      <point x="135" y="332" type="curve" smooth="yes"/>
      <point x="65" y="332"/>
      <point x="31" y="268"/>
      <point x="31" y="268" type="curve"/>
      <point x="31" y="187" type="line"/>
      <point x="31" y="187"/>
      <point x="74" y="251"/>
      <point x="135" y="251" type="curve" smooth="yes"/>
      <point x="192" y="251"/>
      <point x="233" y="197"/>
      <point x="288" y="197" type="curve" smooth="yes"/>
      <point x="358" y="197"/>
      <point x="392" y="262"/>
      <point x="392" y="262" type="curve"/>
    </contour>
  </outline>
</glyph>
<glyph name="exclamdown" format="1">
  <advance width="241"/>
  <unicode hex="00A1"/>
  <outline>
    <contour>
      <point x="183" y="370" type="line"/>
      <point x="183" y="465" type="line"/>
      <point x="95" y="465" type="line"/>
      <point x="95" y="370" type="line"/>
    </contour>
    <contour>
      <point x="110" y="314" type="line"/>
      <point x="103" y="163"/>
      <point x="97" y="10"/>
      <point x="88" y="-141" type="curve"/>
      <point x="188" y="-141" type="line"/>
      <point x="184" y="-91"/>
      <point x="173" y="154"/>
      <point x="165" y="314" type="curve"/>
    </contour>
  </outline>
</glyph>
<glyph name="cent" format="1">
  <advance width="403"/>
  <unicode hex="00A2"/>
  <outline>
    <contour>
      <point x="229" y="639" type="line"/>
      <point x="186" y="639" type="line"/>
      <point x="186" y="545" type="line"/>
      <point x="88" y="535"/>
      <point x="42" y="458"/>
      <point x="42" y="303" type="curve" smooth="yes"/>
      <point x="42" y="148"/>
      <point x="88" y="72"/>
      <point x="186" y="61" type="curve"/>
      <point x="186" y="-43" type="line"/>
      <point x="229" y="-43" type="line"/>
      <point x="229" y="61" type="line"/>
      <point x="323" y="71"/>
      <point x="360" y="152"/>
      <point x="360" y="243" type="curve"/>
      <point x="288" y="243" type="line"/>
      <point x="288" y="175"/>
      <point x="272" y="135"/>
      <point x="229" y="126" type="curve"/>
      <point x="229" y="480" type="line"/>
      <point x="271" y="471"/>
      <point x="285" y="434"/>
      <point x="285" y="363" type="curve"/>
      <point x="360" y="363" type="line"/>
      <point x="360" y="474"/>
      <point x="322" y="537"/>
      <point x="229" y="545" type="curve"/>
    </contour>
    <contour>
      <point x="186" y="127" type="line"/>
      <point x="138" y="141"/>
      <point x="118" y="194"/>
      <point x="118" y="286" type="curve" smooth="yes"/>
      <point x="118" y="320" type="line" smooth="yes"/>
      <point x="118" y="412"/>
      <point x="139" y="466"/>
      <point x="186" y="478" type="curve"/>
    </contour>
  </outline>
</glyph>
<glyph name="ordfeminine" format="1">
  <advance width="268"/>
  <unicode hex="00AA"/>
  <outline>
    <contour>
      <point x="72" y="650"/>
      <point x="30" y="620"/>
      <point x="30" y="561" type="curve" smooth="yes"/>
      <point x="30" y="556"/>
      <point x="30" y="551"/>
      <point x="30" y="546" type="curve"/>
      <point x="82" y="546" type="line"/>
      <point x="82" y="555" type="line" smooth="yes"/>
      <point x="82" y="579"/>
      <point x="94" y="604"/>
      <point x="129" y="604" type="curve" smooth="yes"/>
      <point x="166" y="604"/>
      <point x="176" y="583"/>
      <point x="176" y="554" type="curve" smooth="yes"/>
      <point x="176" y="516" type="line"/>
      <point x="85" y="516"/>
      <point x="18" y="498"/>
      <point x="18" y="409" type="curve" smooth="yes"/>
      <point x="18" y="332"/>
      <point x="70" y="320"/>
      <point x="102" y="320" type="curve" smooth="yes"/>
      <point x="134" y="320"/>
      <point x="162" y="335"/>
      <point x="179" y="360" type="curve"/>
      <point x="180" y="360" type="line"/>
      <point x="186" y="337"/>
      <point x="204" y="323"/>
      <point x="230" y="323" type="curve" smooth="yes"/>
      <point x="245" y="323"/>
      <point x="257" y="326"/>
      <point x="263" y="331" type="curve"/>
      <point x="263" y="367" type="line"/>
      <point x="243" y="367" type="line" smooth="yes"/>
      <point x="236" y="367"/>
      <point x="228" y="372"/>
      <point x="228" y="386" type="curve" smooth="yes"/>
      <point x="228" y="561" type="line" smooth="yes"/>
      <point x="228" y="617"/>
      <point x="196" y="650"/>
      <point x="132" y="650" type="curve" smooth="yes"/>
    </contour>
    <contour>
      <point x="176" y="442" type="line" smooth="yes"/>
      <point x="176" y="392"/>
      <point x="142" y="367"/>
      <point x="113" y="367" type="curve" smooth="yes"/>
      <point x="86.9999" y="367"/>
      <point x="71.9999" y="378"/>
      <point x="71.9999" y="412" type="curve" smooth="yes"/>
      <point x="71.9999" y="460"/>
      <point x="115" y="469"/>
      <point x="176" y="469" type="curve"/>
    </contour>
  </outline>
</glyph>
<glyph name="logicalnot" format="1">
  <advance width="423"/>
  <unicode hex="00AC"/>
  <outline>
    <contour>
      <point x="310" y="174" type="line"/>
      <point x="385" y="174" type="line"/>
      <point x="385" y="400" type="line"/>
      <point x="34" y="400" type="line"/>
      <point x="34" y="318" type="line"/>
      <point x="310" y="318" type="line"/>
    </contour>
  </outline>
</glyph>
<glyph name="registered" format="1">
  <advance width="534"/>
  <unicode hex="00AE"/>
  <outline>
    <contour>
      <point x="112" y="617"/>
      <point x="19" y="494"/>
      <point x="19" y="303" type="curve" smooth="yes"/>
      <point x="19" y="112"/>
      <point x="112" y="-11"/>
      <point x="267" y="-11" type="curve" smooth="yes"/>
      <point x="422" y="-11"/>
      <point x="515" y="112"/>
      <point x="515" y="303" type="curve" smooth="yes"/>
      <point x="515" y="494"/>
      <point x="422" y="617"/>
      <point x="267" y="617" type="curve" smooth="yes"/>
    </contour>
    <contour>
      <point x="396" y="575"/>
      <point x="475" y="469"/>
      <point x="475" y="303" type="curve" smooth="yes"/>
      <point x="475" y="138"/>
      <point x="396" y="31"/>
      <point x="267" y="31" type="curve" smooth="yes"/>
      <point x="138" y="31"/>
      <point x="59" y="138"/>
      <point x="59" y="303" type="curve" smooth="yes"/>
      <point x="59" y="469"/>
      <point x="138" y="575"/>
      <point x="267" y="575" type="curve" smooth="yes"/>
    </contour>
    <contour>
      <point x="154" y="486" type="line"/>
      <point x="154" y="131" type="line"/>
      <point x="204" y="131" type="line"/>
      <point x="204" y="286" type="line"/>
      <point x="276" y="286" type="line" smooth="yes"/>
      <point x="300" y="286"/>
      <point x="333" y="268"/>
      <point x="333" y="195" type="curve" smooth="yes"/>
      <point x="333" y="143"/>
      <point x="357" y="128"/>
      <point x="384" y="128" type="curve" smooth="yes"/>
      <point x="393" y="128"/>
      <point x="405" y="131"/>
      <point x="409" y="133" type="curve"/>
      <point x="409" y="148" type="line"/>
      <point x="393" y="154"/>
      <point x="385" y="166"/>
      <point x="385" y="216" type="curve" smooth="yes"/>
      <point x="385" y="284"/>
      <point x="342" y="306"/>
      <point x="331" y="310" type="curve"/>
      <point x="331" y="314" type="line"/>
      <point x="362" y="324"/>
      <point x="387" y="354"/>
      <point x="387" y="397" type="curve" smooth="yes"/>
      <point x="387" y="450"/>
      <point x="348" y="486"/>
      <point x="296" y="486" type="curve" smooth="yes"/>
    </contour>
    <contour>
      <point x="204" y="332" type="line"/>
      <point x="204" y="439" type="line"/>
      <point x="280" y="439" type="line" smooth="yes"/>
      <point x="313" y="439"/>
      <point x="335" y="421"/>
      <point x="335" y="387" type="curve" smooth="yes"/>
      <point x="335" y="355"/>
      <point x="313" y="332"/>
      <point x="278" y="332" type="curve" smooth="yes"/>
    </contour>
  </outline>
</glyph>
<glyph name="plusminus" format="1">
  <advance width="485"/>
  <unicode hex="00B1"/>
  <outline>
    <contour>
      <point x="278" y="348" type="line"/>
      <point x="278" y="511" type="line"/>
      <point x="205" y="511" type="line"/>
      <point x="205" y="348" type="line"/>
      <point x="69" y="348" type="line"/>
      <point x="69" y="274" type="line"/>
      <point x="205" y="274" type="line"/>
      <point x="205" y="112" type="line"/>
      <point x="278" y="112" type="line"/>
      <point x="278" y="274" type="line"/>
      <point x="415" y="274" type="line"/>
      <point x="415" y="348" type="line"/>
    </contour>
    <contour>
      <point x="415" y="0" type="line"/>
      <point x="415" y="73" type="line"/>
      <point x="69" y="73" type="line"/>
      <point x="69" y="0" type="line"/>
    </contour>
  </outline>
</glyph>
<glyph name="twosuperior" format="1">
  <advance width="241"/>
  <unicode hex="00B2"/>
  <outline>
    <contour>
      <point x="82" y="512" type="line"/>
      <point x="82" y="539" type="line" smooth="yes"/>
      <point x="82" y="571"/>
      <point x="94" y="598"/>
      <point x="124" y="598" type="curve" smooth="yes"/>
      <point x="156" y="598"/>
      <point x="164" y="573"/>
      <point x="164" y="553" type="curve" smooth="yes"/>
      <point x="164" y="499"/>
      <point x="117" y="460"/>
      <point x="77" y="415" type="curve" smooth="yes"/>
      <point x="47" y="382"/>
      <point x="21" y="346"/>
      <point x="21" y="299" type="curve" smooth="yes"/>
      <point x="21" y="285" type="line"/>
      <point x="223" y="285" type="line"/>
      <point x="223" y="340" type="line"/>
      <point x="89" y="340" type="line"/>
      <point x="100" y="364"/>
      <point x="122" y="384"/>
      <point x="139" y="402" type="curve" smooth="yes"/>
      <point x="177" y="444"/>
      <point x="222" y="495"/>
      <point x="222" y="553" type="curve" smooth="yes"/>
      <point x="222" y="622"/>
      <point x="178" y="650"/>
      <point x="125" y="650" type="curve" smooth="yes"/>
      <point x="72" y="650"/>
      <point x="25" y="617"/>
      <point x="25" y="538" type="curve" smooth="yes"/>
      <point x="25" y="527"/>
      <point x="27" y="512"/>
      <point x="27" y="512" type="curve"/>
    </contour>
  </outline>
</glyph>
<glyph name="threesuperior" format="1">
  <advance width="241"/>
  <unicode hex="00B3"/>
  <outline>
    <contour>
      <point x="27" y="532" type="line"/>
      <point x="82" y="532" type="line"/>
      <point x="82" y="544" type="line" smooth="yes"/>
      <point x="82" y="582"/>
      <point x="101" y="599"/>
      <point x="124" y="599" type="curve" smooth="yes"/>
      <point x="145" y="599"/>
      <point x="164" y="583"/>
      <point x="164" y="545" type="curve" smooth="yes"/>
      <point x="164" y="509"/>
      <point x="144" y="492"/>
      <point x="121" y="492" type="curve" smooth="yes"/>
      <point x="89" y="492" type="line"/>
      <point x="89" y="442" type="line"/>
      <point x="120" y="442" type="line" smooth="yes"/>
      <point x="146" y="442"/>
      <point x="170" y="431"/>
      <point x="170" y="387" type="curve" smooth="yes"/>
      <point x="170" y="347"/>
      <point x="150" y="330"/>
      <point x="121" y="330" type="curve" smooth="yes"/>
      <point x="92" y="330"/>
      <point x="77" y="349"/>
      <point x="77" y="388" type="curve" smooth="yes"/>
      <point x="77" y="400" type="line"/>
      <point x="20" y="400" type="line"/>
      <point x="20" y="390" type="line" smooth="yes"/>
      <point x="20" y="322"/>
      <point x="57" y="279"/>
      <point x="125" y="279" type="curve" smooth="yes"/>
      <point x="184" y="279"/>
      <point x="225" y="318"/>
      <point x="225" y="385" type="curve" smooth="yes"/>
      <point x="225" y="426"/>
      <point x="205" y="455"/>
      <point x="178" y="469" type="curve"/>
      <point x="204" y="486"/>
      <point x="220" y="508"/>
      <point x="220" y="548" type="curve" smooth="yes"/>
      <point x="220" y="613"/>
      <point x="181" y="650"/>
      <point x="123" y="650" type="curve" smooth="yes"/>
      <point x="66" y="650"/>
      <point x="27" y="610"/>
      <point x="27" y="548" type="curve" smooth="yes"/>
    </contour>
  </outline>
</glyph>
<glyph name="acute" format="1">
  <advance width="241"/>
  <unicode hex="00B4"/>
  <outline>
    <contour>
      <point x="121" y="522" type="line"/>
      <point x="217" y="636" type="line"/>
      <point x="216" y="639" type="line"/>
      <point x="136" y="639" type="line"/>
      <point x="60" y="522" type="line"/>
    </contour>
    <contour>
      <point x="139" y="465" type="move" name="_top"/>
    </contour>
  </outline>
</glyph>
<glyph name="cedilla" format="1">
  <advance width="241"/>
  <unicode hex="00B8"/>
  <outline>
    <contour>
      <point x="115" y="0" type="move" name="_bottom"/>
    </contour>
    <contour>
      <point x="133" y="10" type="line"/>
      <point x="84" y="10" type="line"/>
      <point x="72" y="-68" type="line"/>
      <point x="101" y="-68" type="line" smooth="yes"/>
      <point x="124" y="-68"/>
      <point x="131" y="-75"/>
      <point x="131" y="-89" type="curve" smooth="yes"/>
      <point x="131" y="-106"/>
      <point x="118" y="-111"/>
      <point x="99" y="-111" type="curve" smooth="yes"/>
      <point x="32" y="-111" type="line"/>
      <point x="32" y="-154" type="line"/>
      <point x="53" y="-158"/>
      <point x="81" y="-161"/>
      <point x="106" y="-161" type="curve" smooth="yes"/>
      <point x="142" y="-161"/>
      <point x="198" y="-149"/>
      <point x="198" y="-89" type="curve" smooth="yes"/>
      <point x="198" y="-49"/>
      <point x="164" y="-34"/>
      <point x="126" y="-32" type="curve"/>
    </contour>
  </outline>
</glyph>
<glyph name="onesuperior" format="1">
  <advance width="241"/>
  <unicode hex="00B9"/>
  <outline>
    <contour>
      <point x="225" y="336" type="line"/>
      <point x="160" y="336" type="line"/>
      <point x="160" y="640" type="line"/>
      <point x="134" y="640" type="line"/>
      <point x="107" y="621"/>
      <point x="62" y="606"/>
      <point x="34" y="602" type="curve"/>
      <point x="34" y="564" type="line"/>
      <point x="105" y="564" type="line"/>
      <point x="105" y="336" type="line"/>
      <point x="35" y="336" type="line"/>
      <point x="35" y="285" type="line"/>
      <point x="225" y="285" type="line"/>
    </contour>
  </outline>
</glyph>
<glyph name="guillemotright" format="1">
  <advance width="403"/>
  <unicode hex="00BB"/>
  <outline>
    <contour>
      <point x="96" y="111" type="line"/>
      <point x="222" y="288" type="line"/>
      <point x="96" y="465" type="line"/>
      <point x="34" y="465" type="line"/>
      <point x="133" y="288" type="line"/>
      <point x="34" y="111" type="line"/>
    </contour>
    <contour>
      <point x="231" y="111" type="line"/>
      <point x="355" y="288" type="line"/>
      <point x="231" y="465" type="line"/>
      <point x="168" y="465" type="line"/>
      <point x="268" y="288" type="line"/>
      <point x="168" y="111" type="line"/>
    </contour>
  </outline>
</glyph>
<glyph name="onehalf" format="1">
  <advance width="605"/>
  <unicode hex="00BD"/>
  <outline>
    <contour>
      <point x="148" y="-11" type="line"/>
      <point x="514" y="617" type="line"/>
      <point x="460" y="617" type="line"/>
      <point x="92" y="-11" type="line"/>
    </contour>
    <contour>
      <point x="153" y="302" type="line"/>
      <point x="153" y="606" type="line"/>
      <point x="127" y="606" type="line"/>
      <point x="100" y="588"/>
      <point x="55" y="572"/>
      <point x="27" y="568" type="curve"/>
      <point x="27" y="530" type="line"/>
      <point x="98" y="530" type="line"/>
      <point x="98" y="302" type="line"/>
      <point x="28" y="302" type="line"/>
      <point x="28" y="251" type="line"/>
      <point x="217" y="251" type="line"/>
      <point x="217" y="302" type="line"/>
    </contour>
    <contour>
      <point x="426" y="227" type="line"/>
      <point x="426" y="255" type="line" smooth="yes"/>
      <point x="426" y="286"/>
      <point x="438" y="313"/>
      <point x="468" y="313" type="curve" smooth="yes"/>
      <point x="499" y="313"/>
      <point x="507" y="288"/>
      <point x="507" y="269" type="curve" smooth="yes"/>
      <point x="507" y="217"/>
      <point x="465" y="179"/>
      <point x="426" y="136" type="curve" smooth="yes"/>
      <point x="394" y="102"/>
      <point x="365" y="64"/>
      <point x="365" y="14" type="curve" smooth="yes"/>
      <point x="365" y="0" type="line"/>
      <point x="567" y="0" type="line"/>
      <point x="567" y="56" type="line"/>
      <point x="433" y="56" type="line"/>
      <point x="444" y="80"/>
      <point x="466" y="99"/>
      <point x="483" y="118" type="curve" smooth="yes"/>
      <point x="521" y="159"/>
      <point x="566" y="210"/>
      <point x="566" y="269" type="curve" smooth="yes"/>
      <point x="566" y="338"/>
      <point x="522" y="365"/>
      <point x="469" y="365" type="curve" smooth="yes"/>
      <point x="415" y="365"/>
      <point x="369" y="332"/>
      <point x="369" y="254" type="curve" smooth="yes"/>
      <point x="369" y="242"/>
      <point x="370" y="227"/>
      <point x="370" y="227" type="curve"/>
    </contour>
  </outline>
</glyph>
<glyph name="Agrave" format="1">
  <advance width="484"/>
  <unicode hex="00C0"/>
  <outline>
    <contour>
      <point x="294" y="664" type="line"/>
      <point x="218" y="781" type="line"/>
      <point x="139" y="781" type="line"/>
      <point x="138" y="778" type="line"/>
      <point x="233" y="664" type="line"/>
    </contour>
    <contour>
      <point x="484" y="0" type="line"/>
      <point x="292" y="606" type="line"/>
      <point x="192" y="606" type="line"/>
      <point x="-1" y="0" type="line"/>
      <point x="77" y="0" type="line"/>
      <point x="118" y="135" type="line"/>
      <point x="359" y="135" type="line"/>
      <point x="400" y="0" type="line"/>
    </contour>
    <contour>
      <point x="240" y="543" type="line"/>
      <point x="240" y="543"/>
      <point x="248" y="496"/>
      <point x="255" y="476" type="curve"/>
      <point x="337" y="206" type="line"/>
      <point x="140" y="206" type="line"/>
      <point x="223" y="476" type="line" smooth="yes"/>
      <point x="229" y="495"/>
      <point x="237" y="543"/>
      <point x="237" y="543" type="curve"/>
    </contour>
  </outline>
</glyph>
<glyph name="Acircumflex" format="1">
  <advance width="484"/>
  <unicode hex="00C2"/>
  <outline>
    <contour>
      <point x="352" y="660" type="line"/>
      <point x="277" y="780" type="line"/>
      <point x="208" y="780" type="line"/>
      <point x="132" y="660" type="line"/>
      <point x="202" y="660" type="line"/>
      <point x="242" y="730" type="line"/>
      <point x="281" y="660" type="line"/>
    </contour>
    <contour>
      <point x="484" y="0" type="line"/>
      <point x="292" y="606" type="line"/>
      <point x="192" y="606" type="line"/>
      <point x="-1" y="0" type="line"/>
      <point x="77" y="0" type="line"/>
      <point x="118" y="135" type="line"/>
      <point x="359" y="135" type="line"/>
      <point x="400" y="0" type="line"/>
    </contour>
    <contour>
      <point x="240" y="543" type="line"/>
      <point x="240" y="543"/>
      <point x="248" y="496"/>
      <point x="255" y="476" type="curve"/>
      <point x="337" y="206" type="line"/>
      <point x="140" y="206" type="line"/>
      <point x="223" y="476" type="line" smooth="yes"/>
      <point x="229" y="495"/>
      <point x="237" y="543"/>
      <point x="237" y="543" type="curve"/>
    </contour>
  </outline>
</glyph>
<glyph name="Atilde" format="1">
  <advance width="484"/>
  <unicode hex="00C3"/>
  <outline>
    <contour>
      <point x="319" y="781" type="line"/>
      <point x="316" y="760"/>
      <point x="305" y="754"/>
      <point x="289" y="754" type="curve" smooth="yes"/>
      <point x="255" y="754"/>
      <point x="225" y="781"/>
      <point x="187" y="781" type="curve" smooth="yes"/>
      <point x="134" y="781"/>
      <point x="112" y="729"/>
      <point x="112" y="689" type="curve"/>
      <point x="164" y="689" type="line"/>
      <point x="166" y="709"/>
      <point x="178" y="716"/>
      <point x="194" y="716" type="curve" smooth="yes"/>
      <point x="228" y="716"/>
      <point x="257" y="689"/>
      <point x="295" y="689" type="curve" smooth="yes"/>
      <point x="349" y="689"/>
      <point x="370" y="740"/>
      <point x="370" y="781" type="curve"/>
    </contour>
    <contour>
      <point x="484" y="0" type="line"/>
      <point x="292" y="606" type="line"/>
      <point x="192" y="606" type="line"/>
      <point x="-1" y="0" type="line"/>
      <point x="77" y="0" type="line"/>
      <point x="118" y="135" type="line"/>
      <point x="359" y="135" type="line"/>
      <point x="400" y="0" type="line"/>
    </contour>
    <contour>
      <point x="240" y="543" type="line"/>
      <point x="240" y="543"/>
      <point x="248" y="496"/>
      <point x="255" y="476" type="curve"/>
      <point x="337" y="206" type="line"/>
      <point x="140" y="206" type="line"/>
      <point x="223" y="476" type="line" smooth="yes"/>
      <point x="229" y="495"/>
      <point x="237" y="543"/>
      <point x="237" y="543" type="curve"/>
    </contour>
  </outline>
</glyph>
<glyph name="Ecircumflex" format="1">
  <advance width="484"/>
  <unicode hex="00CA"/>
  <outline>
    <contour>
      <point x="352" y="660" type="line"/>
      <point x="277" y="780" type="line"/>
      <point x="208" y="780" type="line"/>
      <point x="132" y="660" type="line"/>
      <point x="202" y="660" type="line"/>
      <point x="242" y="730" type="line"/>
      <point x="281" y="660" type="line"/>
    </contour>
    <contour>
      <point x="436" y="536" type="line"/>
      <point x="436" y="606" type="line"/>
      <point x="62" y="606" type="line"/>
      <point x="62" y="0" type="line"/>
      <point x="441" y="0" type="line"/>
      <point x="441" y="71" type="line"/>
      <point x="140" y="71" type="line"/>
      <point x="140" y="275" type="line"/>
      <point x="397" y="275" type="line"/>
      <point x="397" y="346" type="line"/>
      <point x="140" y="346" type="line"/>
      <point x="140" y="536" type="line"/>
    </contour>
  </outline>
</glyph>
<glyph name="Edieresis" format="1">
  <advance width="484"/>
  <unicode hex="00CB"/>
  <outline>
    <contour>
      <point x="214" y="697" type="line"/>
      <point x="214" y="781" type="line"/>
      <point x="137" y="781" type="line"/>
      <point x="137" y="697" type="line"/>
    </contour>
    <contour>
      <point x="347" y="697" type="line"/>
      <point x="347" y="781" type="line"/>
      <point x="270" y="781" type="line"/>
      <point x="270" y="697" type="line"/>
    </contour>
    <contour>
      <point x="436" y="536" type="line"/>
      <point x="436" y="606" type="line"/>
      <point x="62" y="606" type="line"/>
      <point x="62" y="0" type="line"/>
      <point x="441" y="0" type="line"/>
      <point x="441" y="71" type="line"/>
      <point x="140" y="71" type="line"/>
      <point x="140" y="275" type="line"/>
      <point x="397" y="275" type="line"/>
      <point x="397" y="346" type="line"/>
      <point x="140" y="346" type="line"/>
      <point x="140" y="536" type="line"/>
    </contour>
  </outline>
</glyph>
<glyph name="Edieresis" format="1">
  <advance width="484"/>
  <unicode hex="00CB"/>
  <outline>
    <contour>
      <point x="214" y="697" type="line"/>
      <point x="214" y="781" type="line"/>
      <point x="137" y="781" type="line"/>
      <point x="137" y="697" type="line"/>
    </contour>
    <contour>
      <point x="347" y="697" type="line"/>
      <point x="347" y="781" type="line"/>
      <point x="270" y="781" type="line"/>
      <point x="270" y="697" type="line"/>
    </contour>
    <contour>
      <point x="436" y="536" type="line"/>
      <point x="436" y="606" type="line"/>
      <point x="62" y="606" type="line"/>
      <point x="62" y="0" type="line"/>
      <point x="441" y="0" type="line"/>
      <point x="441" y="71" type="line"/>
      <point x="140" y="71" type="line"/>
      <point x="140" y="275" type="line"/>
      <point x="397" y="275" type="line"/>
      <point x="397" y="346" type="line"/>
      <point x="140" y="346" type="line"/>
      <point x="140" y="536" type="line"/>
    </contour>
  </outline>
</glyph>
<glyph name="Icircumflex" format="1">
  <advance width="202"/>
  <unicode hex="00CE"/>
  <outline>
    <contour>
      <point x="211" y="660" type="line"/>
      <point x="136" y="780" type="line"/>
      <point x="67" y="780" type="line"/>
      <point x="-10" y="660" type="line"/>
      <point x="62" y="660" type="line"/>
      <point x="102" y="730" type="line"/>
      <point x="141" y="660" type="line"/>
    </contour>
    <contour>
      <point x="140" y="0" type="line"/>
      <point x="140" y="606" type="line"/>
      <point x="62" y="606" type="line"/>
      <point x="62" y="0" type="line"/>
    </contour>
  </outline>
</glyph>
<glyph name="Ocircumflex" format="1">
  <advance width="564"/>
  <unicode hex="00D4"/>
  <outline>
    <contour>
      <point x="322" y="660" type="line"/>
      <point x="392" y="660" type="line"/>
      <point x="317" y="780" type="line"/>
      <point x="248" y="780" type="line"/>
      <point x="172" y="660" type="line"/>
      <point x="243" y="660" type="line"/>
      <point x="283" y="730" type="line"/>
    </contour>
    <contour>
      <point x="133" y="617"/>
      <point x="43" y="514"/>
      <point x="43" y="303" type="curve" smooth="yes"/>
      <point x="43" y="93"/>
      <point x="133" y="-11"/>
      <point x="282" y="-11" type="curve" smooth="yes"/>
      <point x="431" y="-11"/>
      <point x="521" y="93"/>
      <point x="521" y="303" type="curve" smooth="yes"/>
      <point x="521" y="514"/>
      <point x="431" y="617"/>
      <point x="282" y="617" type="curve" smooth="yes"/>
    </contour>
    <contour>
      <point x="439" y="281" type="line" smooth="yes"/>
      <point x="439" y="133"/>
      <point x="379" y="61"/>
      <point x="282" y="61" type="curve" smooth="yes"/>
      <point x="185" y="61"/>
      <point x="125" y="133"/>
      <point x="125" y="281" type="curve" smooth="yes"/>
      <point x="125" y="325" type="line" smooth="yes"/>
      <point x="125" y="473"/>
      <point x="185" y="545"/>
      <point x="282" y="545" type="curve" smooth="yes"/>
      <point x="379" y="545"/>
      <point x="439" y="473"/>
      <point x="439" y="325" type="curve" smooth="yes"/>
    </contour>
  </outline>
</glyph>
<glyph name="Otilde" format="1">
  <advance width="564"/>
  <unicode hex="00D5"/>
  <outline>
    <contour>
      <point x="360" y="781" type="line"/>
      <point x="357" y="760"/>
      <point x="346" y="754"/>
      <point x="330" y="754" type="curve" smooth="yes"/>
      <point x="295" y="754"/>
      <point x="266" y="781"/>
      <point x="228" y="781" type="curve" smooth="yes"/>
      <point x="175" y="781"/>
      <point x="153" y="729"/>
      <point x="153" y="689" type="curve"/>
      <point x="204" y="689" type="line"/>
      <point x="207" y="709"/>
      <point x="218" y="716"/>
      <point x="234" y="716" type="curve" smooth="yes"/>
      <point x="269" y="716"/>
      <point x="298" y="689"/>
      <point x="336" y="689" type="curve" smooth="yes"/>
      <point x="389" y="689"/>
      <point x="411" y="740"/>
      <point x="411" y="781" type="curve"/>
    </contour>
    <contour>
      <point x="282" y="617" type="curve" smooth="yes"/>
      <point x="133" y="617"/>
      <point x="43" y="514"/>
      <point x="43" y="303" type="curve" smooth="yes"/>
      <point x="43" y="93"/>
      <point x="133" y="-11"/>
      <point x="282" y="-11" type="curve" smooth="yes"/>
      <point x="431" y="-11"/>
      <point x="521" y="93"/>
      <point x="521" y="303" type="curve" smooth="yes"/>
      <point x="521" y="514"/>
      <point x="431" y="617"/>
    </contour>
    <contour>
      <point x="439" y="281" type="line" smooth="yes"/>
      <point x="439" y="133"/>
      <point x="379" y="61"/>
      <point x="282" y="61" type="curve" smooth="yes"/>
      <point x="185" y="61"/>
      <point x="125" y="133"/>
      <point x="125" y="281" type="curve" smooth="yes"/>
      <point x="125" y="325" type="line" smooth="yes"/>
      <point x="125" y="473"/>
      <point x="185" y="545"/>
      <point x="282" y="545" type="curve" smooth="yes"/>
      <point x="379" y="545"/>
      <point x="439" y="473"/>
      <point x="439" y="325" type="curve" smooth="yes"/>
    </contour>
  </outline>
</glyph>
<glyph name="multiply" format="1">
  <advance width="423"/>
  <unicode hex="00D7"/>
  <outline>
    <contour>
      <point x="402" y="360" type="line"/>
      <point x="354" y="412" type="line"/>
      <point x="218" y="278" type="line"/>
      <point x="82" y="412" type="line"/>
      <point x="34" y="360" type="line"/>
      <point x="169" y="225" type="line"/>
      <point x="34" y="92" type="line"/>
      <point x="82" y="40" type="line"/>
      <point x="218" y="172" type="line"/>
      <point x="354" y="40" type="line"/>
      <point x="402" y="92" type="line"/>
      <point x="267" y="225" type="line"/>
    </contour>
  </outline>
</glyph>
<glyph name="Ugrave" format="1">
  <advance width="523"/>
  <unicode hex="00D9"/>
  <outline>
    <contour>
      <point x="314" y="664" type="line"/>
      <point x="239" y="781" type="line"/>
      <point x="158" y="781" type="line"/>
      <point x="157" y="778" type="line"/>
      <point x="254" y="664" type="line"/>
    </contour>
    <contour>
      <point x="461" y="606" type="line"/>
      <point x="384" y="606" type="line"/>
      <point x="384" y="193" type="line" smooth="yes"/>
      <point x="384" y="107"/>
      <point x="338" y="61"/>
      <point x="262" y="61" type="curve" smooth="yes"/>
      <point x="186" y="61"/>
      <point x="140" y="107"/>
      <point x="140" y="193" type="curve" smooth="yes"/>
      <point x="140" y="606" type="line"/>
      <point x="62" y="606" type="line"/>
      <point x="62" y="197" type="line" smooth="yes"/>
      <point x="62" y="61"/>
      <point x="137" y="-11"/>
      <point x="262" y="-11" type="curve" smooth="yes"/>
      <point x="386" y="-11"/>
      <point x="461" y="61"/>
      <point x="461" y="197" type="curve" smooth="yes"/>
    </contour>
  </outline>
</glyph>
<glyph name="Ucircumflex" format="1">
  <advance width="523"/>
  <unicode hex="00DB"/>
  <outline>
    <contour>
      <point x="372" y="660" type="line"/>
      <point x="296" y="780" type="line"/>
      <point x="227" y="780" type="line"/>
      <point x="151" y="660" type="line"/>
      <point x="222" y="660" type="line"/>
      <point x="263" y="730" type="line"/>
      <point x="301" y="660" type="line"/>
    </contour>
    <contour>
      <point x="461" y="606" type="line"/>
      <point x="384" y="606" type="line"/>
      <point x="384" y="193" type="line" smooth="yes"/>
      <point x="384" y="107"/>
      <point x="338" y="61"/>
      <point x="262" y="61" type="curve" smooth="yes"/>
      <point x="186" y="61"/>
      <point x="140" y="107"/>
      <point x="140" y="193" type="curve" smooth="yes"/>
      <point x="140" y="606" type="line"/>
      <point x="62" y="606" type="line"/>
      <point x="62" y="197" type="line" smooth="yes"/>
      <point x="62" y="61"/>
      <point x="137" y="-11"/>
      <point x="262" y="-11" type="curve" smooth="yes"/>
      <point x="386" y="-11"/>
      <point x="461" y="61"/>
      <point x="461" y="197" type="curve" smooth="yes"/>
    </contour>
  </outline>
</glyph>
<glyph name="Udieresis" format="1">
  <advance width="523"/>
  <unicode hex="00DC"/>
  <outline>
    <contour>
      <point x="233" y="697" type="line"/>
      <point x="233" y="781" type="line"/>
      <point x="156" y="781" type="line"/>
      <point x="156" y="697" type="line"/>
    </contour>
    <contour>
      <point x="367" y="697" type="line"/>
      <point x="367" y="781" type="line"/>
      <point x="289" y="781" type="line"/>
      <point x="289" y="697" type="line"/>
    </contour>
    <contour>
      <point x="461" y="606" type="line"/>
      <point x="384" y="606" type="line"/>
      <point x="384" y="193" type="line" smooth="yes"/>
      <point x="384" y="107"/>
      <point x="338" y="61"/>
      <point x="262" y="61" type="curve" smooth="yes"/>
      <point x="186" y="61"/>
      <point x="140" y="107"/>
      <point x="140" y="193" type="curve" smooth="yes"/>
      <point x="140" y="606" type="line"/>
      <point x="62" y="606" type="line"/>
      <point x="62" y="197" type="line" smooth="yes"/>
      <point x="62" y="61"/>
      <point x="137" y="-11"/>
      <point x="262" y="-11" type="curve" smooth="yes"/>
      <point x="386" y="-11"/>
      <point x="461" y="61"/>
      <point x="461" y="197" type="curve" smooth="yes"/>
    </contour>
  </outline>
</glyph>
<glyph name="Yacute" format="1">
  <advance width="484"/>
  <unicode hex="00DD"/>
  <outline>
    <contour>
      <point x="346" y="778" type="line"/>
      <point x="345" y="781" type="line"/>
      <point x="265" y="781" type="line"/>
      <point x="189" y="664" type="line"/>
      <point x="250" y="664" type="line"/>
    </contour>
    <contour>
      <point x="281" y="251" type="line"/>
      <point x="476" y="606" type="line"/>
      <point x="401" y="606" type="line"/>
      <point x="250" y="325" type="line"/>
      <point x="247" y="325" type="line"/>
      <point x="93" y="606" type="line"/>
      <point x="7" y="606" type="line"/>
      <point x="203" y="251" type="line"/>
      <point x="203" y="0" type="line"/>
      <point x="281" y="0" type="line"/>
    </contour>
  </outline>
</glyph>
<glyph name="germandbls" format="1">
  <advance width="443"/>
  <unicode hex="00DF"/>
  <outline>
    <contour>
      <point x="44" y="0" type="line"/>
      <point x="117" y="0" type="line"/>
      <point x="117" y="458" type="line" smooth="yes"/>
      <point x="117" y="542"/>
      <point x="157" y="585"/>
      <point x="220" y="585" type="curve" smooth="yes"/>
      <point x="283" y="585"/>
      <point x="316" y="544"/>
      <point x="316" y="482" type="curve" smooth="yes"/>
      <point x="316" y="423"/>
      <point x="272" y="374"/>
      <point x="218" y="374" type="curve" smooth="yes"/>
      <point x="166" y="374" type="line"/>
      <point x="166" y="309" type="line"/>
      <point x="225" y="309" type="line" smooth="yes"/>
      <point x="286" y="309"/>
      <point x="335" y="255"/>
      <point x="335" y="190" type="curve" smooth="yes"/>
      <point x="335" y="121"/>
      <point x="286" y="65"/>
      <point x="225" y="65" type="curve" smooth="yes"/>
      <point x="166" y="65" type="line"/>
      <point x="166" y="0" type="line"/>
      <point x="232" y="0" type="line" smooth="yes"/>
      <point x="331" y="0"/>
      <point x="409" y="75"/>
      <point x="409" y="189" type="curve" smooth="yes"/>
      <point x="409" y="257"/>
      <point x="367" y="324"/>
      <point x="307" y="346" type="curve"/>
      <point x="307" y="349" type="line"/>
      <point x="356" y="369"/>
      <point x="391" y="426"/>
      <point x="391" y="484" type="curve" smooth="yes"/>
      <point x="391" y="588"/>
      <point x="320" y="650"/>
      <point x="225" y="650" type="curve" smooth="yes"/>
      <point x="124" y="650"/>
      <point x="44" y="594"/>
      <point x="44" y="456" type="curve" smooth="yes"/>
    </contour>
  </outline>
</glyph>
<glyph name="atilde" format="1">
  <advance width="403"/>
  <unicode hex="00E3"/>
  <outline>
    <contour>
      <point x="279" y="639" type="line"/>
      <point x="277" y="619"/>
      <point x="265" y="612"/>
      <point x="249" y="612" type="curve" smooth="yes"/>
      <point x="215" y="612"/>
      <point x="186" y="639"/>
      <point x="148" y="639" type="curve" smooth="yes"/>
      <point x="95" y="639"/>
      <point x="72" y="588"/>
      <point x="72" y="547" type="curve"/>
      <point x="124" y="547" type="line"/>
      <point x="126" y="568"/>
      <point x="138" y="575"/>
      <point x="154" y="575" type="curve" smooth="yes"/>
      <point x="188" y="575"/>
      <point x="217" y="547"/>
      <point x="255" y="547" type="curve" smooth="yes"/>
      <point x="309" y="547"/>
      <point x="331" y="598"/>
      <point x="331" y="639" type="curve"/>
    </contour>
    <contour>
      <point x="120" y="327" type="line"/>
      <point x="120" y="338" type="line" smooth="yes"/>
      <point x="120" y="373"/>
      <point x="137" y="411"/>
      <point x="192" y="411" type="curve" smooth="yes"/>
      <point x="251" y="411"/>
      <point x="265" y="380"/>
      <point x="265" y="336" type="curve" smooth="yes"/>
      <point x="265" y="276" type="line"/>
      <point x="130" y="276"/>
      <point x="30" y="248"/>
      <point x="30" y="120" type="curve" smooth="yes"/>
      <point x="30" y="8"/>
      <point x="106" y="-11"/>
      <point x="152" y="-11" type="curve" smooth="yes"/>
      <point x="201" y="-11"/>
      <point x="241" y="12"/>
      <point x="265" y="50" type="curve"/>
      <point x="270" y="50" type="line"/>
      <point x="278" y="16"/>
      <point x="305" y="-7"/>
      <point x="343" y="-7" type="curve" smooth="yes"/>
      <point x="366" y="-7"/>
      <point x="383" y="-1"/>
      <point x="391" y="4" type="curve"/>
      <point x="391" y="54" type="line"/>
      <point x="362" y="54" type="line" smooth="yes"/>
      <point x="350" y="54"/>
      <point x="338" y="63"/>
      <point x="338" y="85" type="curve" smooth="yes"/>
      <point x="338" y="346" type="line" smooth="yes"/>
      <point x="338" y="428"/>
      <point x="291" y="476"/>
      <point x="197" y="476" type="curve" smooth="yes"/>
      <point x="110" y="476"/>
      <point x="48" y="431"/>
      <point x="48" y="347" type="curve" smooth="yes"/>
      <point x="48" y="339"/>
      <point x="48" y="332"/>
      <point x="49" y="327" type="curve"/>
    </contour>
    <contour>
      <point x="265" y="169" type="line" smooth="yes"/>
      <point x="265" y="92"/>
      <point x="215" y="54"/>
      <point x="169" y="54" type="curve" smooth="yes"/>
      <point x="128" y="54"/>
      <point x="106" y="72"/>
      <point x="106" y="125" type="curve" smooth="yes"/>
      <point x="106" y="197"/>
      <point x="171" y="211"/>
      <point x="265" y="211" type="curve"/>
    </contour>
  </outline>
</glyph>
<glyph name="ae" format="1">
  <advance width="644"/>
  <unicode hex="00E6"/>
  <outline>
    <contour>
      <point x="126" y="327" type="line"/>
      <point x="126" y="338" type="line" smooth="yes"/>
      <point x="126" y="373"/>
      <point x="142" y="411"/>
      <point x="197" y="411" type="curve" smooth="yes"/>
      <point x="256" y="411"/>
      <point x="271" y="380"/>
      <point x="271" y="336" type="curve" smooth="yes"/>
      <point x="271" y="276" type="line"/>
      <point x="135" y="276"/>
      <point x="35" y="248"/>
      <point x="35" y="120" type="curve" smooth="yes"/>
      <point x="35" y="8"/>
      <point x="113" y="-11"/>
      <point x="171" y="-11" type="curve" smooth="yes"/>
      <point x="225" y="-11"/>
      <point x="272" y="17"/>
      <point x="305" y="60" type="curve"/>
      <point x="334" y="11"/>
      <point x="382" y="-11"/>
      <point x="446" y="-11" type="curve" smooth="yes"/>
      <point x="537" y="-11"/>
      <point x="598" y="54"/>
      <point x="598" y="158" type="curve"/>
      <point x="527" y="158" type="line"/>
      <point x="527" y="94"/>
      <point x="494" y="54"/>
      <point x="448" y="54" type="curve" smooth="yes"/>
      <point x="379" y="54"/>
      <point x="347" y="103"/>
      <point x="347" y="211" type="curve"/>
      <point x="598" y="211" type="line"/>
      <point x="598" y="257" type="line" smooth="yes"/>
      <point x="598" y="413"/>
      <point x="547" y="476"/>
      <point x="446" y="476" type="curve" smooth="yes"/>
      <point x="392" y="476"/>
      <point x="351" y="459"/>
      <point x="322" y="423" type="curve"/>
      <point x="300" y="457"/>
      <point x="259" y="476"/>
      <point x="202" y="476" type="curve" smooth="yes"/>
      <point x="115" y="476"/>
      <point x="53" y="431"/>
      <point x="53" y="347" type="curve" smooth="yes"/>
      <point x="53" y="339"/>
      <point x="53" y="332"/>
      <point x="54" y="327" type="curve"/>
    </contour>
    <contour>
      <point x="347" y="276" type="line"/>
      <point x="354" y="365"/>
      <point x="381" y="411"/>
      <point x="446" y="411" type="curve" smooth="yes"/>
      <point x="496" y="411"/>
      <point x="522" y="364"/>
      <point x="522" y="276" type="curve"/>
    </contour>
    <contour>
      <point x="271" y="162" type="line" smooth="yes"/>
      <point x="271" y="89"/>
      <point x="220" y="54"/>
      <point x="174" y="54" type="curve" smooth="yes"/>
      <point x="133" y="54"/>
      <point x="111" y="72"/>
      <point x="111" y="125" type="curve" smooth="yes"/>
      <point x="111" y="197"/>
      <point x="176" y="211"/>
      <point x="271" y="211" type="curve"/>
    </contour>
    <contour>
      <point x="323" y="465" type="move" name="top"/>
    </contour>
  </outline>
</glyph>
<glyph name="ccedilla" format="1">
  <advance width="362"/>
  <unicode hex="00E7"/>
  <outline>
    <contour>
      <point x="138" y="-68" type="line"/>
      <point x="167" y="-68" type="line" smooth="yes"/>
      <point x="190" y="-68"/>
      <point x="197" y="-75"/>
      <point x="197" y="-89" type="curve" smooth="yes"/>
      <point x="197" y="-106"/>
      <point x="185" y="-111"/>
      <point x="165" y="-111" type="curve" smooth="yes"/>
      <point x="98" y="-111" type="line"/>
      <point x="98" y="-154" type="line"/>
      <point x="119" y="-158"/>
      <point x="148" y="-161"/>
      <point x="172" y="-161" type="curve" smooth="yes"/>
      <point x="209" y="-161"/>
      <point x="264" y="-149"/>
      <point x="264" y="-89" type="curve" smooth="yes"/>
      <point x="264" y="-49"/>
      <point x="231" y="-34"/>
      <point x="193" y="-32" type="curve"/>
      <point x="195" y="-11" type="line"/>
      <point x="294" y="-8"/>
      <point x="333" y="77"/>
      <point x="333" y="172" type="curve"/>
      <point x="262" y="172" type="line"/>
      <point x="262" y="95"/>
      <point x="243" y="54"/>
      <point x="191" y="54" type="curve" smooth="yes"/>
      <point x="133" y="54"/>
      <point x="108" y="109"/>
      <point x="108" y="216" type="curve" smooth="yes"/>
      <point x="108" y="249" type="line" smooth="yes"/>
      <point x="108" y="356"/>
      <point x="133" y="411"/>
      <point x="191" y="411" type="curve" smooth="yes"/>
      <point x="243" y="411"/>
      <point x="258" y="373"/>
      <point x="258" y="293" type="curve"/>
      <point x="333" y="293" type="line"/>
      <point x="333" y="411"/>
      <point x="292" y="476"/>
      <point x="191" y="476" type="curve" smooth="yes"/>
      <point x="82" y="476"/>
      <point x="32" y="400"/>
      <point x="32" y="232" type="curve" smooth="yes"/>
      <point x="32" y="89"/>
      <point x="68" y="13"/>
      <point x="148" y="-5" type="curve"/>
    </contour>
  </outline>
</glyph>
<glyph name="ecircumflex" format="1">
  <advance width="403"/>
  <unicode hex="00EA"/>
  <outline>
    <contour>
      <point x="312" y="519" type="line"/>
      <point x="237" y="638" type="line"/>
      <point x="167" y="638" type="line"/>
      <point x="92" y="519" type="line"/>
      <point x="163" y="519" type="line"/>
      <point x="202" y="589" type="line"/>
      <point x="241" y="519" type="line"/>
    </contour>
    <contour>
      <point x="293" y="158" type="line"/>
      <point x="293" y="94"/>
      <point x="261" y="54"/>
      <point x="215" y="54" type="curve" smooth="yes"/>
      <point x="146" y="54"/>
      <point x="114" y="103"/>
      <point x="113" y="211" type="curve"/>
      <point x="365" y="211" type="line"/>
      <point x="365" y="257" type="line" smooth="yes"/>
      <point x="365" y="413"/>
      <point x="314" y="476"/>
      <point x="212" y="476" type="curve" smooth="yes"/>
      <point x="95" y="476"/>
      <point x="37" y="400"/>
      <point x="37" y="232" type="curve" smooth="yes"/>
      <point x="37" y="60"/>
      <point x="97" y="-11"/>
      <point x="213" y="-11" type="curve" smooth="yes"/>
      <point x="303" y="-11"/>
      <point x="365" y="54"/>
      <point x="365" y="158" type="curve"/>
    </contour>
    <contour>
      <point x="114" y="276" type="line"/>
      <point x="120" y="365"/>
      <point x="148" y="411"/>
      <point x="212" y="411" type="curve" smooth="yes"/>
      <point x="263" y="411"/>
      <point x="289" y="364"/>
      <point x="289" y="276" type="curve"/>
    </contour>
  </outline>
</glyph>
<glyph name="iacute" format="1">
  <advance width="202"/>
  <unicode hex="00ED"/>
  <outline>
    <contour>
      <point x="204" y="636" type="line"/>
      <point x="203" y="639" type="line"/>
      <point x="125" y="639" type="line"/>
      <point x="49" y="522" type="line"/>
      <point x="110" y="522" type="line"/>
    </contour>
    <contour>
      <point x="137" y="0" type="line"/>
      <point x="137" y="465" type="line"/>
      <point x="65" y="465" type="line"/>
      <point x="65" y="0" type="line"/>
    </contour>
  </outline>
</glyph>
<glyph name="icircumflex" format="1">
  <advance width="202"/>
  <unicode hex="00EE"/>
  <outline>
    <contour>
      <point x="141" y="519" type="line"/>
      <point x="211" y="519" type="line"/>
      <point x="136" y="638" type="line"/>
      <point x="67" y="638" type="line"/>
      <point x="-10" y="519" type="line"/>
      <point x="62" y="519" type="line"/>
      <point x="102" y="589" type="line"/>
    </contour>
    <contour>
      <point x="65" y="0" type="line"/>
      <point x="137" y="0" type="line"/>
      <point x="137" y="465" type="line"/>
      <point x="65" y="465" type="line"/>
    </contour>
  </outline>
</glyph>
<glyph name="idieresis" format="1">
  <advance width="202"/>
  <unicode hex="00EF"/>
  <outline>
    <contour>
      <point x="73" y="555" type="line"/>
      <point x="73" y="639" type="line"/>
      <point x="-4" y="639" type="line"/>
      <point x="-4" y="555" type="line"/>
    </contour>
    <contour>
      <point x="206" y="555" type="line"/>
      <point x="206" y="639" type="line"/>
      <point x="129" y="639" type="line"/>
      <point x="129" y="555" type="line"/>
    </contour>
    <contour>
      <point x="137" y="0" type="line"/>
      <point x="137" y="465" type="line"/>
      <point x="65" y="465" type="line"/>
      <point x="65" y="0" type="line"/>
    </contour>
  </outline>
</glyph>
<glyph name="oacute" format="1">
  <advance width="403"/>
  <unicode hex="00F3"/>
  <outline>
    <contour>
      <point x="305" y="636" type="line"/>
      <point x="304" y="639" type="line"/>
      <point x="225" y="639" type="line"/>
      <point x="149" y="522" type="line"/>
      <point x="210" y="522" type="line"/>
    </contour>
    <contour>
      <point x="202" y="476" type="curve" smooth="yes"/>
      <point x="93" y="476"/>
      <point x="35" y="400"/>
      <point x="35" y="232" type="curve" smooth="yes"/>
      <point x="35" y="65"/>
      <point x="93" y="-11"/>
      <point x="202" y="-11" type="curve" smooth="yes"/>
      <point x="310" y="-11"/>
      <point x="368" y="65"/>
      <point x="368" y="232" type="curve" smooth="yes"/>
      <point x="368" y="400"/>
      <point x="310" y="476"/>
    </contour>
    <contour>
      <point x="292" y="216" type="line" smooth="yes"/>
      <point x="292" y="109"/>
      <point x="262" y="54"/>
      <point x="202" y="54" type="curve" smooth="yes"/>
      <point x="141" y="54"/>
      <point x="111" y="109"/>
      <point x="111" y="216" type="curve" smooth="yes"/>
      <point x="111" y="249" type="line" smooth="yes"/>
      <point x="111" y="356"/>
      <point x="141" y="411"/>
      <point x="202" y="411" type="curve" smooth="yes"/>
      <point x="262" y="411"/>
      <point x="292" y="356"/>
      <point x="292" y="249" type="curve" smooth="yes"/>
    </contour>
  </outline>
</glyph>
<glyph name="ocircumflex" format="1">
  <advance width="403"/>
  <unicode hex="00F4"/>
  <outline>
    <contour>
      <point x="241" y="519" type="line"/>
      <point x="312" y="519" type="line"/>
      <point x="237" y="638" type="line"/>
      <point x="167" y="638" type="line"/>
      <point x="92" y="519" type="line"/>
      <point x="163" y="519" type="line"/>
      <point x="202" y="589" type="line"/>
    </contour>
    <contour>
      <point x="93" y="476"/>
      <point x="35" y="400"/>
      <point x="35" y="232" type="curve" smooth="yes"/>
      <point x="35" y="65"/>
      <point x="93" y="-11"/>
      <point x="202" y="-11" type="curve" smooth="yes"/>
      <point x="310" y="-11"/>
      <point x="368" y="65"/>
      <point x="368" y="232" type="curve" smooth="yes"/>
      <point x="368" y="400"/>
      <point x="310" y="476"/>
      <point x="202" y="476" type="curve" smooth="yes"/>
    </contour>
    <contour>
      <point x="292" y="216" type="line" smooth="yes"/>
      <point x="292" y="109"/>
      <point x="262" y="54"/>
      <point x="202" y="54" type="curve" smooth="yes"/>
      <point x="141" y="54"/>
      <point x="111" y="109"/>
      <point x="111" y="216" type="curve" smooth="yes"/>
      <point x="111" y="249" type="line" smooth="yes"/>
      <point x="111" y="356"/>
      <point x="141" y="411"/>
      <point x="202" y="411" type="curve" smooth="yes"/>
      <point x="262" y="411"/>
      <point x="292" y="356"/>
      <point x="292" y="249" type="curve" smooth="yes"/>
    </contour>
  </outline>
</glyph>
<glyph name="odieresis" format="1">
  <advance width="403"/>
  <unicode hex="00F6"/>
  <outline>
    <contour>
      <point x="173" y="555" type="line"/>
      <point x="173" y="639" type="line"/>
      <point x="96" y="639" type="line"/>
      <point x="96" y="555" type="line"/>
    </contour>
    <contour>
      <point x="307" y="555" type="line"/>
      <point x="307" y="639" type="line"/>
      <point x="229" y="639" type="line"/>
      <point x="229" y="555" type="line"/>
    </contour>
    <contour>
      <point x="202" y="476" type="curve" smooth="yes"/>
      <point x="93" y="476"/>
      <point x="35" y="400"/>
      <point x="35" y="232" type="curve" smooth="yes"/>
      <point x="35" y="65"/>
      <point x="93" y="-11"/>
      <point x="202" y="-11" type="curve" smooth="yes"/>
      <point x="310" y="-11"/>
      <point x="368" y="65"/>
      <point x="368" y="232" type="curve" smooth="yes"/>
      <point x="368" y="400"/>
      <point x="310" y="476"/>
    </contour>
    <contour>
      <point x="292" y="216" type="line" smooth="yes"/>
      <point x="292" y="109"/>
      <point x="262" y="54"/>
      <point x="202" y="54" type="curve" smooth="yes"/>
      <point x="141" y="54"/>
      <point x="111" y="109"/>
      <point x="111" y="216" type="curve" smooth="yes"/>
      <point x="111" y="249" type="line" smooth="yes"/>
      <point x="111" y="356"/>
      <point x="141" y="411"/>
      <point x="202" y="411" type="curve" smooth="yes"/>
      <point x="262" y="411"/>
      <point x="292" y="356"/>
      <point x="292" y="249" type="curve" smooth="yes"/>
    </contour>
  </outline>
</glyph>
<glyph name="divide" format="1">
  <advance width="485"/>
  <unicode hex="00F7"/>
  <outline>
    <contour>
      <point x="205" y="326" type="line"/>
      <point x="279" y="326" type="line"/>
      <point x="279" y="407" type="line"/>
      <point x="205" y="407" type="line"/>
    </contour>
    <contour>
      <point x="38" y="188" type="line"/>
      <point x="446" y="188" type="line"/>
      <point x="446" y="263" type="line"/>
      <point x="38" y="263" type="line"/>
    </contour>
    <contour>
      <point x="205" y="45" type="line"/>
      <point x="279" y="45" type="line"/>
      <point x="279" y="125" type="line"/>
      <point x="205" y="125" type="line"/>
    </contour>
  </outline>
</glyph>
<glyph name="uacute" format="1">
  <advance width="403"/>
  <unicode hex="00FA"/>
  <outline>
    <contour>
      <point x="305" y="636" type="line"/>
      <point x="304" y="639" type="line"/>
      <point x="225" y="639" type="line"/>
      <point x="149" y="522" type="line"/>
      <point x="210" y="522" type="line"/>
    </contour>
    <contour>
      <point x="350" y="0" type="line"/>
      <point x="350" y="465" type="line"/>
      <point x="278" y="465" type="line"/>
      <point x="278" y="181" type="line" smooth="yes"/>
      <point x="278" y="101"/>
      <point x="237" y="54"/>
      <point x="191" y="54" type="curve" smooth="yes"/>
      <point x="152" y="54"/>
      <point x="126" y="71"/>
      <point x="126" y="135" type="curve" smooth="yes"/>
      <point x="126" y="465" type="line"/>
      <point x="53" y="465" type="line"/>
      <point x="53" y="130" type="line" smooth="yes"/>
      <point x="53" y="27"/>
      <point x="98" y="-11"/>
      <point x="168" y="-11" type="curve" smooth="yes"/>
      <point x="214" y="-11"/>
      <point x="255" y="8"/>
      <point x="280" y="54" type="curve"/>
      <point x="286" y="54" type="line"/>
      <point x="295" y="0" type="line"/>
    </contour>
  </outline>
</glyph>
<glyph name="ucircumflex" format="1">
  <advance width="403"/>
  <unicode hex="00FB"/>
  <outline>
    <contour>
      <point x="241" y="519" type="line"/>
      <point x="312" y="519" type="line"/>
      <point x="237" y="638" type="line"/>
      <point x="167" y="638" type="line"/>
      <point x="92" y="519" type="line"/>
      <point x="163" y="519" type="line"/>
      <point x="202" y="589" type="line"/>
    </contour>
    <contour>
      <point x="295" y="0" type="line"/>
      <point x="350" y="0" type="line"/>
      <point x="350" y="465" type="line"/>
      <point x="278" y="465" type="line"/>
      <point x="278" y="181" type="line" smooth="yes"/>
      <point x="278" y="101"/>
      <point x="237" y="54"/>
      <point x="191" y="54" type="curve" smooth="yes"/>
      <point x="152" y="54"/>
      <point x="126" y="71"/>
      <point x="126" y="135" type="curve" smooth="yes"/>
      <point x="126" y="465" type="line"/>
      <point x="53" y="465" type="line"/>
      <point x="53" y="130" type="line" smooth="yes"/>
      <point x="53" y="27"/>
      <point x="98" y="-11"/>
      <point x="168" y="-11" type="curve" smooth="yes"/>
      <point x="214" y="-11"/>
      <point x="255" y="8"/>
      <point x="280" y="54" type="curve"/>
      <point x="286" y="54" type="line"/>
    </contour>
  </outline>
</glyph>
<glyph name="udieresis" format="1">
  <advance width="403"/>
  <unicode hex="00FC"/>
  <outline>
    <contour>
      <point x="173" y="555" type="line"/>
      <point x="173" y="639" type="line"/>
      <point x="96" y="639" type="line"/>
      <point x="96" y="555" type="line"/>
    </contour>
    <contour>
      <point x="307" y="555" type="line"/>
      <point x="307" y="639" type="line"/>
      <point x="229" y="639" type="line"/>
      <point x="229" y="555" type="line"/>
    </contour>
    <contour>
      <point x="350" y="0" type="line"/>
      <point x="350" y="465" type="line"/>
      <point x="278" y="465" type="line"/>
      <point x="278" y="181" type="line" smooth="yes"/>
      <point x="278" y="101"/>
      <point x="237" y="54"/>
      <point x="191" y="54" type="curve" smooth="yes"/>
      <point x="152" y="54"/>
      <point x="126" y="71"/>
      <point x="126" y="135" type="curve" smooth="yes"/>
      <point x="126" y="465" type="line"/>
      <point x="53" y="465" type="line"/>
      <point x="53" y="130" type="line" smooth="yes"/>
      <point x="53" y="27"/>
      <point x="98" y="-11"/>
      <point x="168" y="-11" type="curve" smooth="yes"/>
      <point x="214" y="-11"/>
      <point x="255" y="8"/>
      <point x="280" y="54" type="curve"/>
      <point x="286" y="54" type="line"/>
      <point x="295" y="0" type="line"/>
    </contour>
  </outline>
</glyph>
<glyph name="yacute" format="1">
  <advance width="362"/>
  <unicode hex="00FD"/>
  <outline>
    <contour>
      <point x="281" y="465" type="line"/>
      <point x="224" y="225" type="line"/>
      <point x="214" y="185"/>
      <point x="204" y="144"/>
      <point x="194" y="104" type="curve"/>
      <point x="191" y="104" type="line"/>
      <point x="179" y="145"/>
      <point x="168" y="186"/>
      <point x="156" y="226" type="curve" smooth="yes"/>
      <point x="88" y="465" type="line"/>
      <point x="9" y="465" type="line"/>
      <point x="151" y="0" type="line"/>
      <point x="134" y="-80"/>
      <point x="98" y="-103"/>
      <point x="59" y="-103" type="curve" smooth="yes"/>
      <point x="34" y="-103" type="line"/>
      <point x="34" y="-154" type="line"/>
      <point x="49" y="-159"/>
      <point x="65" y="-161"/>
      <point x="86" y="-161" type="curve" smooth="yes"/>
      <point x="167" y="-161"/>
      <point x="209" y="-78"/>
      <point x="236" y="24" type="curve" smooth="yes"/>
      <point x="354" y="465" type="line"/>
    </contour>
    <contour>
      <point x="204" y="639" type="line"/>
      <point x="129" y="522" type="line"/>
      <point x="190" y="522" type="line"/>
      <point x="285" y="636" type="line"/>
      <point x="284" y="639" type="line"/>
    </contour>
  </outline>
</glyph>
<glyph name="Amacron" format="1">
  <advance width="484"/>
  <unicode hex="0100"/>
  <outline>
    <contour>
      <point x="353" y="671" type="line"/>
      <point x="353" y="735" type="line"/>
      <point x="131" y="735" type="line"/>
      <point x="131" y="671" type="line"/>
    </contour>
    <contour>
      <point x="484" y="0" type="line"/>
      <point x="292" y="606" type="line"/>
      <point x="192" y="606" type="line"/>
      <point x="-1" y="0" type="line"/>
      <point x="77" y="0" type="line"/>
      <point x="118" y="135" type="line"/>
      <point x="359" y="135" type="line"/>
      <point x="400" y="0" type="line"/>
    </contour>
    <contour>
      <point x="240" y="543" type="line"/>
      <point x="240" y="543"/>
      <point x="248" y="496"/>
      <point x="255" y="476" type="curve"/>
      <point x="337" y="206" type="line"/>
      <point x="140" y="206" type="line"/>
      <point x="223" y="476" type="line" smooth="yes"/>
      <point x="229" y="495"/>
      <point x="237" y="543"/>
      <point x="237" y="543" type="curve"/>
    </contour>
  </outline>
</glyph>
<glyph name="Aogonek" format="1">
  <advance width="547"/>
  <unicode hex="0104"/>
  <outline>
    <contour>
      <point x="548" y="0" type="line"/>
      <point x="330" y="686" type="line"/>
      <point x="217" y="686" type="line"/>
      <point x="-1" y="0" type="line"/>
      <point x="87" y="0" type="line"/>
      <point x="134" y="153" type="line"/>
      <point x="406" y="153" type="line"/>
      <point x="453" y="0" type="line"/>
    </contour>
    <contour>
      <point x="272" y="614"/>
      <point x="281" y="561"/>
      <point x="288" y="538" type="curve" smooth="yes"/>
      <point x="381" y="233" type="line"/>
      <point x="158" y="233" type="line"/>
      <point x="252" y="538" type="line" smooth="yes"/>
      <point x="259" y="560"/>
      <point x="268" y="614"/>
      <point x="268" y="614" type="curve"/>
      <point x="272" y="614" type="line"/>
    </contour>
    <contour>
      <point x="485" y="0" type="line"/>
      <point x="466" y="-24"/>
      <point x="446" y="-46"/>
      <point x="446" y="-92" type="curve" smooth="yes"/>
      <point x="446" y="-161"/>
      <point x="497" y="-182"/>
      <point x="540" y="-182" type="curve" smooth="yes"/>
      <point x="560" y="-182"/>
      <point x="580" y="-177"/>
      <point x="601" y="-168" type="curve"/>
      <point x="601" y="-117" type="line"/>
      <point x="570" y="-117" type="line" smooth="yes"/>
      <point x="536" y="-117"/>
      <point x="524" y="-90"/>
      <point x="524" y="-62" type="curve" smooth="yes"/>
      <point x="524" y="-34"/>
      <point x="537" y="-15"/>
      <point x="548" y="0" type="curve"/>
    </contour>
  </outline>
</glyph>
<glyph name="aogonek" format="1">
  <advance width="403"/>
  <unicode hex="0105"/>
  <outline>
    <contour>
      <point x="436" y="-103" type="line"/>
      <point x="408" y="-103" type="line" smooth="yes"/>
      <point x="378" y="-103"/>
      <point x="368" y="-80"/>
      <point x="368" y="-55" type="curve" smooth="yes"/>
      <point x="368" y="-32"/>
      <point x="380" y="-10"/>
      <point x="391" y="4" type="curve"/>
      <point x="391" y="54" type="line"/>
      <point x="362" y="54" type="line" smooth="yes"/>
      <point x="350" y="54"/>
      <point x="338" y="63"/>
      <point x="338" y="85" type="curve" smooth="yes"/>
      <point x="338" y="346" type="line" smooth="yes"/>
      <point x="338" y="428"/>
      <point x="291" y="476"/>
      <point x="197" y="476" type="curve" smooth="yes"/>
      <point x="110" y="476"/>
      <point x="48" y="431"/>
      <point x="48" y="347" type="curve" smooth="yes"/>
      <point x="48" y="339"/>
      <point x="48" y="332"/>
      <point x="49" y="327" type="curve"/>
      <point x="120" y="327" type="line"/>
      <point x="120" y="338" type="line" smooth="yes"/>
      <point x="120" y="373"/>
      <point x="137" y="411"/>
      <point x="192" y="411" type="curve" smooth="yes"/>
      <point x="251" y="411"/>
      <point x="265" y="380"/>
      <point x="265" y="336" type="curve" smooth="yes"/>
      <point x="265" y="276" type="line"/>
      <point x="130" y="276"/>
      <point x="30" y="248"/>
      <point x="30" y="120" type="curve" smooth="yes"/>
      <point x="30" y="8"/>
      <point x="106" y="-11"/>
      <point x="152" y="-11" type="curve" smooth="yes"/>
      <point x="201" y="-11"/>
      <point x="241" y="12"/>
      <point x="265" y="50" type="curve"/>
      <point x="270" y="50" type="line"/>
      <point x="277" y="21"/>
      <point x="297" y="1"/>
      <point x="325" y="-5" type="curve"/>
      <point x="310" y="-25"/>
      <point x="299" y="-47"/>
      <point x="299" y="-81" type="curve" smooth="yes"/>
      <point x="299" y="-142"/>
      <point x="344" y="-161"/>
      <point x="382" y="-161" type="curve" smooth="yes"/>
      <point x="400" y="-161"/>
      <point x="417" y="-156"/>
      <point x="436" y="-149" type="curve"/>
    </contour>
    <contour>
      <point x="265" y="169" type="line" smooth="yes"/>
      <point x="265" y="92"/>
      <point x="215" y="54"/>
      <point x="169" y="54" type="curve" smooth="yes"/>
      <point x="128" y="54"/>
      <point x="106" y="72"/>
      <point x="106" y="125" type="curve" smooth="yes"/>
      <point x="106" y="197"/>
      <point x="171" y="211"/>
      <point x="265" y="211" type="curve"/>
    </contour>
  </outline>
</glyph>
<glyph name="Cacute" format="1">
  <advance width="523"/>
  <unicode hex="0106"/>
  <outline>
    <contour>
      <point x="378" y="778" type="line"/>
      <point x="377" y="781" type="line"/>
      <point x="298" y="781" type="line"/>
      <point x="222" y="664" type="line"/>
      <point x="283" y="664" type="line"/>
    </contour>
    <contour>
      <point x="410" y="217" type="line"/>
      <point x="410" y="112"/>
      <point x="357" y="61"/>
      <point x="276" y="61" type="curve" smooth="yes"/>
      <point x="170" y="61"/>
      <point x="118" y="133"/>
      <point x="118" y="281" type="curve" smooth="yes"/>
      <point x="118" y="325" type="line" smooth="yes"/>
      <point x="118" y="473"/>
      <point x="170" y="545"/>
      <point x="276" y="545" type="curve" smooth="yes"/>
      <point x="355" y="545"/>
      <point x="408" y="493"/>
      <point x="408" y="387" type="curve"/>
      <point x="487" y="387" type="line"/>
      <point x="487" y="542"/>
      <point x="400" y="617"/>
      <point x="276" y="617" type="curve" smooth="yes"/>
      <point x="118" y="617"/>
      <point x="37" y="514"/>
      <point x="37" y="303" type="curve" smooth="yes"/>
      <point x="37" y="93"/>
      <point x="118" y="-11"/>
      <point x="276" y="-11" type="curve" smooth="yes"/>
      <point x="400" y="-11"/>
      <point x="487" y="61"/>
      <point x="487" y="217" type="curve"/>
    </contour>
  </outline>
</glyph>
<glyph name="cdotaccent" format="1">
  <advance width="362"/>
  <unicode hex="010B"/>
  <outline>
    <contour>
      <point x="143" y="555" type="line"/>
      <point x="220" y="555" type="line"/>
      <point x="220" y="639" type="line"/>
      <point x="143" y="639" type="line"/>
    </contour>
    <contour>
      <point x="262" y="172" type="line"/>
      <point x="262" y="95"/>
      <point x="243" y="54"/>
      <point x="191" y="54" type="curve" smooth="yes"/>
      <point x="133" y="54"/>
      <point x="108" y="109"/>
      <point x="108" y="216" type="curve" smooth="yes"/>
      <point x="108" y="249" type="line" smooth="yes"/>
      <point x="108" y="356"/>
      <point x="133" y="411"/>
      <point x="191" y="411" type="curve" smooth="yes"/>
      <point x="243" y="411"/>
      <point x="258" y="373"/>
      <point x="258" y="293" type="curve"/>
      <point x="333" y="293" type="line"/>
      <point x="333" y="411"/>
      <point x="292" y="476"/>
      <point x="191" y="476" type="curve" smooth="yes"/>
      <point x="82" y="476"/>
      <point x="32" y="400"/>
      <point x="32" y="232" type="curve" smooth="yes"/>
      <point x="32" y="65"/>
      <point x="81" y="-11"/>
      <point x="191" y="-11" type="curve" smooth="yes"/>
      <point x="293" y="-11"/>
      <point x="333" y="75"/>
      <point x="333" y="172" type="curve"/>
    </contour>
  </outline>
</glyph>
<glyph name="dcaron" format="1">
  <advance width="446"/>
  <unicode hex="010F"/>
  <outline>
    <contour>
      <point x="295" y="0" type="line"/>
      <point x="350" y="0" type="line"/>
      <point x="350" y="639" type="line"/>
      <point x="278" y="639" type="line"/>
      <point x="278" y="421" type="line"/>
      <point x="273" y="421" type="line"/>
      <point x="257" y="455"/>
      <point x="219" y="476"/>
      <point x="174" y="476" type="curve" smooth="yes"/>
      <point x="97" y="476"/>
      <point x="35" y="402"/>
      <point x="35" y="233" type="curve" smooth="yes"/>
      <point x="35" y="63"/>
      <point x="91" y="-11"/>
      <point x="179" y="-11" type="curve" smooth="yes"/>
      <point x="222" y="-11"/>
      <point x="259" y="11"/>
      <point x="281" y="54" type="curve"/>
      <point x="286" y="54" type="line"/>
    </contour>
    <contour>
      <point x="431" y="401" type="line"/>
      <point x="474" y="519" type="line"/>
      <point x="474" y="606" type="line"/>
      <point x="385" y="606" type="line"/>
      <point x="385" y="511" type="line"/>
      <point x="421" y="511" type="line"/>
      <point x="385" y="401" type="line"/>
    </contour>
    <contour>
      <point x="278" y="216" type="line" smooth="yes"/>
      <point x="278" y="109"/>
      <point x="250" y="54"/>
      <point x="194" y="54" type="curve" smooth="yes"/>
      <point x="139" y="54"/>
      <point x="111" y="100"/>
      <point x="111" y="216" type="curve" smooth="yes"/>
      <point x="111" y="249" type="line" smooth="yes"/>
      <point x="111" y="365"/>
      <point x="139" y="411"/>
      <point x="194" y="411" type="curve" smooth="yes"/>
      <point x="250" y="411"/>
      <point x="278" y="355"/>
      <point x="278" y="246" type="curve" smooth="yes"/>
    </contour>
  </outline>
</glyph>
<glyph name="Dcroat" format="1">
  <advance width="523"/>
  <unicode hex="0110"/>
  <outline>
    <contour>
      <point x="62" y="606" type="line"/>
      <point x="62" y="342" type="line"/>
      <point x="4" y="342" type="line"/>
      <point x="4" y="286" type="line"/>
      <point x="62" y="286" type="line"/>
      <point x="62" y="0" type="line"/>
      <point x="250" y="0" type="line" smooth="yes"/>
      <point x="393" y="0"/>
      <point x="480" y="104"/>
      <point x="480" y="312" type="curve" smooth="yes"/>
      <point x="480" y="507"/>
      <point x="393" y="606"/>
      <point x="250" y="606" type="curve" smooth="yes"/>
    </contour>
    <contour>
      <point x="140" y="536" type="line"/>
      <point x="243" y="536" type="line" smooth="yes"/>
      <point x="339" y="536"/>
      <point x="399" y="469"/>
      <point x="399" y="334" type="curve" smooth="yes"/>
      <point x="399" y="290" type="line" smooth="yes"/>
      <point x="399" y="142"/>
      <point x="339" y="71"/>
      <point x="243" y="71" type="curve" smooth="yes"/>
      <point x="140" y="71" type="line"/>
      <point x="140" y="286" type="line"/>
      <point x="278" y="286" type="line"/>
      <point x="278" y="342" type="line"/>
      <point x="140" y="342" type="line"/>
    </contour>
  </outline>
</glyph>
<glyph name="Dcroat" format="1">
  <advance width="523"/>
  <unicode hex="0110"/>
  <outline>
    <contour>
      <point x="62" y="342" type="line"/>
      <point x="4" y="342" type="line"/>
      <point x="4" y="286" type="line"/>
      <point x="62" y="286" type="line"/>
      <point x="62" y="0" type="line"/>
      <point x="250" y="0" type="line" smooth="yes"/>
      <point x="393" y="0"/>
      <point x="480" y="104"/>
      <point x="480" y="312" type="curve" smooth="yes"/>
      <point x="480" y="507"/>
      <point x="393" y="606"/>
      <point x="250" y="606" type="curve" smooth="yes"/>
      <point x="62" y="606" type="line"/>
    </contour>
    <contour>
      <point x="140" y="342" type="line"/>
      <point x="140" y="536" type="line"/>
      <point x="243" y="536" type="line" smooth="yes"/>
      <point x="339" y="536"/>
      <point x="399" y="469"/>
      <point x="399" y="334" type="curve" smooth="yes"/>
      <point x="399" y="290" type="line" smooth="yes"/>
      <point x="399" y="142"/>
      <point x="339" y="71"/>
      <point x="243" y="71" type="curve" smooth="yes"/>
      <point x="140" y="71" type="line"/>
      <point x="140" y="286" type="line"/>
      <point x="278" y="286" type="line"/>
      <point x="278" y="342" type="line"/>
    </contour>
  </outline>
</glyph>
<glyph name="dcroat" format="1">
  <advance width="400"/>
  <unicode hex="0111"/>
  <outline>
    <contour>
      <point x="350" y="575" type="line"/>
      <point x="350" y="639" type="line"/>
      <point x="278" y="639" type="line"/>
      <point x="278" y="575" type="line"/>
      <point x="179" y="575" type="line"/>
      <point x="179" y="515" type="line"/>
      <point x="278" y="515" type="line"/>
      <point x="278" y="421" type="line"/>
      <point x="273" y="421" type="line"/>
      <point x="257" y="455"/>
      <point x="219" y="476"/>
      <point x="174" y="476" type="curve" smooth="yes"/>
      <point x="97" y="476"/>
      <point x="35" y="402"/>
      <point x="35" y="233" type="curve" smooth="yes"/>
      <point x="35" y="63"/>
      <point x="91" y="-11"/>
      <point x="179" y="-11" type="curve" smooth="yes"/>
      <point x="222" y="-11"/>
      <point x="259" y="11"/>
      <point x="281" y="54" type="curve"/>
      <point x="286" y="54" type="line"/>
      <point x="295" y="0" type="line"/>
      <point x="350" y="0" type="line"/>
      <point x="350" y="515" type="line"/>
      <point x="401" y="515" type="line"/>
      <point x="401" y="575" type="line"/>
    </contour>
    <contour>
      <point x="278" y="216" type="line" smooth="yes"/>
      <point x="278" y="109"/>
      <point x="250" y="54"/>
      <point x="194" y="54" type="curve" smooth="yes"/>
      <point x="139" y="54"/>
      <point x="111" y="100"/>
      <point x="111" y="216" type="curve" smooth="yes"/>
      <point x="111" y="249" type="line" smooth="yes"/>
      <point x="111" y="365"/>
      <point x="139" y="411"/>
      <point x="194" y="411" type="curve" smooth="yes"/>
      <point x="250" y="411"/>
      <point x="278" y="355"/>
      <point x="278" y="246" type="curve" smooth="yes"/>
    </contour>
  </outline>
</glyph>
<glyph name="ebreve" format="1">
  <advance width="403"/>
  <unicode hex="0115"/>
  <outline>
    <contour>
      <point x="255" y="639" type="line"/>
      <point x="253" y="627"/>
      <point x="232" y="610"/>
      <point x="202" y="610" type="curve" smooth="yes"/>
      <point x="171" y="610"/>
      <point x="152" y="627"/>
      <point x="149" y="639" type="curve"/>
      <point x="92" y="639" type="line"/>
      <point x="92" y="599"/>
      <point x="134" y="553"/>
      <point x="202" y="553" type="curve" smooth="yes"/>
      <point x="270" y="553"/>
      <point x="311" y="599"/>
      <point x="311" y="639" type="curve"/>
    </contour>
    <contour>
      <point x="293" y="158" type="line"/>
      <point x="293" y="94"/>
      <point x="261" y="54"/>
      <point x="215" y="54" type="curve" smooth="yes"/>
      <point x="146" y="54"/>
      <point x="114" y="103"/>
      <point x="113" y="211" type="curve"/>
      <point x="365" y="211" type="line"/>
      <point x="365" y="257" type="line" smooth="yes"/>
      <point x="365" y="413"/>
      <point x="314" y="476"/>
      <point x="212" y="476" type="curve" smooth="yes"/>
      <point x="95" y="476"/>
      <point x="37" y="400"/>
      <point x="37" y="232" type="curve" smooth="yes"/>
      <point x="37" y="60"/>
      <point x="97" y="-11"/>
      <point x="213" y="-11" type="curve" smooth="yes"/>
      <point x="303" y="-11"/>
      <point x="365" y="54"/>
      <point x="365" y="158" type="curve"/>
    </contour>
    <contour>
      <point x="114" y="276" type="line"/>
      <point x="120" y="365"/>
      <point x="148" y="411"/>
      <point x="212" y="411" type="curve" smooth="yes"/>
      <point x="263" y="411"/>
      <point x="289" y="364"/>
      <point x="289" y="276" type="curve"/>
    </contour>
  </outline>
</glyph>
<glyph name="Edotaccent" format="1">
  <advance width="484"/>
  <unicode hex="0116"/>
  <outline>
    <contour>
      <point x="203" y="697" type="line"/>
      <point x="280" y="697" type="line"/>
      <point x="280" y="781" type="line"/>
      <point x="203" y="781" type="line"/>
    </contour>
    <contour>
      <point x="62" y="606" type="line"/>
      <point x="62" y="0" type="line"/>
      <point x="441" y="0" type="line"/>
      <point x="441" y="71" type="line"/>
      <point x="140" y="71" type="line"/>
      <point x="140" y="275" type="line"/>
      <point x="397" y="275" type="line"/>
      <point x="397" y="346" type="line"/>
      <point x="140" y="346" type="line"/>
      <point x="140" y="536" type="line"/>
      <point x="436" y="536" type="line"/>
      <point x="436" y="606" type="line"/>
    </contour>
  </outline>
</glyph>
<glyph name="Eogonek" format="1">
  <advance width="484"/>
  <unicode hex="0118"/>
  <outline>
    <contour>
      <point x="436" y="536" type="line"/>
      <point x="436" y="606" type="line"/>
      <point x="62" y="606" type="line"/>
      <point x="62" y="0" type="line"/>
      <point x="384" y="0" type="line"/>
      <point x="365" y="-20"/>
      <point x="351" y="-44"/>
      <point x="351" y="-81" type="curve" smooth="yes"/>
      <point x="351" y="-142"/>
      <point x="396" y="-161"/>
      <point x="434" y="-161" type="curve" smooth="yes"/>
      <point x="452" y="-161"/>
      <point x="469" y="-156"/>
      <point x="488" y="-149" type="curve"/>
      <point x="488" y="-103" type="line"/>
      <point x="461" y="-103" type="line" smooth="yes"/>
      <point x="431" y="-103"/>
      <point x="420" y="-80"/>
      <point x="420" y="-55" type="curve" smooth="yes"/>
      <point x="420" y="-34"/>
      <point x="431" y="-13"/>
      <point x="441" y="0" type="curve"/>
      <point x="441" y="71" type="line"/>
      <point x="140" y="71" type="line"/>
      <point x="140" y="275" type="line"/>
      <point x="397" y="275" type="line"/>
      <point x="397" y="346" type="line"/>
      <point x="140" y="346" type="line"/>
      <point x="140" y="536" type="line"/>
    </contour>
  </outline>
</glyph>
<glyph name="Ecaron" format="1">
  <advance width="484"/>
  <unicode hex="011A"/>
  <outline>
    <contour>
      <point x="207" y="661" type="line"/>
      <point x="276" y="661" type="line"/>
      <point x="352" y="781" type="line"/>
      <point x="281" y="781" type="line"/>
      <point x="241" y="711" type="line"/>
      <point x="202" y="781" type="line"/>
      <point x="132" y="781" type="line"/>
    </contour>
    <contour>
      <point x="62" y="606" type="line"/>
      <point x="62" y="0" type="line"/>
      <point x="441" y="0" type="line"/>
      <point x="441" y="71" type="line"/>
      <point x="140" y="71" type="line"/>
      <point x="140" y="275" type="line"/>
      <point x="397" y="275" type="line"/>
      <point x="397" y="346" type="line"/>
      <point x="140" y="346" type="line"/>
      <point x="140" y="536" type="line"/>
      <point x="436" y="536" type="line"/>
      <point x="436" y="606" type="line"/>
    </contour>
  </outline>
</glyph>
<glyph name="Gcircumflex" format="1">
  <advance width="564"/>
  <unicode hex="011C"/>
  <outline>
    <contour>
      <point x="248" y="780" type="line"/>
      <point x="172" y="660" type="line"/>
      <point x="243" y="660" type="line"/>
      <point x="283" y="730" type="line"/>
      <point x="322" y="660" type="line"/>
      <point x="392" y="660" type="line"/>
      <point x="317" y="780" type="line"/>
    </contour>
    <contour>
      <point x="135" y="617"/>
      <point x="43" y="514"/>
      <point x="43" y="303" type="curve" smooth="yes"/>
      <point x="43" y="93"/>
      <point x="129" y="-11"/>
      <point x="282" y="-11" type="curve" smooth="yes"/>
      <point x="347" y="-11"/>
      <point x="401" y="12"/>
      <point x="438" y="67" type="curve"/>
      <point x="455" y="0" type="line"/>
      <point x="507" y="0" type="line"/>
      <point x="507" y="316" type="line"/>
      <point x="270" y="316" type="line"/>
      <point x="270" y="248" type="line"/>
      <point x="459" y="248" type="line"/>
      <point x="427" y="280" type="line"/>
      <point x="427" y="233" type="line" smooth="yes"/>
      <point x="427" y="118"/>
      <point x="383" y="61"/>
      <point x="282" y="61" type="curve" smooth="yes"/>
      <point x="180" y="61"/>
      <point x="125" y="133"/>
      <point x="125" y="281" type="curve" smooth="yes"/>
      <point x="125" y="325" type="line" smooth="yes"/>
      <point x="125" y="473"/>
      <point x="187" y="545"/>
      <point x="286" y="545" type="curve" smooth="yes"/>
      <point x="370" y="545"/>
      <point x="427" y="500"/>
      <point x="427" y="400" type="curve"/>
      <point x="507" y="400" type="line"/>
      <point x="507" y="546"/>
      <point x="413" y="617"/>
      <point x="286" y="617" type="curve" smooth="yes"/>
    </contour>
  </outline>
</glyph>
<glyph name="Gbreve" format="1">
  <advance width="564"/>
  <unicode hex="011E"/>
  <outline>
    <contour>
      <point x="335" y="781" type="line"/>
      <point x="333" y="768"/>
      <point x="312" y="751"/>
      <point x="282" y="751" type="curve" smooth="yes"/>
      <point x="253" y="751"/>
      <point x="232" y="768"/>
      <point x="230" y="781" type="curve"/>
      <point x="173" y="781" type="line"/>
      <point x="173" y="741"/>
      <point x="215" y="695"/>
      <point x="282" y="695" type="curve" smooth="yes"/>
      <point x="350" y="695"/>
      <point x="392" y="741"/>
      <point x="392" y="781" type="curve"/>
    </contour>
    <contour>
      <point x="270" y="316" type="line"/>
      <point x="270" y="248" type="line"/>
      <point x="427" y="248" type="line"/>
      <point x="427" y="233" type="line" smooth="yes"/>
      <point x="427" y="118"/>
      <point x="383" y="61"/>
      <point x="282" y="61" type="curve" smooth="yes"/>
      <point x="180" y="61"/>
      <point x="125" y="133"/>
      <point x="125" y="281" type="curve" smooth="yes"/>
      <point x="125" y="325" type="line" smooth="yes"/>
      <point x="125" y="473"/>
      <point x="187" y="545"/>
      <point x="286" y="545" type="curve" smooth="yes"/>
      <point x="370" y="545"/>
      <point x="427" y="500"/>
      <point x="427" y="400" type="curve"/>
      <point x="507" y="400" type="line"/>
      <point x="507" y="546"/>
      <point x="413" y="617"/>
      <point x="286" y="617" type="curve" smooth="yes"/>
      <point x="135" y="617"/>
      <point x="43" y="514"/>
      <point x="43" y="303" type="curve" smooth="yes"/>
      <point x="43" y="93"/>
      <point x="129" y="-11"/>
      <point x="282" y="-11" type="curve" smooth="yes"/>
      <point x="347" y="-11"/>
      <point x="401" y="12"/>
      <point x="438" y="67" type="curve"/>
      <point x="455" y="0" type="line"/>
      <point x="507" y="0" type="line"/>
      <point x="507" y="316" type="line"/>
    </contour>
  </outline>
</glyph>
<glyph name="Hcircumflex" format="1">
  <advance width="523"/>
  <unicode hex="0124"/>
  <outline>
    <contour>
      <point x="372" y="660" type="line"/>
      <point x="296" y="780" type="line"/>
      <point x="227" y="780" type="line"/>
      <point x="151" y="660" type="line"/>
      <point x="222" y="660" type="line"/>
      <point x="263" y="730" type="line"/>
      <point x="301" y="660" type="line"/>
    </contour>
    <contour>
      <point x="461" y="0" type="line"/>
      <point x="461" y="606" type="line"/>
      <point x="384" y="606" type="line"/>
      <point x="384" y="346" type="line"/>
      <point x="140" y="346" type="line"/>
      <point x="140" y="606" type="line"/>
      <point x="62" y="606" type="line"/>
      <point x="62" y="0" type="line"/>
      <point x="140" y="0" type="line"/>
      <point x="140" y="275" type="line"/>
      <point x="384" y="275" type="line"/>
      <point x="384" y="0" type="line"/>
    </contour>
  </outline>
</glyph>
<glyph name="Hbar" format="1">
  <advance width="523"/>
  <unicode hex="0126"/>
  <outline>
    <contour>
      <point x="461" y="497" type="line"/>
      <point x="461" y="606" type="line"/>
      <point x="384" y="606" type="line"/>
      <point x="384" y="497" type="line"/>
      <point x="140" y="497" type="line"/>
      <point x="140" y="606" type="line"/>
      <point x="62" y="606" type="line"/>
      <point x="62" y="497" type="line"/>
      <point x="18" y="497" type="line"/>
      <point x="18" y="433" type="line"/>
      <point x="62" y="433" type="line"/>
      <point x="62" y="0" type="line"/>
      <point x="140" y="0" type="line"/>
      <point x="140" y="271" type="line"/>
      <point x="384" y="271" type="line"/>
      <point x="384" y="0" type="line"/>
      <point x="461" y="0" type="line"/>
      <point x="461" y="433" type="line"/>
      <point x="506" y="433" type="line"/>
      <point x="506" y="497" type="line"/>
    </contour>
    <contour>
      <point x="140" y="433" type="line"/>
      <point x="384" y="433" type="line"/>
      <point x="384" y="341" type="line"/>
      <point x="140" y="341" type="line"/>
    </contour>
  </outline>
</glyph>
<glyph name="Itilde" format="1">
  <advance width="202"/>
  <unicode hex="0128"/>
  <outline>
    <contour>
      <point x="179" y="781" type="line"/>
      <point x="176" y="760"/>
      <point x="164" y="754"/>
      <point x="149" y="754" type="curve" smooth="yes"/>
      <point x="114" y="754"/>
      <point x="85" y="781"/>
      <point x="47" y="781" type="curve" smooth="yes"/>
      <point x="-6" y="781"/>
      <point x="-28" y="729"/>
      <point x="-28" y="689" type="curve"/>
      <point x="23" y="689" type="line"/>
      <point x="26" y="709"/>
      <point x="37" y="716"/>
      <point x="53" y="716" type="curve" smooth="yes"/>
      <point x="88" y="716"/>
      <point x="117" y="689"/>
      <point x="155" y="689" type="curve" smooth="yes"/>
      <point x="208" y="689"/>
      <point x="230" y="740"/>
      <point x="230" y="781" type="curve"/>
    </contour>
    <contour>
      <point x="140" y="0" type="line"/>
      <point x="140" y="606" type="line"/>
      <point x="62" y="606" type="line"/>
      <point x="62" y="0" type="line"/>
    </contour>
  </outline>
</glyph>
<glyph name="itilde" format="1">
  <advance width="202"/>
  <unicode hex="0129"/>
  <outline>
    <contour>
      <point x="179" y="639" type="line"/>
      <point x="176" y="619"/>
      <point x="164" y="612"/>
      <point x="149" y="612" type="curve" smooth="yes"/>
      <point x="114" y="612"/>
      <point x="85" y="639"/>
      <point x="47" y="639" type="curve" smooth="yes"/>
      <point x="-6" y="639"/>
      <point x="-28" y="588"/>
      <point x="-28" y="547" type="curve"/>
      <point x="23" y="547" type="line"/>
      <point x="26" y="568"/>
      <point x="37" y="575"/>
      <point x="53" y="575" type="curve" smooth="yes"/>
      <point x="88" y="575"/>
      <point x="117" y="547"/>
      <point x="155" y="547" type="curve" smooth="yes"/>
      <point x="208" y="547"/>
      <point x="230" y="598"/>
      <point x="230" y="639" type="curve"/>
    </contour>
    <contour>
      <point x="65" y="0" type="line"/>
      <point x="137" y="0" type="line"/>
      <point x="137" y="465" type="line"/>
      <point x="65" y="465" type="line"/>
    </contour>
  </outline>
</glyph>
<glyph name="Iogonek" format="1">
  <advance width="202"/>
  <unicode hex="012E"/>
  <outline>
    <contour>
      <point x="140" y="606" type="line"/>
      <point x="62" y="606" type="line"/>
      <point x="62" y="0" type="line"/>
      <point x="82" y="0" type="line"/>
      <point x="64" y="-20"/>
      <point x="50" y="-43"/>
      <point x="50" y="-81" type="curve" smooth="yes"/>
      <point x="50" y="-142"/>
      <point x="95" y="-161"/>
      <point x="133" y="-161" type="curve" smooth="yes"/>
      <point x="151" y="-161"/>
      <point x="169" y="-156"/>
      <point x="187" y="-149" type="curve"/>
      <point x="187" y="-103" type="line"/>
      <point x="159" y="-103" type="line" smooth="yes"/>
      <point x="130" y="-103"/>
      <point x="118" y="-80"/>
      <point x="118" y="-55" type="curve" smooth="yes"/>
      <point x="118" y="-30"/>
      <point x="131" y="-13"/>
      <point x="140" y="0" type="curve"/>
    </contour>
  </outline>
</glyph>
<glyph name="Iogonek" format="1">
  <advance width="228"/>
  <unicode hex="012E"/>
  <outline>
    <contour>
      <point x="70" y="686" type="line"/>
      <point x="70" y="0" type="line"/>
      <point x="93.2463" y="0" type="line"/>
      <point x="72.3619" y="-23"/>
      <point x="55.9999" y="-49"/>
      <point x="55.9999" y="-92" type="curve" smooth="yes"/>
      <point x="55.9999" y="-161"/>
      <point x="108" y="-182"/>
      <point x="151" y="-182" type="curve" smooth="yes"/>
      <point x="171" y="-182"/>
      <point x="191" y="-177"/>
      <point x="212" y="-168" type="curve"/>
      <point x="212" y="-117" type="line"/>
      <point x="180" y="-117" type="line" smooth="yes"/>
      <point x="147" y="-117"/>
      <point x="134" y="-90"/>
      <point x="134" y="-62" type="curve" smooth="yes"/>
      <point x="134" y="-34"/>
      <point x="148" y="-15"/>
      <point x="158" y="0" type="curve"/>
      <point x="158" y="686" type="line"/>
    </contour>
  </outline>
</glyph>
<glyph name="iogonek" format="1">
  <advance width="161"/>
  <unicode hex="012F"/>
  <outline>
    <contour>
      <point x="120" y="555" type="line"/>
      <point x="120" y="639" type="line"/>
      <point x="42" y="639" type="line"/>
      <point x="42" y="555" type="line"/>
    </contour>
    <contour>
      <point x="117" y="465" type="line"/>
      <point x="44" y="465" type="line"/>
      <point x="44" y="0" type="line"/>
      <point x="59" y="0" type="line"/>
      <point x="41" y="-20"/>
      <point x="27" y="-44"/>
      <point x="27" y="-81" type="curve" smooth="yes"/>
      <point x="27" y="-142"/>
      <point x="72" y="-161"/>
      <point x="110" y="-161" type="curve" smooth="yes"/>
      <point x="127" y="-161"/>
      <point x="145" y="-156"/>
      <point x="164" y="-149" type="curve"/>
      <point x="164" y="-103" type="line"/>
      <point x="135" y="-103" type="line" smooth="yes"/>
      <point x="106" y="-103"/>
      <point x="95" y="-80"/>
      <point x="95" y="-55" type="curve" smooth="yes"/>
      <point x="95" y="-34"/>
      <point x="107" y="-13"/>
      <point x="117" y="0" type="curve"/>
    </contour>
  </outline>
</glyph>
<glyph name="IJ" format="1">
  <advance width="564"/>
  <unicode hex="0132"/>
  <outline>
    <contour>
      <point x="140" y="0" type="line"/>
      <point x="140" y="606" type="line"/>
      <point x="62" y="606" type="line"/>
      <point x="62" y="0" type="line"/>
    </contour>
    <contour>
      <point x="507" y="606" type="line"/>
      <point x="429" y="606" type="line"/>
      <point x="429" y="140" type="line" smooth="yes"/>
      <point x="429" y="88"/>
      <point x="404" y="61"/>
      <point x="360" y="61" type="curve" smooth="yes"/>
      <point x="316" y="61"/>
      <point x="291" y="88"/>
      <point x="291" y="140" type="curve" smooth="yes"/>
      <point x="291" y="184" type="line"/>
      <point x="213" y="184" type="line"/>
      <point x="213" y="144" type="line" smooth="yes"/>
      <point x="213" y="43"/>
      <point x="267" y="-11"/>
      <point x="360" y="-11" type="curve" smooth="yes"/>
      <point x="453" y="-11"/>
      <point x="507" y="43"/>
      <point x="507" y="144" type="curve" smooth="yes"/>
    </contour>
  </outline>
</glyph>
<glyph name="Jcircumflex" format="1">
  <advance width="362"/>
  <unicode hex="0134"/>
  <outline>
    <contour>
      <point x="377" y="660" type="line"/>
      <point x="301" y="780" type="line"/>
      <point x="232" y="780" type="line"/>
      <point x="156" y="660" type="line"/>
      <point x="227" y="660" type="line"/>
      <point x="268" y="730" type="line"/>
      <point x="307" y="660" type="line"/>
    </contour>
    <contour>
      <point x="305" y="606" type="line"/>
      <point x="227" y="606" type="line"/>
      <point x="227" y="140" type="line" smooth="yes"/>
      <point x="227" y="88"/>
      <point x="202" y="61"/>
      <point x="158" y="61" type="curve" smooth="yes"/>
      <point x="114" y="61"/>
      <point x="89" y="88"/>
      <point x="89" y="140" type="curve" smooth="yes"/>
      <point x="89" y="184" type="line"/>
      <point x="11" y="184" type="line"/>
      <point x="11" y="144" type="line" smooth="yes"/>
      <point x="11" y="43"/>
      <point x="65" y="-11"/>
      <point x="158" y="-11" type="curve" smooth="yes"/>
      <point x="251" y="-11"/>
      <point x="305" y="43"/>
      <point x="305" y="144" type="curve" smooth="yes"/>
    </contour>
  </outline>
</glyph>
<glyph name="Kcommaaccent" format="1">
  <advance width="484"/>
  <unicode hex="0136"/>
  <outline>
    <contour>
      <point x="380" y="606" type="line"/>
      <point x="140" y="286" type="line"/>
      <point x="140" y="606" type="line"/>
      <point x="62" y="606" type="line"/>
      <point x="62" y="0" type="line"/>
      <point x="140" y="0" type="line"/>
      <point x="140" y="188" type="line"/>
      <point x="237" y="296" type="line"/>
      <point x="385" y="0" type="line"/>
      <point x="473" y="0" type="line"/>
      <point x="285" y="362" type="line"/>
      <point x="467" y="606" type="line"/>
    </contour>
    <contour>
      <point x="254" y="-196" type="line"/>
      <point x="279" y="-127" type="line"/>
      <point x="279" y="-53" type="line"/>
      <point x="204" y="-53" type="line"/>
      <point x="204" y="-133" type="line"/>
      <point x="234" y="-133" type="line"/>
      <point x="215" y="-196" type="line"/>
    </contour>
  </outline>
</glyph>
<glyph name="kcommaaccent" format="1">
  <advance width="362"/>
  <unicode hex="0137"/>
  <outline>
    <contour>
      <point x="276" y="465" type="line"/>
      <point x="126" y="249" type="line"/>
      <point x="126" y="639" type="line"/>
      <point x="53" y="639" type="line"/>
      <point x="53" y="0" type="line"/>
      <point x="126" y="0" type="line"/>
      <point x="126" y="158" type="line"/>
      <point x="175" y="212" type="line"/>
      <point x="281" y="0" type="line"/>
      <point x="363" y="0" type="line"/>
      <point x="219" y="274" type="line"/>
      <point x="356" y="465" type="line"/>
    </contour>
    <contour>
      <point x="194" y="-196" type="line"/>
      <point x="219" y="-127" type="line"/>
      <point x="219" y="-53" type="line"/>
      <point x="144" y="-53" type="line"/>
      <point x="144" y="-133" type="line"/>
      <point x="174" y="-133" type="line"/>
      <point x="154" y="-196" type="line"/>
    </contour>
  </outline>
</glyph>
<glyph name="kgreenlandic" format="1">
  <advance width="361"/>
  <unicode hex="0138"/>
  <outline>
    <contour>
      <point x="363" y="0" type="line"/>
      <point x="219" y="274" type="line"/>
      <point x="356" y="465" type="line"/>
      <point x="276" y="465" type="line"/>
      <point x="126" y="249" type="line"/>
      <point x="126" y="465" type="line"/>
      <point x="53" y="465" type="line"/>
      <point x="53" y="0" type="line"/>
      <point x="126" y="0" type="line"/>
      <point x="126" y="158" type="line"/>
      <point x="175" y="212" type="line"/>
      <point x="281" y="0" type="line"/>
    </contour>
  </outline>
</glyph>
<glyph name="Lacute" format="1">
  <advance width="403"/>
  <unicode hex="0139"/>
  <outline>
    <contour>
      <point x="202" y="778" type="line"/>
      <point x="201" y="781" type="line"/>
      <point x="121" y="781" type="line"/>
      <point x="45" y="664" type="line"/>
      <point x="107" y="664" type="line"/>
    </contour>
    <contour>
      <point x="140" y="71" type="line"/>
      <point x="140" y="606" type="line"/>
      <point x="62" y="606" type="line"/>
      <point x="62" y="0" type="line"/>
      <point x="387" y="0" type="line"/>
      <point x="387" y="71" type="line"/>
    </contour>
  </outline>
</glyph>
<glyph name="Lacute" format="1">
  <advance width="403"/>
  <unicode hex="0139"/>
  <outline>
    <contour>
      <point x="202" y="778" type="line"/>
      <point x="201" y="781" type="line"/>
      <point x="121" y="781" type="line"/>
      <point x="45" y="664" type="line"/>
      <point x="107" y="664" type="line"/>
    </contour>
    <contour>
      <point x="140" y="71" type="line"/>
      <point x="140" y="606" type="line"/>
      <point x="62" y="606" type="line"/>
      <point x="62" y="0" type="line"/>
      <point x="387" y="0" type="line"/>
      <point x="387" y="71" type="line"/>
    </contour>
  </outline>
</glyph>
<glyph name="lacute" format="1">
  <advance width="161"/>
  <unicode hex="013A"/>
  <outline>
    <contour>
      <point x="184" y="778" type="line"/>
      <point x="184" y="781" type="line"/>
      <point x="104" y="781" type="line"/>
      <point x="28" y="664" type="line"/>
      <point x="89" y="664" type="line"/>
    </contour>
    <contour>
      <point x="117" y="0" type="line"/>
      <point x="117" y="639" type="line"/>
      <point x="44" y="639" type="line"/>
      <point x="44" y="0" type="line"/>
    </contour>
  </outline>
</glyph>
<glyph name="Lcaron" format="1">
  <advance width="403"/>
  <unicode hex="013D"/>
  <outline>
    <contour>
      <point x="140" y="71" type="line"/>
      <point x="140" y="606" type="line"/>
      <point x="62" y="606" type="line"/>
      <point x="62" y="0" type="line"/>
      <point x="387" y="0" type="line"/>
      <point x="387" y="71" type="line"/>
    </contour>
    <contour>
      <point x="370" y="519" type="line"/>
      <point x="370" y="606" type="line"/>
      <point x="282" y="606" type="line"/>
      <point x="282" y="511" type="line"/>
      <point x="317" y="511" type="line"/>
      <point x="282" y="401" type="line"/>
      <point x="328" y="401" type="line"/>
    </contour>
  </outline>
</glyph>
<glyph name="ldot" format="1">
  <advance width="286"/>
  <unicode hex="0140"/>
  <outline>
    <contour>
      <point x="44" y="0" type="line"/>
      <point x="117" y="0" type="line"/>
      <point x="117" y="639" type="line"/>
      <point x="44" y="639" type="line"/>
    </contour>
    <contour>
      <point x="152" y="255" type="line"/>
      <point x="241" y="255" type="line"/>
      <point x="241" y="353" type="line"/>
      <point x="152" y="353" type="line"/>
    </contour>
  </outline>
</glyph>
<glyph name="Lslash" format="1">
  <advance width="456"/>
  <unicode hex="0141"/>
  <outline>
    <contour>
      <point x="70" y="686" type="line"/>
      <point x="70" y="317" type="line"/>
      <point x="0" y="255" type="line"/>
      <point x="0" y="184" type="line"/>
      <point x="70" y="245" type="line"/>
      <point x="70" y="0" type="line"/>
      <point x="438" y="0" type="line"/>
      <point x="438" y="80" type="line"/>
      <point x="158" y="80" type="line"/>
      <point x="158" y="323" type="line"/>
      <point x="295" y="444" type="line"/>
      <point x="295" y="517" type="line"/>
      <point x="158" y="395" type="line"/>
      <point x="158" y="686" type="line"/>
    </contour>
  </outline>
</glyph>
<glyph name="Ncommaaccent" format="1">
  <advance width="523"/>
  <unicode hex="0145"/>
  <outline>
    <contour>
      <point x="461" y="0" type="line"/>
      <point x="461" y="606" type="line"/>
      <point x="392" y="606" type="line"/>
      <point x="392" y="225" type="line" smooth="yes"/>
      <point x="392" y="206"/>
      <point x="394" y="145"/>
      <point x="394" y="145" type="curve"/>
      <point x="392" y="144" type="line"/>
      <point x="392" y="144"/>
      <point x="368" y="202"/>
      <point x="354" y="225" type="curve" smooth="yes"/>
      <point x="129" y="606" type="line"/>
      <point x="62" y="606" type="line"/>
      <point x="62" y="0" type="line"/>
      <point x="132" y="0" type="line"/>
      <point x="132" y="386" type="line" smooth="yes"/>
      <point x="132" y="411"/>
      <point x="128" y="467"/>
      <point x="128" y="467" type="curve"/>
      <point x="131" y="468" type="line"/>
      <point x="131" y="468"/>
      <point x="155" y="412"/>
      <point x="170" y="386" type="curve" smooth="yes"/>
      <point x="397" y="0" type="line"/>
    </contour>
    <contour>
      <point x="300" y="-127" type="line"/>
      <point x="300" y="-53" type="line"/>
      <point x="224" y="-53" type="line"/>
      <point x="224" y="-133" type="line"/>
      <point x="255" y="-133" type="line"/>
      <point x="234" y="-196" type="line"/>
      <point x="274" y="-196" type="line"/>
    </contour>
  </outline>
</glyph>
<glyph name="Ncommaaccent" format="1">
  <advance width="523"/>
  <unicode hex="0145"/>
  <outline>
    <contour>
      <point x="392" y="606" type="line"/>
      <point x="392" y="225" type="line"/>
      <point x="394" y="145" type="line"/>
      <point x="392" y="144" type="line"/>
      <point x="392" y="144"/>
      <point x="368" y="202"/>
      <point x="354" y="225" type="curve" smooth="yes"/>
      <point x="129" y="606" type="line"/>
      <point x="62" y="606" type="line"/>
      <point x="62" y="0" type="line"/>
      <point x="132" y="0" type="line"/>
      <point x="132" y="386" type="line" smooth="yes"/>
      <point x="132" y="411"/>
      <point x="128" y="467"/>
      <point x="128" y="467" type="curve"/>
      <point x="131" y="468" type="line"/>
      <point x="131" y="468"/>
      <point x="155" y="412"/>
      <point x="170" y="386" type="curve" smooth="yes"/>
      <point x="397" y="0" type="line"/>
      <point x="461" y="0" type="line"/>
      <point x="461" y="606" type="line"/>
    </contour>
    <contour>
      <point x="224" y="-53" type="line"/>
      <point x="224" y="-133" type="line"/>
      <point x="255" y="-133" type="line"/>
      <point x="234" y="-196" type="line"/>
      <point x="274" y="-196" type="line"/>
      <point x="300" y="-127" type="line"/>
      <point x="300" y="-53" type="line"/>
    </contour>
  </outline>
</glyph>
<glyph name="napostrophe" format="1">
  <advance width="507"/>
  <unicode hex="0149"/>
  <outline>
    <contour>
      <point x="118" y="531" type="line"/>
      <point x="118" y="606" type="line"/>
      <point x="42" y="606" type="line"/>
      <point x="42" y="525" type="line"/>
      <point x="72" y="525" type="line"/>
      <point x="52" y="462" type="line"/>
      <point x="92" y="462" type="line"/>
    </contour>
    <contour>
      <point x="221" y="411" type="line"/>
      <point x="211" y="465" type="line"/>
      <point x="156" y="465" type="line"/>
      <point x="156" y="0" type="line"/>
      <point x="229" y="0" type="line"/>
      <point x="229" y="284" type="line" smooth="yes"/>
      <point x="229" y="364"/>
      <point x="270" y="411"/>
      <point x="315" y="411" type="curve" smooth="yes"/>
      <point x="354" y="411"/>
      <point x="381" y="394"/>
      <point x="381" y="330" type="curve" smooth="yes"/>
      <point x="381" y="0" type="line"/>
      <point x="453" y="0" type="line"/>
      <point x="453" y="335" type="line" smooth="yes"/>
      <point x="453" y="438"/>
      <point x="408" y="476"/>
      <point x="339" y="476" type="curve" smooth="yes"/>
      <point x="293" y="476"/>
      <point x="252" y="457"/>
      <point x="226" y="411" type="curve"/>
    </contour>
  </outline>
</glyph>
<glyph name="Eng" format="1">
  <advance width="523"/>
  <unicode hex="014A"/>
  <outline>
    <contour>
      <point x="389" y="606" type="line"/>
      <point x="389" y="225" type="line"/>
      <point x="394" y="145" type="line"/>
      <point x="392" y="144" type="line"/>
      <point x="392" y="144"/>
      <point x="368" y="202"/>
      <point x="354" y="225" type="curve" smooth="yes"/>
      <point x="129" y="606" type="line"/>
      <point x="62" y="606" type="line"/>
      <point x="62" y="0" type="line"/>
      <point x="132" y="0" type="line"/>
      <point x="132" y="386" type="line" smooth="yes"/>
      <point x="132" y="411"/>
      <point x="128" y="467"/>
      <point x="128" y="467" type="curve"/>
      <point x="131" y="468" type="line"/>
      <point x="131" y="468"/>
      <point x="155" y="412"/>
      <point x="170" y="386" type="curve" smooth="yes"/>
      <point x="389" y="13" type="line"/>
      <point x="389" y="-57" type="line" smooth="yes"/>
      <point x="389" y="-85"/>
      <point x="375" y="-100"/>
      <point x="347" y="-100" type="curve" smooth="yes"/>
      <point x="309" y="-100" type="line"/>
      <point x="309" y="-150" type="line"/>
      <point x="324" y="-156"/>
      <point x="348" y="-161"/>
      <point x="370" y="-161" type="curve" smooth="yes"/>
      <point x="440" y="-161"/>
      <point x="461" y="-107"/>
      <point x="461" y="-54" type="curve" smooth="yes"/>
      <point x="461" y="606" type="line"/>
    </contour>
  </outline>
</glyph>
<glyph name="eng" format="1">
  <advance width="403"/>
  <unicode hex="014B"/>
  <outline>
    <contour>
      <point x="118" y="411" type="line"/>
      <point x="108" y="465" type="line"/>
      <point x="53" y="465" type="line"/>
      <point x="53" y="0" type="line"/>
      <point x="126" y="0" type="line"/>
      <point x="126" y="284" type="line" smooth="yes"/>
      <point x="126" y="364"/>
      <point x="166" y="411"/>
      <point x="212" y="411" type="curve" smooth="yes"/>
      <point x="251" y="411"/>
      <point x="278" y="394"/>
      <point x="278" y="330" type="curve" smooth="yes"/>
      <point x="278" y="-57" type="line" smooth="yes"/>
      <point x="278" y="-85"/>
      <point x="263" y="-100"/>
      <point x="236" y="-100" type="curve" smooth="yes"/>
      <point x="197" y="-100" type="line"/>
      <point x="197" y="-150" type="line"/>
      <point x="212" y="-156"/>
      <point x="237" y="-161"/>
      <point x="258" y="-161" type="curve" smooth="yes"/>
      <point x="329" y="-161"/>
      <point x="350" y="-107"/>
      <point x="350" y="-54" type="curve" smooth="yes"/>
      <point x="350" y="335" type="line" smooth="yes"/>
      <point x="350" y="438"/>
      <point x="305" y="476"/>
      <point x="235" y="476" type="curve" smooth="yes"/>
      <point x="189" y="476"/>
      <point x="149" y="457"/>
      <point x="123" y="411" type="curve"/>
    </contour>
  </outline>
</glyph>
<glyph name="OE" format="1">
  <advance width="725"/>
  <unicode hex="0152"/>
  <outline>
    <contour>
      <point x="376" y="0" type="line"/>
      <point x="693" y="0" type="line"/>
      <point x="693" y="71" type="line"/>
      <point x="453" y="71" type="line"/>
      <point x="453" y="275" type="line"/>
      <point x="648" y="275" type="line"/>
      <point x="648" y="346" type="line"/>
      <point x="453" y="346" type="line"/>
      <point x="453" y="536" type="line"/>
      <point x="688" y="536" type="line"/>
      <point x="688" y="606" type="line"/>
      <point x="376" y="606" type="line"/>
      <point x="376" y="546" type="line"/>
      <point x="343" y="593"/>
      <point x="298" y="617"/>
      <point x="241" y="617" type="curve" smooth="yes"/>
      <point x="117" y="617"/>
      <point x="43" y="514"/>
      <point x="43" y="303" type="curve" smooth="yes"/>
      <point x="43" y="93"/>
      <point x="117" y="-11"/>
      <point x="241" y="-11" type="curve" smooth="yes"/>
      <point x="298" y="-11"/>
      <point x="343" y="12"/>
      <point x="376" y="60" type="curve"/>
    </contour>
    <contour>
      <point x="376" y="281" type="line" smooth="yes"/>
      <point x="376" y="133"/>
      <point x="328" y="61"/>
      <point x="250" y="61" type="curve" smooth="yes"/>
      <point x="172" y="61"/>
      <point x="125" y="133"/>
      <point x="125" y="281" type="curve" smooth="yes"/>
      <point x="125" y="325" type="line" smooth="yes"/>
      <point x="125" y="473"/>
      <point x="172" y="545"/>
      <point x="250" y="545" type="curve" smooth="yes"/>
      <point x="328" y="545"/>
      <point x="376" y="473"/>
      <point x="376" y="325" type="curve" smooth="yes"/>
    </contour>
    <contour>
      <point x="362" y="606" type="move" name="top"/>
    </contour>
  </outline>
</glyph>
<glyph name="oe" format="1">
  <advance width="684"/>
  <unicode hex="0153"/>
  <outline>
    <contour>
      <point x="342" y="465" type="move" name="top"/>
    </contour>
    <contour>
      <point x="561" y="158" type="line"/>
      <point x="561" y="94"/>
      <point x="529" y="54"/>
      <point x="483" y="54" type="curve" smooth="yes"/>
      <point x="414" y="54"/>
      <point x="382" y="103"/>
      <point x="381" y="211" type="curve"/>
      <point x="633" y="211" type="line"/>
      <point x="633" y="257" type="line" smooth="yes"/>
      <point x="633" y="413"/>
      <point x="582" y="476"/>
      <point x="480" y="476" type="curve" smooth="yes"/>
      <point x="417" y="476"/>
      <point x="371" y="453"/>
      <point x="342" y="408" type="curve"/>
      <point x="315" y="453"/>
      <point x="271" y="476"/>
      <point x="213" y="476" type="curve" smooth="yes"/>
      <point x="104" y="476"/>
      <point x="47" y="400"/>
      <point x="47" y="232" type="curve" smooth="yes"/>
      <point x="47" y="65"/>
      <point x="104" y="-11"/>
      <point x="213" y="-11" type="curve" smooth="yes"/>
      <point x="271" y="-11"/>
      <point x="315" y="11"/>
      <point x="342" y="57" type="curve"/>
      <point x="371" y="10"/>
      <point x="418" y="-11"/>
      <point x="481" y="-11" type="curve" smooth="yes"/>
      <point x="571" y="-11"/>
      <point x="633" y="54"/>
      <point x="633" y="158" type="curve"/>
    </contour>
    <contour>
      <point x="303" y="216" type="line" smooth="yes"/>
      <point x="303" y="109"/>
      <point x="273" y="54"/>
      <point x="213" y="54" type="curve" smooth="yes"/>
      <point x="153" y="54"/>
      <point x="123" y="109"/>
      <point x="123" y="216" type="curve" smooth="yes"/>
      <point x="123" y="249" type="line" smooth="yes"/>
      <point x="123" y="356"/>
      <point x="153" y="411"/>
      <point x="213" y="411" type="curve" smooth="yes"/>
      <point x="273" y="411"/>
      <point x="303" y="356"/>
      <point x="303" y="249" type="curve" smooth="yes"/>
    </contour>
    <contour>
      <point x="382" y="276" type="line"/>
      <point x="388" y="365"/>
      <point x="415" y="411"/>
      <point x="480" y="411" type="curve" smooth="yes"/>
      <point x="530" y="411"/>
      <point x="557" y="364"/>
      <point x="557" y="276" type="curve"/>
    </contour>
  </outline>
</glyph>
<glyph name="racute" format="1">
  <advance width="241"/>
  <unicode hex="0155"/>
  <outline>
    <contour>
      <point x="186" y="636" type="line"/>
      <point x="185" y="639" type="line"/>
      <point x="105" y="639" type="line"/>
      <point x="29" y="522" type="line"/>
      <point x="91" y="522" type="line"/>
    </contour>
    <contour>
      <point x="118" y="404" type="line"/>
      <point x="108" y="465" type="line"/>
      <point x="53" y="465" type="line"/>
      <point x="53" y="0" type="line"/>
      <point x="126" y="0" type="line"/>
      <point x="126" y="284" type="line" smooth="yes"/>
      <point x="126" y="366"/>
      <point x="166" y="393"/>
      <point x="212" y="393" type="curve" smooth="yes"/>
      <point x="236" y="393" type="line"/>
      <point x="236" y="469" type="line"/>
      <point x="236" y="469"/>
      <point x="221" y="476"/>
      <point x="202" y="476" type="curve" smooth="yes"/>
      <point x="157" y="476"/>
      <point x="134" y="439"/>
      <point x="123" y="404" type="curve"/>
    </contour>
  </outline>
</glyph>
<glyph name="Rcaron" format="1">
  <advance width="592"/>
  <unicode hex="0158"/>
  <outline>
    <contour>
      <point x="70" y="686" type="line"/>
      <point x="70" y="0" type="line"/>
      <point x="158" y="0" type="line"/>
      <point x="158" y="303" type="line"/>
      <point x="342" y="303" type="line"/>
      <point x="469" y="0" type="line"/>
      <point x="567" y="0" type="line"/>
      <point x="429" y="319" type="line"/>
      <point x="506" y="345"/>
      <point x="551" y="411"/>
      <point x="551" y="496" type="curve" smooth="yes"/>
      <point x="551" y="609"/>
      <point x="481" y="686"/>
      <point x="346" y="686" type="curve" smooth="yes"/>
    </contour>
    <contour>
      <point x="418" y="606"/>
      <point x="459" y="564"/>
      <point x="459" y="496" type="curve" smooth="yes"/>
      <point x="459" y="428"/>
      <point x="413" y="383"/>
      <point x="343" y="383" type="curve" smooth="yes"/>
      <point x="158" y="383" type="line"/>
      <point x="158" y="606" type="line"/>
      <point x="343" y="606" type="line" smooth="yes"/>
    </contour>
    <contour>
      <point x="341" y="883" type="line"/>
      <point x="296" y="804" type="line"/>
      <point x="251" y="883" type="line"/>
      <point x="171" y="883" type="line"/>
      <point x="256" y="748" type="line"/>
      <point x="334" y="748" type="line"/>
      <point x="421" y="883" type="line"/>
    </contour>
  </outline>
</glyph>
<glyph name="scedilla" format="1">
  <advance width="362"/>
  <unicode hex="015F"/>
  <outline>
    <contour>
      <point x="106" y="145" type="line"/>
      <point x="30" y="145" type="line"/>
      <point x="30" y="143"/>
      <point x="29" y="138"/>
      <point x="29" y="126" type="curve" smooth="yes"/>
      <point x="29" y="64"/>
      <point x="63" y="3"/>
      <point x="147" y="-9" type="curve"/>
      <point x="138" y="-68" type="line"/>
      <point x="167" y="-68" type="line" smooth="yes"/>
      <point x="190" y="-68"/>
      <point x="197" y="-75"/>
      <point x="197" y="-89" type="curve" smooth="yes"/>
      <point x="197" y="-106"/>
      <point x="185" y="-111"/>
      <point x="165" y="-111" type="curve" smooth="yes"/>
      <point x="98" y="-111" type="line"/>
      <point x="98" y="-154" type="line"/>
      <point x="119" y="-158"/>
      <point x="148" y="-161"/>
      <point x="172" y="-161" type="curve" smooth="yes"/>
      <point x="209" y="-161"/>
      <point x="264" y="-149"/>
      <point x="264" y="-89" type="curve" smooth="yes"/>
      <point x="264" y="-49"/>
      <point x="231" y="-34"/>
      <point x="193" y="-32" type="curve"/>
      <point x="195" y="-10" type="line"/>
      <point x="272" y="-4"/>
      <point x="327" y="39"/>
      <point x="327" y="133" type="curve" smooth="yes"/>
      <point x="327" y="306"/>
      <point x="115" y="247"/>
      <point x="115" y="348" type="curve" smooth="yes"/>
      <point x="115" y="374"/>
      <point x="126" y="412"/>
      <point x="178" y="412" type="curve" smooth="yes"/>
      <point x="227" y="412"/>
      <point x="242" y="376"/>
      <point x="242" y="339" type="curve" smooth="yes"/>
      <point x="242" y="331" type="line"/>
      <point x="317" y="331" type="line"/>
      <point x="317" y="333"/>
      <point x="318" y="342"/>
      <point x="318" y="348" type="curve" smooth="yes"/>
      <point x="318" y="417"/>
      <point x="271" y="476"/>
      <point x="185" y="476" type="curve" smooth="yes"/>
      <point x="96" y="476"/>
      <point x="40" y="425"/>
      <point x="40" y="343" type="curve" smooth="yes"/>
      <point x="40" y="176"/>
      <point x="252" y="239"/>
      <point x="252" y="122" type="curve" smooth="yes"/>
      <point x="252" y="77"/>
      <point x="220" y="53"/>
      <point x="182" y="53" type="curve" smooth="yes"/>
      <point x="140" y="53"/>
      <point x="106" y="78"/>
      <point x="106" y="136" type="curve" smooth="yes"/>
    </contour>
  </outline>
</glyph>
<glyph name="Scaron" format="1">
  <advance width="484"/>
  <unicode hex="0160"/>
  <outline>
    <contour>
      <point x="135" y="617"/>
      <point x="49" y="566"/>
      <point x="49" y="454" type="curve" smooth="yes"/>
      <point x="49" y="235"/>
      <point x="364" y="315"/>
      <point x="364" y="162" type="curve" smooth="yes"/>
      <point x="364" y="96"/>
      <point x="318" y="61"/>
      <point x="237" y="61" type="curve" smooth="yes"/>
      <point x="168" y="61"/>
      <point x="117" y="96"/>
      <point x="117" y="171" type="curve"/>
      <point x="118" y="189" type="line"/>
      <point x="37" y="189" type="line"/>
      <point x="37" y="187"/>
      <point x="36" y="178"/>
      <point x="36" y="171" type="curve" smooth="yes"/>
      <point x="36" y="38"/>
      <point x="130" y="-11"/>
      <point x="240" y="-11" type="curve" smooth="yes"/>
      <point x="358" y="-11"/>
      <point x="446" y="39"/>
      <point x="446" y="175" type="curve" smooth="yes"/>
      <point x="446" y="388"/>
      <point x="131" y="316"/>
      <point x="131" y="461" type="curve" smooth="yes"/>
      <point x="131" y="519"/>
      <point x="179" y="545"/>
      <point x="243" y="545" type="curve" smooth="yes"/>
      <point x="304" y="545"/>
      <point x="351" y="511"/>
      <point x="351" y="449" type="curve" smooth="yes"/>
      <point x="351" y="436" type="line"/>
      <point x="431" y="436" type="line"/>
      <point x="431" y="446" type="line" smooth="yes"/>
      <point x="431" y="568"/>
      <point x="347" y="617"/>
      <point x="241" y="617" type="curve" smooth="yes"/>
    </contour>
    <contour>
      <point x="281" y="781" type="line"/>
      <point x="241" y="711" type="line"/>
      <point x="202" y="781" type="line"/>
      <point x="132" y="781" type="line"/>
      <point x="207" y="661" type="line"/>
      <point x="276" y="661" type="line"/>
      <point x="352" y="781" type="line"/>
    </contour>
  </outline>
</glyph>
<glyph name="Tcedilla" format="1">
  <advance width="443"/>
  <unicode hex="0162"/>
  <outline>
    <contour>
      <point x="260" y="0" type="line"/>
      <point x="260" y="536" type="line"/>
      <point x="425" y="536" type="line"/>
      <point x="425" y="606" type="line"/>
      <point x="17" y="606" type="line"/>
      <point x="17" y="536" type="line"/>
      <point x="182" y="536" type="line"/>
      <point x="182" y="0" type="line"/>
      <point x="189.462" y="0" type="line"/>
      <point x="179" y="-68" type="line"/>
      <point x="208" y="-68" type="line" smooth="yes"/>
      <point x="231" y="-68"/>
      <point x="238" y="-75"/>
      <point x="238" y="-89" type="curve" smooth="yes"/>
      <point x="238" y="-106"/>
      <point x="225" y="-111"/>
      <point x="206" y="-111" type="curve" smooth="yes"/>
      <point x="139" y="-111" type="line"/>
      <point x="139" y="-154" type="line"/>
      <point x="160" y="-158"/>
      <point x="188" y="-161"/>
      <point x="213" y="-161" type="curve" smooth="yes"/>
      <point x="249" y="-161"/>
      <point x="305" y="-149"/>
      <point x="305" y="-89" type="curve" smooth="yes"/>
      <point x="305" y="-49"/>
      <point x="271" y="-34"/>
      <point x="233" y="-32" type="curve"/>
      <point x="238.333" y="0" type="line"/>
    </contour>
  </outline>
</glyph>
<glyph name="tcedilla" format="1">
  <advance width="202"/>
  <unicode hex="0163"/>
  <outline>
    <contour>
      <point x="132.837" y="-9" type="line"/>
      <point x="135" y="-9" type="line" smooth="yes"/>
      <point x="153" y="-9"/>
      <point x="175" y="-4"/>
      <point x="187" y="4" type="curve"/>
      <point x="187" y="54" type="line"/>
      <point x="166" y="54" type="line" smooth="yes"/>
      <point x="139" y="54"/>
      <point x="125" y="69"/>
      <point x="125" y="96" type="curve" smooth="yes"/>
      <point x="125" y="400" type="line"/>
      <point x="187" y="400" type="line"/>
      <point x="187" y="465" type="line"/>
      <point x="125" y="465" type="line"/>
      <point x="125" y="594" type="line"/>
      <point x="68" y="594" type="line"/>
      <point x="52" y="465" type="line"/>
      <point x="12" y="465" type="line"/>
      <point x="12" y="400" type="line"/>
      <point x="52" y="400" type="line"/>
      <point x="52" y="98" type="line" smooth="yes"/>
      <point x="52" y="62.2218"/>
      <point x="61.1144" y="25.9881"/>
      <point x="86.4182" y="6.2181" type="curve"/>
      <point x="75" y="-68" type="line"/>
      <point x="104" y="-68" type="line" smooth="yes"/>
      <point x="127" y="-68"/>
      <point x="134" y="-75"/>
      <point x="134" y="-89" type="curve" smooth="yes"/>
      <point x="134" y="-106"/>
      <point x="121" y="-111"/>
      <point x="102" y="-111" type="curve" smooth="yes"/>
      <point x="35" y="-111" type="line"/>
      <point x="35" y="-154" type="line"/>
      <point x="56" y="-158"/>
      <point x="84" y="-161"/>
      <point x="109" y="-161" type="curve" smooth="yes"/>
      <point x="145" y="-161"/>
      <point x="201" y="-149"/>
      <point x="201" y="-89" type="curve" smooth="yes"/>
      <point x="201" y="-49"/>
      <point x="167" y="-34"/>
      <point x="129" y="-32" type="curve"/>
    </contour>
  </outline>
</glyph>
<glyph name="Tbar" format="1">
  <advance width="443"/>
  <unicode hex="0166"/>
  <outline>
    <contour>
      <point x="425" y="536" type="line"/>
      <point x="425" y="606" type="line"/>
      <point x="17" y="606" type="line"/>
      <point x="17" y="536" type="line"/>
      <point x="182" y="536" type="line"/>
      <point x="182" y="347" type="line"/>
      <point x="68" y="347" type="line"/>
      <point x="68" y="283" type="line"/>
      <point x="182" y="283" type="line"/>
      <point x="182" y="0" type="line"/>
      <point x="260" y="0" type="line"/>
      <point x="260" y="283" type="line"/>
      <point x="376" y="283" type="line"/>
      <point x="376" y="347" type="line"/>
      <point x="260" y="347" type="line"/>
      <point x="260" y="536" type="line"/>
    </contour>
  </outline>
</glyph>
<glyph name="Tbar" format="1">
  <advance width="443"/>
  <unicode hex="0166"/>
  <outline>
    <contour>
      <point x="425" y="536" type="line"/>
      <point x="425" y="606" type="line"/>
      <point x="17" y="606" type="line"/>
      <point x="17" y="536" type="line"/>
      <point x="182" y="536" type="line"/>
      <point x="182" y="347" type="line"/>
      <point x="68" y="347" type="line"/>
      <point x="68" y="283" type="line"/>
      <point x="182" y="283" type="line"/>
      <point x="182" y="0" type="line"/>
      <point x="260" y="0" type="line"/>
      <point x="260" y="283" type="line"/>
      <point x="376" y="283" type="line"/>
      <point x="376" y="347" type="line"/>
      <point x="260" y="347" type="line"/>
      <point x="260" y="536" type="line"/>
    </contour>
  </outline>
</glyph>
<glyph name="tbar" format="1">
  <advance width="202"/>
  <unicode hex="0167"/>
  <outline>
    <contour>
      <point x="125" y="465" type="line"/>
      <point x="125" y="594" type="line"/>
      <point x="68" y="594" type="line"/>
      <point x="52" y="465" type="line"/>
      <point x="12" y="465" type="line"/>
      <point x="12" y="400" type="line"/>
      <point x="52" y="400" type="line"/>
      <point x="52" y="309" type="line"/>
      <point x="14" y="309" type="line"/>
      <point x="14" y="248" type="line"/>
      <point x="52" y="248" type="line"/>
      <point x="52" y="98" type="line" smooth="yes"/>
      <point x="52" y="45"/>
      <point x="72" y="-9"/>
      <point x="135" y="-9" type="curve" smooth="yes"/>
      <point x="153" y="-9"/>
      <point x="175" y="-4"/>
      <point x="187" y="4" type="curve"/>
      <point x="187" y="54" type="line"/>
      <point x="166" y="54" type="line" smooth="yes"/>
      <point x="139" y="54"/>
      <point x="125" y="69"/>
      <point x="125" y="96" type="curve" smooth="yes"/>
      <point x="125" y="248" type="line"/>
      <point x="183" y="248" type="line"/>
      <point x="183" y="309" type="line"/>
      <point x="125" y="309" type="line"/>
      <point x="125" y="400" type="line"/>
      <point x="187" y="400" type="line"/>
      <point x="187" y="465" type="line"/>
    </contour>
  </outline>
</glyph>
<glyph name="utilde" format="1">
  <advance width="403"/>
  <unicode hex="0169"/>
  <outline>
    <contour>
      <point x="279" y="639" type="line"/>
      <point x="277" y="619"/>
      <point x="265" y="612"/>
      <point x="249" y="612" type="curve" smooth="yes"/>
      <point x="215" y="612"/>
      <point x="186" y="639"/>
      <point x="148" y="639" type="curve" smooth="yes"/>
      <point x="95" y="639"/>
      <point x="72" y="588"/>
      <point x="72" y="547" type="curve"/>
      <point x="124" y="547" type="line"/>
      <point x="126" y="568"/>
      <point x="138" y="575"/>
      <point x="154" y="575" type="curve" smooth="yes"/>
      <point x="188" y="575"/>
      <point x="217" y="547"/>
      <point x="255" y="547" type="curve" smooth="yes"/>
      <point x="309" y="547"/>
      <point x="331" y="598"/>
      <point x="331" y="639" type="curve"/>
    </contour>
    <contour>
      <point x="295" y="0" type="line"/>
      <point x="350" y="0" type="line"/>
      <point x="350" y="465" type="line"/>
      <point x="278" y="465" type="line"/>
      <point x="278" y="181" type="line" smooth="yes"/>
      <point x="278" y="101"/>
      <point x="237" y="54"/>
      <point x="191" y="54" type="curve" smooth="yes"/>
      <point x="152" y="54"/>
      <point x="126" y="71"/>
      <point x="126" y="135" type="curve" smooth="yes"/>
      <point x="126" y="465" type="line"/>
      <point x="53" y="465" type="line"/>
      <point x="53" y="130" type="line" smooth="yes"/>
      <point x="53" y="27"/>
      <point x="98" y="-11"/>
      <point x="168" y="-11" type="curve" smooth="yes"/>
      <point x="214" y="-11"/>
      <point x="255" y="8"/>
      <point x="280" y="54" type="curve"/>
      <point x="286" y="54" type="line"/>
    </contour>
  </outline>
</glyph>
<glyph name="Ubreve" format="1">
  <advance width="523"/>
  <unicode hex="016C"/>
  <outline>
    <contour>
      <point x="315" y="781" type="line"/>
      <point x="313" y="768"/>
      <point x="292" y="751"/>
      <point x="262" y="751" type="curve" smooth="yes"/>
      <point x="232" y="751"/>
      <point x="212" y="768"/>
      <point x="210" y="781" type="curve"/>
      <point x="152" y="781" type="line"/>
      <point x="152" y="741"/>
      <point x="194" y="695"/>
      <point x="262" y="695" type="curve" smooth="yes"/>
      <point x="330" y="695"/>
      <point x="371" y="741"/>
      <point x="371" y="781" type="curve"/>
    </contour>
    <contour>
      <point x="461" y="606" type="line"/>
      <point x="384" y="606" type="line"/>
      <point x="384" y="193" type="line" smooth="yes"/>
      <point x="384" y="107"/>
      <point x="338" y="61"/>
      <point x="262" y="61" type="curve" smooth="yes"/>
      <point x="186" y="61"/>
      <point x="140" y="107"/>
      <point x="140" y="193" type="curve" smooth="yes"/>
      <point x="140" y="606" type="line"/>
      <point x="62" y="606" type="line"/>
      <point x="62" y="197" type="line" smooth="yes"/>
      <point x="62" y="61"/>
      <point x="137" y="-11"/>
      <point x="262" y="-11" type="curve" smooth="yes"/>
      <point x="386" y="-11"/>
      <point x="461" y="61"/>
      <point x="461" y="197" type="curve" smooth="yes"/>
    </contour>
  </outline>
</glyph>
<glyph name="ubreve" format="1">
  <advance width="403"/>
  <unicode hex="016D"/>
  <outline>
    <contour>
      <point x="255" y="639" type="line"/>
      <point x="253" y="627"/>
      <point x="232" y="610"/>
      <point x="202" y="610" type="curve" smooth="yes"/>
      <point x="171" y="610"/>
      <point x="152" y="627"/>
      <point x="149" y="639" type="curve"/>
      <point x="92" y="639" type="line"/>
      <point x="92" y="599"/>
      <point x="134" y="553"/>
      <point x="202" y="553" type="curve" smooth="yes"/>
      <point x="270" y="553"/>
      <point x="311" y="599"/>
      <point x="311" y="639" type="curve"/>
    </contour>
    <contour>
      <point x="295" y="0" type="line"/>
      <point x="350" y="0" type="line"/>
      <point x="350" y="465" type="line"/>
      <point x="278" y="465" type="line"/>
      <point x="278" y="181" type="line" smooth="yes"/>
      <point x="278" y="101"/>
      <point x="237" y="54"/>
      <point x="191" y="54" type="curve" smooth="yes"/>
      <point x="152" y="54"/>
      <point x="126" y="71"/>
      <point x="126" y="135" type="curve" smooth="yes"/>
      <point x="126" y="465" type="line"/>
      <point x="53" y="465" type="line"/>
      <point x="53" y="130" type="line" smooth="yes"/>
      <point x="53" y="27"/>
      <point x="98" y="-11"/>
      <point x="168" y="-11" type="curve" smooth="yes"/>
      <point x="214" y="-11"/>
      <point x="255" y="8"/>
      <point x="280" y="54" type="curve"/>
      <point x="286" y="54" type="line"/>
    </contour>
  </outline>
</glyph>
<glyph name="Uogonek" format="1">
  <advance width="523"/>
  <unicode hex="0172"/>
  <outline>
    <contour>
      <point x="461" y="606" type="line"/>
      <point x="384" y="606" type="line"/>
      <point x="384" y="193" type="line" smooth="yes"/>
      <point x="384" y="107"/>
      <point x="338" y="61"/>
      <point x="262" y="61" type="curve" smooth="yes"/>
      <point x="186" y="61"/>
      <point x="140" y="107"/>
      <point x="140" y="193" type="curve" smooth="yes"/>
      <point x="140" y="606" type="line"/>
      <point x="62" y="606" type="line"/>
      <point x="62" y="197" type="line" smooth="yes"/>
      <point x="62" y="61"/>
      <point x="137" y="-11"/>
      <point x="262" y="-11" type="curve" smooth="yes"/>
      <point x="270" y="-11"/>
      <point x="276" y="-11"/>
      <point x="282" y="-10" type="curve"/>
      <point x="268" y="-29"/>
      <point x="258" y="-51"/>
      <point x="258" y="-81" type="curve" smooth="yes"/>
      <point x="258" y="-142"/>
      <point x="303" y="-161"/>
      <point x="341" y="-161" type="curve" smooth="yes"/>
      <point x="359" y="-161"/>
      <point x="377" y="-156"/>
      <point x="395" y="-149" type="curve"/>
      <point x="395" y="-103" type="line"/>
      <point x="368" y="-103" type="line" smooth="yes"/>
      <point x="338" y="-103"/>
      <point x="327" y="-80"/>
      <point x="327" y="-55" type="curve" smooth="yes"/>
      <point x="327" y="-31"/>
      <point x="340" y="-8"/>
      <point x="351" y="4" type="curve"/>
      <point x="421" y="33"/>
      <point x="461" y="97"/>
      <point x="461" y="197" type="curve" smooth="yes"/>
    </contour>
  </outline>
</glyph>
<glyph name="Uogonek" format="1">
  <advance width="523"/>
  <unicode hex="0172"/>
  <outline>
    <contour>
      <point x="384" y="193" type="line" smooth="yes"/>
      <point x="384" y="107"/>
      <point x="338" y="61"/>
      <point x="262" y="61" type="curve" smooth="yes"/>
      <point x="186" y="61"/>
      <point x="140" y="107"/>
      <point x="140" y="193" type="curve" smooth="yes"/>
      <point x="140" y="606" type="line"/>
      <point x="62" y="606" type="line"/>
      <point x="62" y="197" type="line" smooth="yes"/>
      <point x="62" y="61"/>
      <point x="137" y="-11"/>
      <point x="262" y="-11" type="curve" smooth="yes"/>
      <point x="269.711" y="-11"/>
      <point x="276.101" y="-11"/>
      <point x="281.985" y="-10" type="curve"/>
      <point x="267.735" y="-29"/>
      <point x="258" y="-51"/>
      <point x="258" y="-81" type="curve" smooth="yes"/>
      <point x="258" y="-142"/>
      <point x="303" y="-161"/>
      <point x="341" y="-161" type="curve" smooth="yes"/>
      <point x="359" y="-161"/>
      <point x="377" y="-156"/>
      <point x="395" y="-149" type="curve"/>
      <point x="395" y="-103" type="line"/>
      <point x="368" y="-103" type="line" smooth="yes"/>
      <point x="338" y="-103"/>
      <point x="327" y="-80"/>
      <point x="327" y="-55" type="curve" smooth="yes"/>
      <point x="327" y="-31"/>
      <point x="340" y="-8"/>
      <point x="351" y="4" type="curve"/>
      <point x="421" y="33"/>
      <point x="461" y="97"/>
      <point x="461" y="197" type="curve" smooth="yes"/>
      <point x="461" y="606" type="line"/>
      <point x="384" y="606" type="line"/>
    </contour>
  </outline>
</glyph>
<glyph name="uogonek" format="1">
  <advance width="456"/>
  <unicode hex="0173"/>
  <outline>
    <contour>
      <point x="314" y="526" type="line"/>
      <point x="314" y="205" type="line" smooth="yes"/>
      <point x="314" y="114"/>
      <point x="268" y="61"/>
      <point x="216" y="61" type="curve" smooth="yes"/>
      <point x="172" y="61"/>
      <point x="142" y="80"/>
      <point x="142" y="153" type="curve" smooth="yes"/>
      <point x="142" y="526" type="line"/>
      <point x="60" y="526" type="line"/>
      <point x="60" y="147" type="line" smooth="yes"/>
      <point x="60" y="30"/>
      <point x="111" y="-12"/>
      <point x="190" y="-12" type="curve" smooth="yes"/>
      <point x="242" y="-12"/>
      <point x="288" y="9"/>
      <point x="317" y="61" type="curve"/>
      <point x="323" y="61" type="line"/>
      <point x="334" y="0" type="line"/>
      <point x="340" y="0" type="line"/>
      <point x="334" y="4" type="line"/>
      <point x="312" y="-19"/>
      <point x="294" y="-48"/>
      <point x="294" y="-92" type="curve" smooth="yes"/>
      <point x="294" y="-161"/>
      <point x="345" y="-182"/>
      <point x="388" y="-182" type="curve" smooth="yes"/>
      <point x="408" y="-182"/>
      <point x="428" y="-177"/>
      <point x="449" y="-168" type="curve"/>
      <point x="449" y="-117" type="line"/>
      <point x="417" y="-117" type="line" smooth="yes"/>
      <point x="384" y="-117"/>
      <point x="372" y="-90"/>
      <point x="372" y="-62" type="curve" smooth="yes"/>
      <point x="372" y="-38"/>
      <point x="385" y="-15"/>
      <point x="396" y="0" type="curve"/>
      <point x="396" y="526" type="line"/>
    </contour>
  </outline>
</glyph>
<glyph name="Ycircumflex" format="1">
  <advance width="484"/>
  <unicode hex="0176"/>
  <outline>
    <contour>
      <point x="352" y="660" type="line"/>
      <point x="277" y="780" type="line"/>
      <point x="208" y="780" type="line"/>
      <point x="132" y="660" type="line"/>
      <point x="202" y="660" type="line"/>
      <point x="242" y="730" type="line"/>
      <point x="281" y="660" type="line"/>
    </contour>
    <contour>
      <point x="281" y="251" type="line"/>
      <point x="476" y="606" type="line"/>
      <point x="401" y="606" type="line"/>
      <point x="250" y="325" type="line"/>
      <point x="247" y="325" type="line"/>
      <point x="93" y="606" type="line"/>
      <point x="7" y="606" type="line"/>
      <point x="203" y="251" type="line"/>
      <point x="203" y="0" type="line"/>
      <point x="281" y="0" type="line"/>
    </contour>
  </outline>
</glyph>
<glyph name="ycircumflex" format="1">
  <advance width="362"/>
  <unicode hex="0177"/>
  <outline>
    <contour>
      <point x="292" y="519" type="line"/>
      <point x="217" y="638" type="line"/>
      <point x="148" y="638" type="line"/>
      <point x="72" y="519" type="line"/>
      <point x="142" y="519" type="line"/>
      <point x="182" y="589" type="line"/>
      <point x="221" y="519" type="line"/>
    </contour>
    <contour>
      <point x="354" y="465" type="line"/>
      <point x="281" y="465" type="line"/>
      <point x="224" y="225" type="line"/>
      <point x="194" y="104" type="line"/>
      <point x="191" y="104" type="line"/>
      <point x="179" y="145"/>
      <point x="168" y="186"/>
      <point x="156" y="226" type="curve" smooth="yes"/>
      <point x="88" y="465" type="line"/>
      <point x="9" y="465" type="line"/>
      <point x="151" y="0" type="line"/>
      <point x="134" y="-80"/>
      <point x="98" y="-103"/>
      <point x="59" y="-103" type="curve" smooth="yes"/>
      <point x="34" y="-103" type="line"/>
      <point x="34" y="-154" type="line"/>
      <point x="49" y="-159"/>
      <point x="65" y="-161"/>
      <point x="86" y="-161" type="curve" smooth="yes"/>
      <point x="167" y="-161"/>
      <point x="209" y="-78"/>
      <point x="236" y="24" type="curve" smooth="yes"/>
    </contour>
  </outline>
</glyph>
<glyph name="Zacute" format="1">
  <advance width="443"/>
  <unicode hex="0179"/>
  <outline>
    <contour>
      <point x="325" y="778" type="line"/>
      <point x="324" y="781" type="line"/>
      <point x="245" y="781" type="line"/>
      <point x="169" y="664" type="line"/>
      <point x="230" y="664" type="line"/>
    </contour>
    <contour>
      <point x="417" y="573" type="line"/>
      <point x="417" y="606" type="line"/>
      <point x="36" y="606" type="line"/>
      <point x="36" y="536" type="line"/>
      <point x="306" y="536" type="line"/>
      <point x="18" y="34" type="line"/>
      <point x="18" y="0" type="line"/>
      <point x="423" y="0" type="line"/>
      <point x="423" y="71" type="line"/>
      <point x="128" y="71" type="line"/>
    </contour>
  </outline>
</glyph>
<glyph name="zacute" format="1">
  <advance width="362"/>
  <unicode hex="017A"/>
  <outline>
    <contour>
      <point x="285" y="636" type="line"/>
      <point x="284" y="639" type="line"/>
      <point x="204" y="639" type="line"/>
      <point x="129" y="522" type="line"/>
      <point x="190" y="522" type="line"/>
    </contour>
    <contour>
      <point x="327" y="431" type="line"/>
      <point x="327" y="465" type="line"/>
      <point x="37" y="465" type="line"/>
      <point x="37" y="400" type="line"/>
      <point x="227" y="400" type="line"/>
      <point x="23" y="34" type="line"/>
      <point x="23" y="0" type="line"/>
      <point x="339" y="0" type="line"/>
      <point x="339" y="65" type="line"/>
      <point x="122" y="65" type="line"/>
    </contour>
  </outline>
</glyph>
<glyph name="zdotaccent" format="1">
  <advance width="362"/>
  <unicode hex="017C"/>
  <outline>
    <contour>
      <point x="143" y="555" type="line"/>
      <point x="220" y="555" type="line"/>
      <point x="220" y="639" type="line"/>
      <point x="143" y="639" type="line"/>
    </contour>
    <contour>
      <point x="122" y="65" type="line"/>
      <point x="327" y="431" type="line"/>
      <point x="327" y="465" type="line"/>
      <point x="37" y="465" type="line"/>
      <point x="37" y="400" type="line"/>
      <point x="227" y="400" type="line"/>
      <point x="23" y="34" type="line"/>
      <point x="23" y="0" type="line"/>
      <point x="339" y="0" type="line"/>
      <point x="339" y="65" type="line"/>
    </contour>
  </outline>
</glyph>
<glyph name="Zcaron" format="1">
  <advance width="443"/>
  <unicode hex="017D"/>
  <outline>
    <contour>
      <point x="255" y="661" type="line"/>
      <point x="331" y="781" type="line"/>
      <point x="261" y="781" type="line"/>
      <point x="221" y="711" type="line"/>
      <point x="182" y="781" type="line"/>
      <point x="111" y="781" type="line"/>
      <point x="187" y="661" type="line"/>
    </contour>
    <contour>
      <point x="417" y="573" type="line"/>
      <point x="417" y="606" type="line"/>
      <point x="36" y="606" type="line"/>
      <point x="36" y="536" type="line"/>
      <point x="306" y="536" type="line"/>
      <point x="18" y="34" type="line"/>
      <point x="18" y="0" type="line"/>
      <point x="423" y="0" type="line"/>
      <point x="423" y="71" type="line"/>
      <point x="128" y="71" type="line"/>
    </contour>
  </outline>
</glyph>
<glyph name="zcaron" format="1">
  <advance width="362"/>
  <unicode hex="017E"/>
  <outline>
    <contour>
      <point x="147" y="520" type="line"/>
      <point x="216" y="520" type="line"/>
      <point x="292" y="639" type="line"/>
      <point x="221" y="639" type="line"/>
      <point x="181" y="569" type="line"/>
      <point x="142" y="639" type="line"/>
      <point x="72" y="639" type="line"/>
    </contour>
    <contour>
      <point x="122" y="65" type="line"/>
      <point x="327" y="431" type="line"/>
      <point x="327" y="465" type="line"/>
      <point x="37" y="465" type="line"/>
      <point x="37" y="400" type="line"/>
      <point x="227" y="400" type="line"/>
      <point x="23" y="34" type="line"/>
      <point x="23" y="0" type="line"/>
      <point x="339" y="0" type="line"/>
      <point x="339" y="65" type="line"/>
    </contour>
  </outline>
</glyph>
<glyph name="aringacute" format="1">
  <advance width="403"/>
  <unicode hex="01FB"/>
  <outline>
    <contour>
      <point x="320" y="778" type="line"/>
      <point x="319" y="781" type="line"/>
      <point x="240" y="781" type="line"/>
      <point x="173" y="679" type="line"/>
      <point x="234" y="679" type="line"/>
    </contour>
    <contour>
      <point x="155" y="659"/>
      <point x="117" y="624"/>
      <point x="117" y="579" type="curve" smooth="yes"/>
      <point x="117" y="533"/>
      <point x="156" y="499"/>
      <point x="202" y="499" type="curve" smooth="yes"/>
      <point x="249" y="499"/>
      <point x="286" y="534"/>
      <point x="286" y="579" type="curve" smooth="yes"/>
      <point x="286" y="623"/>
      <point x="250" y="659"/>
      <point x="202" y="659" type="curve" smooth="yes"/>
    </contour>
    <contour>
      <point x="225" y="620"/>
      <point x="247" y="603"/>
      <point x="247" y="579" type="curve" smooth="yes"/>
      <point x="247" y="555"/>
      <point x="225" y="537"/>
      <point x="202" y="537" type="curve" smooth="yes"/>
      <point x="178" y="537"/>
      <point x="156" y="555"/>
      <point x="156" y="579" type="curve" smooth="yes"/>
      <point x="156" y="603"/>
      <point x="178" y="620"/>
      <point x="202" y="620" type="curve" smooth="yes"/>
    </contour>
    <contour>
      <point x="120" y="327" type="line"/>
      <point x="120" y="338" type="line" smooth="yes"/>
      <point x="120" y="373"/>
      <point x="137" y="411"/>
      <point x="192" y="411" type="curve" smooth="yes"/>
      <point x="251" y="411"/>
      <point x="265" y="380"/>
      <point x="265" y="336" type="curve" smooth="yes"/>
      <point x="265" y="276" type="line"/>
      <point x="130" y="276"/>
      <point x="30" y="248"/>
      <point x="30" y="120" type="curve" smooth="yes"/>
      <point x="30" y="8"/>
      <point x="106" y="-11"/>
      <point x="152" y="-11" type="curve" smooth="yes"/>
      <point x="201" y="-11"/>
      <point x="241" y="12"/>
      <point x="265" y="50" type="curve"/>
      <point x="270" y="50" type="line"/>
      <point x="278" y="16"/>
      <point x="305" y="-7"/>
      <point x="343" y="-7" type="curve" smooth="yes"/>
      <point x="366" y="-7"/>
      <point x="383" y="-1"/>
      <point x="391" y="4" type="curve"/>
      <point x="391" y="54" type="line"/>
      <point x="362" y="54" type="line" smooth="yes"/>
      <point x="350" y="54"/>
      <point x="338" y="63"/>
      <point x="338" y="85" type="curve" smooth="yes"/>
      <point x="338" y="346" type="line" smooth="yes"/>
      <point x="338" y="428"/>
      <point x="291" y="476"/>
      <point x="197" y="476" type="curve" smooth="yes"/>
      <point x="110" y="476"/>
      <point x="48" y="431"/>
      <point x="48" y="347" type="curve" smooth="yes"/>
      <point x="48" y="339"/>
      <point x="48" y="332"/>
      <point x="49" y="327" type="curve"/>
    </contour>
    <contour>
      <point x="265" y="169" type="line" smooth="yes"/>
      <point x="265" y="92"/>
      <point x="215" y="54"/>
      <point x="169" y="54" type="curve" smooth="yes"/>
      <point x="128" y="54"/>
      <point x="106" y="72"/>
      <point x="106" y="125" type="curve" smooth="yes"/>
      <point x="106" y="197"/>
      <point x="171" y="211"/>
      <point x="265" y="211" type="curve"/>
    </contour>
  </outline>
</glyph>
<glyph name="uni021A" format="1">
  <advance width="443"/>
  <unicode hex="021A"/>
  <outline>
    <contour>
      <point x="425" y="536" type="line"/>
      <point x="425" y="606" type="line"/>
      <point x="17" y="606" type="line"/>
      <point x="17" y="536" type="line"/>
      <point x="182" y="536" type="line"/>
      <point x="182" y="0" type="line"/>
      <point x="260" y="0" type="line"/>
      <point x="260" y="536" type="line"/>
    </contour>
    <contour>
      <point x="259" y="-127" type="line"/>
      <point x="259" y="-53" type="line"/>
      <point x="184" y="-53" type="line"/>
      <point x="184" y="-133" type="line"/>
      <point x="214" y="-133" type="line"/>
      <point x="194" y="-196" type="line"/>
      <point x="233" y="-196" type="line"/>
    </contour>
  </outline>
</glyph>
<glyph name="uni021B" format="1">
  <advance width="202"/>
  <unicode hex="021B"/>
  <outline>
    <contour>
      <point x="125" y="465" type="line"/>
      <point x="125" y="594" type="line"/>
      <point x="68" y="594" type="line"/>
      <point x="52" y="465" type="line"/>
      <point x="12" y="465" type="line"/>
      <point x="12" y="400" type="line"/>
      <point x="52" y="400" type="line"/>
      <point x="52" y="98" type="line" smooth="yes"/>
      <point x="52" y="45"/>
      <point x="72" y="-9"/>
      <point x="135" y="-9" type="curve" smooth="yes"/>
      <point x="153" y="-9"/>
      <point x="175" y="-4"/>
      <point x="187" y="4" type="curve"/>
      <point x="187" y="54" type="line"/>
      <point x="166" y="54" type="line" smooth="yes"/>
      <point x="139" y="54"/>
      <point x="125" y="69"/>
      <point x="125" y="96" type="curve" smooth="yes"/>
      <point x="125" y="400" type="line"/>
      <point x="187" y="400" type="line"/>
      <point x="187" y="465" type="line"/>
    </contour>
    <contour>
      <point x="139" y="-127" type="line"/>
      <point x="139" y="-53" type="line"/>
      <point x="64" y="-53" type="line"/>
      <point x="64" y="-133" type="line"/>
      <point x="94" y="-133" type="line"/>
      <point x="73" y="-196" type="line"/>
      <point x="113" y="-196" type="line"/>
    </contour>
  </outline>
</glyph>
<glyph name="breve" format="1">
  <advance width="241"/>
  <unicode hex="02D8"/>
  <outline>
    <contour>
      <point x="119" y="465" type="move" name="_top"/>
    </contour>
    <contour>
      <point x="171" y="639" type="line"/>
      <point x="170" y="627"/>
      <point x="149" y="610"/>
      <point x="118" y="610" type="curve" smooth="yes"/>
      <point x="89" y="610"/>
      <point x="69" y="627"/>
      <point x="66" y="639" type="curve"/>
      <point x="10" y="639" type="line"/>
      <point x="10" y="599"/>
      <point x="51" y="553"/>
      <point x="118" y="553" type="curve" smooth="yes"/>
      <point x="187" y="553"/>
      <point x="228" y="599"/>
      <point x="228" y="639" type="curve"/>
    </contour>
  </outline>
</glyph>
<glyph name="dotaccent" format="1">
  <advance width="241"/>
  <unicode hex="02D9"/>
  <outline>
    <contour>
      <point x="82" y="555" type="line"/>
      <point x="159" y="555" type="line"/>
      <point x="159" y="639" type="line"/>
      <point x="82" y="639" type="line"/>
    </contour>
    <contour>
      <point x="121" y="465" type="move" name="_top"/>
    </contour>
  </outline>
</glyph>
<glyph name="ogonek" format="1">
  <advance width="241"/>
  <unicode hex="02DB"/>
  <outline>
    <contour>
      <point x="160" y="9" type="move" name="_ogonek"/>
    </contour>
    <contour>
      <point x="159" y="11" type="line"/>
      <point x="106" y="11" type="line"/>
      <point x="84" y="-12"/>
      <point x="64" y="-38"/>
      <point x="64" y="-81" type="curve" smooth="yes"/>
      <point x="64" y="-142"/>
      <point x="109" y="-161"/>
      <point x="147" y="-161" type="curve" smooth="yes"/>
      <point x="164" y="-161"/>
      <point x="182" y="-156"/>
      <point x="201" y="-149" type="curve"/>
      <point x="201" y="-103" type="line"/>
      <point x="172" y="-103" type="line" smooth="yes"/>
      <point x="143" y="-103"/>
      <point x="133" y="-80"/>
      <point x="133" y="-55" type="curve" smooth="yes"/>
      <point x="133" y="-30"/>
      <point x="149" y="-5"/>
      <point x="159" y="7" type="curve"/>
    </contour>
  </outline>
</glyph>
<glyph name="tilde" format="1">
  <advance width="241"/>
  <unicode hex="02DC"/>
  <outline>
    <contour>
      <point x="120" y="465" type="move" name="_top"/>
    </contour>
    <contour>
      <point x="198" y="639" type="line"/>
      <point x="195" y="619"/>
      <point x="184" y="612"/>
      <point x="168" y="612" type="curve" smooth="yes"/>
      <point x="133" y="612"/>
      <point x="104" y="639"/>
      <point x="66" y="639" type="curve" smooth="yes"/>
      <point x="13" y="639"/>
      <point x="-9" y="588"/>
      <point x="-9" y="547" type="curve"/>
      <point x="42" y="547" type="line"/>
      <point x="45" y="568"/>
      <point x="57" y="575"/>
      <point x="72" y="575" type="curve" smooth="yes"/>
      <point x="107" y="575"/>
      <point x="136" y="547"/>
      <point x="174" y="547" type="curve" smooth="yes"/>
      <point x="227" y="547"/>
      <point x="249" y="598"/>
      <point x="249" y="639" type="curve"/>
    </contour>
  </outline>
</glyph>
<glyph name="hungarumlaut" format="1">
  <advance width="241"/>
  <unicode hex="02DD"/>
  <outline>
    <contour>
      <point x="129" y="465" type="move" name="_top"/>
    </contour>
    <contour>
      <point x="139" y="636" type="line"/>
      <point x="138" y="639" type="line"/>
      <point x="58" y="639" type="line"/>
      <point x="4" y="522" type="line"/>
      <point x="65" y="522" type="line"/>
    </contour>
    <contour>
      <point x="254" y="636" type="line"/>
      <point x="253" y="639" type="line"/>
      <point x="173" y="639" type="line"/>
      <point x="118" y="522" type="line"/>
      <point x="179" y="522" type="line"/>
    </contour>
  </outline>
</glyph>
<glyph name="pi" format="1">
  <advance width="492"/>
  <unicode hex="03C0"/>
  <outline>
    <contour>
      <point x="469" y="400" type="line"/>
      <point x="476" y="465" type="line"/>
      <point x="139" y="465" type="line" smooth="yes"/>
      <point x="70" y="465"/>
      <point x="31" y="455"/>
      <point x="11" y="438" type="curve"/>
      <point x="21" y="389" type="line"/>
      <point x="40" y="397"/>
      <point x="66" y="400"/>
      <point x="116" y="400" type="curve"/>
      <point x="113" y="286"/>
      <point x="88" y="94"/>
      <point x="59" y="0" type="curve"/>
      <point x="131" y="0" type="line"/>
      <point x="159" y="79"/>
      <point x="183" y="286"/>
      <point x="188" y="400" type="curve"/>
      <point x="327" y="400" type="line"/>
      <point x="327" y="130" type="line" smooth="yes"/>
      <point x="327" y="59"/>
      <point x="332" y="14"/>
      <point x="340" y="0" type="curve"/>
      <point x="411" y="0" type="line"/>
      <point x="404" y="27"/>
      <point x="400" y="65"/>
      <point x="400" y="138" type="curve" smooth="yes"/>
      <point x="400" y="400" type="line"/>
    </contour>
  </outline>
</glyph>
<glyph name="aa-deva" format="1">
  <advance width="811"/>
  <unicode hex="0906"/>
  <outline>
    <contour>
      <point x="833" y="606" type="line"/>
      <point x="421" y="606" type="line"/>
      <point x="421" y="541" type="line"/>
      <point x="465" y="541" type="line"/>
      <point x="465" y="301" type="line"/>
      <point x="312.955" y="301" type="line"/>
      <point x="298.7" y="321.132"/>
      <point x="279.558" y="334.97"/>
      <point x="258" y="342" type="curve"/>
      <point x="258" y="345" type="line"/>
      <point x="299" y="366"/>
      <point x="329" y="402"/>
      <point x="329" y="470" type="curve" smooth="yes"/>
      <point x="329" y="564"/>
      <point x="274" y="617"/>
      <point x="186" y="617" type="curve" smooth="yes"/>
      <point x="101" y="617"/>
      <point x="42" y="563"/>
      <point x="42" y="475" type="curve" smooth="yes"/>
      <point x="42" y="459" type="line"/>
      <point x="116" y="459" type="line"/>
      <point x="116" y="468" type="line" smooth="yes"/>
      <point x="116" y="527"/>
      <point x="145" y="554"/>
      <point x="186" y="554" type="curve" smooth="yes"/>
      <point x="226" y="554"/>
      <point x="255" y="525"/>
      <point x="255" y="464" type="curve" smooth="yes"/>
      <point x="255" y="402"/>
      <point x="224" y="370"/>
      <point x="182" y="370" type="curve" smooth="yes"/>
      <point x="139" y="370" type="line"/>
      <point x="139" y="308" type="line"/>
      <point x="180" y="308" type="line" smooth="yes"/>
      <point x="228" y="308"/>
      <point x="264" y="281"/>
      <point x="264" y="214" type="curve" smooth="yes"/>
      <point x="264" y="150"/>
      <point x="232" y="116"/>
      <point x="182" y="116" type="curve" smooth="yes"/>
      <point x="134" y="116"/>
      <point x="106" y="147"/>
      <point x="106" y="205" type="curve" smooth="yes"/>
      <point x="106" y="216" type="line"/>
      <point x="32" y="216" type="line"/>
      <point x="32" y="208" type="line" smooth="yes"/>
      <point x="32" y="110"/>
      <point x="88" y="52"/>
      <point x="184" y="52" type="curve" smooth="yes"/>
      <point x="278" y="52"/>
      <point x="339" y="112"/>
      <point x="339" y="209" type="curve" smooth="yes"/>
      <point x="339" y="218.452"/>
      <point x="338.397" y="227.456"/>
      <point x="337.244" y="236" type="curve"/>
      <point x="465" y="236" type="line"/>
      <point x="465" y="0" type="line"/>
      <point x="537" y="0" type="line"/>
      <point x="537" y="541" type="line"/>
      <point x="671" y="541" type="line"/>
      <point x="671" y="0" type="line"/>
      <point x="744" y="0" type="line"/>
      <point x="744" y="541" type="line"/>
      <point x="833" y="541" type="line"/>
    </contour>
    <contour>
      <point x="712" y="606" type="move" name="top"/>
    </contour>
    <contour>
      <point x="712" y="0" type="move" name="bottom"/>
    </contour>
  </outline>
</glyph>
<glyph name="aadeva" format="1">
  <advance width="811"/>
  <unicode hex="0906"/>
  <outline>
    <contour>
      <point x="712" y="0" type="move" name="bottom"/>
    </contour>
    <contour>
      <point x="712" y="606" type="move" name="top"/>
    </contour>
    <contour>
      <point x="42" y="459" type="line"/>
      <point x="116" y="459" type="line"/>
      <point x="116" y="468" type="line" smooth="yes"/>
      <point x="116" y="527"/>
      <point x="145" y="554"/>
      <point x="186" y="554" type="curve" smooth="yes"/>
      <point x="226" y="554"/>
      <point x="255" y="525"/>
      <point x="255" y="464" type="curve" smooth="yes"/>
      <point x="255" y="402"/>
      <point x="224" y="370"/>
      <point x="182" y="370" type="curve" smooth="yes"/>
      <point x="139" y="370" type="line"/>
      <point x="139" y="308" type="line"/>
      <point x="180" y="308" type="line" smooth="yes"/>
      <point x="228" y="308"/>
      <point x="264" y="281"/>
      <point x="264" y="214" type="curve" smooth="yes"/>
      <point x="264" y="150"/>
      <point x="232" y="116"/>
      <point x="182" y="116" type="curve" smooth="yes"/>
      <point x="134" y="116"/>
      <point x="106" y="147"/>
      <point x="106" y="205" type="curve" smooth="yes"/>
      <point x="106" y="216" type="line"/>
      <point x="32" y="216" type="line"/>
      <point x="32" y="208" type="line" smooth="yes"/>
      <point x="32" y="110"/>
      <point x="88" y="52"/>
      <point x="184" y="52" type="curve" smooth="yes"/>
      <point x="278" y="52"/>
      <point x="339" y="112"/>
      <point x="339" y="209" type="curve" smooth="yes"/>
      <point x="339" y="220"/>
      <point x="338" y="231"/>
      <point x="337" y="241" type="curve"/>
      <point x="465" y="241" type="line"/>
      <point x="465" y="0" type="line"/>
      <point x="537" y="0" type="line"/>
      <point x="537" y="541" type="line"/>
      <point x="671" y="541" type="line"/>
      <point x="671" y="0" type="line"/>
      <point x="744" y="0" type="line"/>
      <point x="744" y="541" type="line"/>
      <point x="833" y="541" type="line"/>
      <point x="833" y="606" type="line"/>
      <point x="421" y="606" type="line"/>
      <point x="421" y="541" type="line"/>
      <point x="465" y="541" type="line"/>
      <point x="465" y="306" type="line"/>
      <point x="309" y="306" type="line"/>
      <point x="295" y="323"/>
      <point x="278" y="336"/>
      <point x="258" y="342" type="curve"/>
      <point x="258" y="345" type="line"/>
      <point x="299" y="366"/>
      <point x="329" y="402"/>
      <point x="329" y="470" type="curve" smooth="yes"/>
      <point x="329" y="564"/>
      <point x="274" y="617"/>
      <point x="186" y="617" type="curve" smooth="yes"/>
      <point x="101" y="617"/>
      <point x="42" y="563"/>
      <point x="42" y="475" type="curve" smooth="yes"/>
    </contour>
  </outline>
</glyph>
<glyph name="i-deva" format="1">
  <advance width="352"/>
  <unicode hex="0907"/>
  <outline>
    <contour>
      <point x="286" y="370" type="line"/>
      <point x="286" y="541" type="line"/>
      <point x="369" y="541" type="line"/>
      <point x="369" y="606" type="line"/>
      <point x="-16" y="606" type="line"/>
      <point x="-16" y="541" type="line"/>
      <point x="214" y="541" type="line"/>
      <point x="214" y="434" type="line"/>
      <point x="187" y="434" type="line" smooth="yes"/>
      <point x="100" y="434"/>
      <point x="38" y="393"/>
      <point x="38" y="308" type="curve" smooth="yes"/>
      <point x="38" y="230"/>
      <point x="86" y="197"/>
      <point x="164" y="191" type="curve"/>
      <point x="199" y="187"/>
      <point x="236" y="183"/>
      <point x="236" y="126" type="curve" smooth="yes"/>
      <point x="236" y="76"/>
      <point x="208" y="53"/>
      <point x="175" y="53" type="curve" smooth="yes"/>
      <point x="139" y="53"/>
      <point x="108" y="78"/>
      <point x="108" y="136" type="curve" smooth="yes"/>
      <point x="108" y="145" type="line"/>
      <point x="36" y="145" type="line"/>
      <point x="36" y="-83" type="line"/>
      <point x="106" y="-83" type="line"/>
      <point x="106" y="8.1002" type="line"/>
      <point x="125.531" y="-4"/>
      <point x="151.549" y="-11"/>
      <point x="185" y="-11" type="curve" smooth="yes"/>
      <point x="259" y="-11"/>
      <point x="312" y="34"/>
      <point x="312" y="131" type="curve" smooth="yes"/>
      <point x="312" y="217"/>
      <point x="265" y="248"/>
      <point x="189" y="255" type="curve" smooth="yes"/>
      <point x="155" y="258"/>
      <point x="114" y="263"/>
      <point x="114" y="310" type="curve" smooth="yes"/>
      <point x="114" y="347"/>
      <point x="145" y="370"/>
      <point x="183" y="370" type="curve" smooth="yes"/>
    </contour>
    <contour>
      <point x="251.5" y="606" type="move" name="top"/>
    </contour>
    <contour>
      <point x="176" y="0" type="move" name="bottom"/>
    </contour>
  </outline>
</glyph>
<glyph name="ii-deva" format="1">
  <advance width="352"/>
  <unicode hex="0908"/>
  <outline>
    <contour>
      <point x="286" y="370" type="line"/>
      <point x="286" y="541" type="line"/>
      <point x="369" y="541" type="line"/>
      <point x="369" y="606" type="line"/>
      <point x="272.698" y="606" type="line"/>
      <point x="255.317" y="636.975"/>
      <point x="247" y="663.767"/>
      <point x="247" y="689" type="curve" smooth="yes"/>
      <point x="247" y="734"/>
      <point x="278" y="761"/>
      <point x="333" y="762" type="curve" smooth="yes"/>
      <point x="337" y="762" type="line"/>
      <point x="337" y="826" type="line"/>
      <point x="333" y="827"/>
      <point x="323" y="827"/>
      <point x="317" y="827" type="curve" smooth="yes"/>
      <point x="235" y="827"/>
      <point x="174" y="777"/>
      <point x="174" y="705" type="curve" smooth="yes"/>
      <point x="174" y="674.059"/>
      <point x="183.953" y="640.856"/>
      <point x="204.773" y="606" type="curve"/>
      <point x="-16" y="606" type="line"/>
      <point x="-16" y="541" type="line"/>
      <point x="214" y="541" type="line"/>
      <point x="214" y="434" type="line"/>
      <point x="187" y="434" type="line" smooth="yes"/>
      <point x="99.9999" y="434"/>
      <point x="37.9999" y="393"/>
      <point x="37.9999" y="308" type="curve" smooth="yes"/>
      <point x="37.9999" y="230"/>
      <point x="85.9999" y="197"/>
      <point x="164" y="191" type="curve"/>
      <point x="199" y="187"/>
      <point x="236" y="183"/>
      <point x="236" y="126" type="curve" smooth="yes"/>
      <point x="236" y="75.9999"/>
      <point x="208" y="52.9999"/>
      <point x="175" y="52.9999" type="curve" smooth="yes"/>
      <point x="139" y="52.9999"/>
      <point x="108" y="77.9999"/>
      <point x="108" y="136" type="curve" smooth="yes"/>
      <point x="108" y="145" type="line"/>
      <point x="35.9999" y="145" type="line"/>
      <point x="35.9999" y="-83" type="line"/>
      <point x="106" y="-83" type="line"/>
      <point x="106" y="8.1001" type="line"/>
      <point x="125.531" y="-4"/>
      <point x="151.549" y="-11"/>
      <point x="185" y="-11" type="curve" smooth="yes"/>
      <point x="259" y="-11"/>
      <point x="312" y="33.9999"/>
      <point x="312" y="131" type="curve" smooth="yes"/>
      <point x="312" y="217"/>
      <point x="265" y="248"/>
      <point x="189" y="255" type="curve" smooth="yes"/>
      <point x="155" y="258"/>
      <point x="114" y="263"/>
      <point x="114" y="310" type="curve" smooth="yes"/>
      <point x="114" y="347"/>
      <point x="145" y="370"/>
      <point x="183" y="370" type="curve" smooth="yes"/>
    </contour>
    <contour>
      <point x="251" y="606" type="move" name="top"/>
    </contour>
    <contour>
      <point x="251" y="0" type="move" name="bottom"/>
    </contour>
  </outline>
</glyph>
<glyph name="rvocalicdeva" format="1">
  <advance width="635"/>
  <unicode hex="090B"/>
  <outline>
    <contour>
      <point x="318" y="0" type="move" name="bottom"/>
    </contour>
    <contour>
      <point x="318" y="465" type="move" name="top"/>
    </contour>
    <contour>
      <point x="657" y="541" type="line"/>
      <point x="657" y="606" type="line"/>
      <point x="-22" y="606" type="line"/>
      <point x="-22" y="541" type="line"/>
      <point x="260" y="541" type="line"/>
      <point x="260" y="300" type="line"/>
      <point x="257" y="300" type="line"/>
      <point x="228" y="367" type="line"/>
      <point x="197" y="432"/>
      <point x="158" y="469"/>
      <point x="80" y="469" type="curve" smooth="yes"/>
      <point x="59" y="469"/>
      <point x="43" y="467"/>
      <point x="28" y="462" type="curve"/>
      <point x="28" y="411" type="line"/>
      <point x="53" y="411" type="line" smooth="yes"/>
      <point x="109" y="411"/>
      <point x="137" y="395"/>
      <point x="164" y="331" type="curve"/>
      <point x="195" y="262" type="line"/>
      <point x="20" y="63" type="line"/>
      <point x="115" y="63" type="line"/>
      <point x="260" y="234" type="line"/>
      <point x="260" y="0" type="line"/>
      <point x="333" y="0" type="line"/>
      <point x="333" y="304" type="line"/>
      <point x="393" y="304" type="line" smooth="yes"/>
      <point x="445" y="304"/>
      <point x="480" y="315"/>
      <point x="504" y="334" type="curve"/>
      <point x="504" y="246" type="line"/>
      <point x="452" y="233"/>
      <point x="409" y="193"/>
      <point x="409" y="130" type="curve" smooth="yes"/>
      <point x="409" y="53"/>
      <point x="474" y="7"/>
      <point x="541" y="7" type="curve" smooth="yes"/>
      <point x="569" y="7"/>
      <point x="595" y="14"/>
      <point x="617" y="23" type="curve"/>
      <point x="617" y="84" type="line"/>
      <point x="596" y="77"/>
      <point x="573" y="72"/>
      <point x="545" y="72" type="curve" smooth="yes"/>
      <point x="508" y="72"/>
      <point x="482" y="97"/>
      <point x="482" y="129" type="curve" smooth="yes"/>
      <point x="482" y="161"/>
      <point x="508" y="186"/>
      <point x="545" y="186" type="curve" smooth="yes"/>
      <point x="576" y="186" type="line"/>
      <point x="576" y="449" type="line"/>
      <point x="504" y="449" type="line"/>
      <point x="504" y="402"/>
      <point x="462" y="370"/>
      <point x="403" y="370" type="curve" smooth="yes"/>
      <point x="333" y="370" type="line"/>
      <point x="333" y="541" type="line"/>
    </contour>
  </outline>
</glyph>
<glyph name="eShort-deva" format="1">
  <advance width="413"/>
  <unicode hex="090E"/>
  <outline>
    <contour>
      <point x="436" y="606" type="line"/>
      <point x="346" y="606" type="line"/>
      <point x="346" y="656" type="line" smooth="yes"/>
      <point x="346" y="731"/>
      <point x="328" y="788"/>
      <point x="222" y="788" type="curve" smooth="yes"/>
      <point x="173" y="788"/>
      <point x="63" y="768"/>
      <point x="21" y="768" type="curve" smooth="yes"/>
      <point x="-13" y="768"/>
      <point x="-29" y="778"/>
      <point x="-29" y="813" type="curve" smooth="yes"/>
      <point x="-29" y="837" type="line"/>
      <point x="-93" y="837" type="line"/>
      <point x="-94" y="827"/>
      <point x="-94" y="816"/>
      <point x="-94" y="805" type="curve" smooth="yes"/>
      <point x="-94" y="748"/>
      <point x="-67" y="707"/>
      <point x="11" y="707" type="curve" smooth="yes"/>
      <point x="62" y="707"/>
      <point x="181" y="726"/>
      <point x="223" y="726" type="curve" smooth="yes"/>
      <point x="262" y="726"/>
      <point x="274" y="697"/>
      <point x="274" y="656" type="curve" smooth="yes"/>
      <point x="274" y="606" type="line"/>
      <point x="-22" y="606" type="line"/>
      <point x="-22" y="541" type="line"/>
      <point x="67" y="541" type="line"/>
      <point x="67" y="274" type="line" smooth="yes"/>
      <point x="67" y="244"/>
      <point x="73" y="223"/>
      <point x="95" y="199" type="curve" smooth="yes"/>
      <point x="258" y="32" type="line" smooth="yes"/>
      <point x="272" y="17"/>
      <point x="277" y="4"/>
      <point x="277" y="-12" type="curve" smooth="yes"/>
      <point x="277" y="-17"/>
      <point x="276" y="-34"/>
      <point x="271" y="-57" type="curve"/>
      <point x="331" y="-57" type="line"/>
      <point x="342" y="-36"/>
      <point x="347" y="-18"/>
      <point x="347" y="2" type="curve" smooth="yes"/>
      <point x="347" y="27"/>
      <point x="332" y="53"/>
      <point x="306" y="80" type="curve" smooth="yes"/>
      <point x="153" y="235" type="line"/>
      <point x="143" y="246"/>
      <point x="139" y="260"/>
      <point x="139" y="279" type="curve" smooth="yes"/>
      <point x="139" y="541" type="line"/>
      <point x="274" y="541" type="line"/>
      <point x="274" y="341" type="line" smooth="yes"/>
      <point x="274" y="317"/>
      <point x="259" y="303"/>
      <point x="238" y="303" type="curve" smooth="yes"/>
      <point x="221" y="303" type="line"/>
      <point x="221" y="247" type="line"/>
      <point x="235" y="244"/>
      <point x="247" y="242"/>
      <point x="261" y="242" type="curve" smooth="yes"/>
      <point x="327" y="242"/>
      <point x="347" y="294"/>
      <point x="347" y="344" type="curve" smooth="yes"/>
      <point x="347" y="541" type="line"/>
      <point x="436" y="541" type="line"/>
    </contour>
    <contour>
      <point x="207" y="465" type="move" name="top"/>
    </contour>
    <contour>
      <point x="207" y="0" type="move" name="bottom"/>
    </contour>
  </outline>
</glyph>
<glyph name="ai-deva" format="1">
  <advance width="413"/>
  <unicode hex="0910"/>
  <outline>
    <contour>
      <point x="208" y="821" type="line"/>
      <point x="276" y="606" type="line"/>
      <point x="-22" y="606" type="line"/>
      <point x="-22" y="541" type="line"/>
      <point x="67" y="541" type="line"/>
      <point x="67" y="274" type="line" smooth="yes"/>
      <point x="67" y="244"/>
      <point x="73" y="223"/>
      <point x="95" y="199" type="curve" smooth="yes"/>
      <point x="258" y="32" type="line" smooth="yes"/>
      <point x="272" y="17"/>
      <point x="277" y="4"/>
      <point x="277" y="-12" type="curve" smooth="yes"/>
      <point x="277" y="-17"/>
      <point x="276" y="-34"/>
      <point x="271" y="-57" type="curve"/>
      <point x="331" y="-57" type="line"/>
      <point x="342" y="-36"/>
      <point x="347" y="-18"/>
      <point x="347" y="2" type="curve" smooth="yes"/>
      <point x="347" y="27"/>
      <point x="332" y="53"/>
      <point x="306" y="80" type="curve" smooth="yes"/>
      <point x="153" y="235" type="line"/>
      <point x="143" y="246"/>
      <point x="139" y="260"/>
      <point x="139" y="279" type="curve" smooth="yes"/>
      <point x="139" y="541" type="line"/>
      <point x="274" y="541" type="line"/>
      <point x="274" y="341" type="line" smooth="yes"/>
      <point x="274" y="317"/>
      <point x="259" y="303"/>
      <point x="238" y="303" type="curve" smooth="yes"/>
      <point x="221" y="303" type="line"/>
      <point x="221" y="247" type="line"/>
      <point x="235" y="244"/>
      <point x="247" y="242"/>
      <point x="261" y="242" type="curve" smooth="yes"/>
      <point x="327" y="242"/>
      <point x="347" y="294"/>
      <point x="347" y="344" type="curve" smooth="yes"/>
      <point x="347" y="541" type="line"/>
      <point x="436" y="541" type="line"/>
      <point x="436" y="606" type="line"/>
      <point x="340" y="606" type="line"/>
      <point x="281" y="821" type="line"/>
    </contour>
    <contour>
      <point x="207" y="465" type="move" name="top"/>
    </contour>
    <contour>
      <point x="207" y="0" type="move" name="bottom"/>
    </contour>
  </outline>
</glyph>
<glyph name="oShort-deva" format="1">
  <advance width="811"/>
  <unicode hex="0912"/>
  <outline>
    <contour>
      <point x="833" y="606" type="line"/>
      <point x="743" y="606" type="line"/>
      <point x="743" y="656" type="line" smooth="yes"/>
      <point x="743" y="731"/>
      <point x="725" y="788"/>
      <point x="619" y="788" type="curve" smooth="yes"/>
      <point x="570" y="788"/>
      <point x="460" y="768"/>
      <point x="418" y="768" type="curve" smooth="yes"/>
      <point x="384" y="768"/>
      <point x="368" y="778"/>
      <point x="368" y="813" type="curve" smooth="yes"/>
      <point x="368" y="837" type="line"/>
      <point x="304" y="837" type="line"/>
      <point x="303" y="827"/>
      <point x="303" y="816"/>
      <point x="303" y="805" type="curve" smooth="yes"/>
      <point x="303" y="748"/>
      <point x="330" y="707"/>
      <point x="408" y="707" type="curve" smooth="yes"/>
      <point x="459" y="707"/>
      <point x="578" y="726"/>
      <point x="620" y="726" type="curve" smooth="yes"/>
      <point x="659" y="726"/>
      <point x="671" y="697"/>
      <point x="671" y="656" type="curve" smooth="yes"/>
      <point x="671" y="606" type="line"/>
      <point x="421" y="606" type="line"/>
      <point x="421" y="541" type="line"/>
      <point x="465" y="541" type="line"/>
      <point x="465" y="301" type="line"/>
      <point x="312.955" y="301" type="line"/>
      <point x="298.7" y="321.132"/>
      <point x="279.558" y="334.97"/>
      <point x="258" y="342" type="curve"/>
      <point x="258" y="345" type="line"/>
      <point x="299" y="366"/>
      <point x="329" y="402"/>
      <point x="329" y="470" type="curve" smooth="yes"/>
      <point x="329" y="564"/>
      <point x="274" y="617"/>
      <point x="186" y="617" type="curve" smooth="yes"/>
      <point x="101" y="617"/>
      <point x="42" y="563"/>
      <point x="42" y="475" type="curve" smooth="yes"/>
      <point x="42" y="459" type="line"/>
      <point x="116" y="459" type="line"/>
      <point x="116" y="468" type="line" smooth="yes"/>
      <point x="116" y="527"/>
      <point x="145" y="554"/>
      <point x="186" y="554" type="curve" smooth="yes"/>
      <point x="226" y="554"/>
      <point x="255" y="525"/>
      <point x="255" y="464" type="curve" smooth="yes"/>
      <point x="255" y="402"/>
      <point x="224" y="370"/>
      <point x="182" y="370" type="curve" smooth="yes"/>
      <point x="139" y="370" type="line"/>
      <point x="139" y="308" type="line"/>
      <point x="180" y="308" type="line" smooth="yes"/>
      <point x="228" y="308"/>
      <point x="264" y="281"/>
      <point x="264" y="214" type="curve" smooth="yes"/>
      <point x="264" y="150"/>
      <point x="232" y="116"/>
      <point x="182" y="116" type="curve" smooth="yes"/>
      <point x="134" y="116"/>
      <point x="106" y="147"/>
      <point x="106" y="205" type="curve" smooth="yes"/>
      <point x="106" y="216" type="line"/>
      <point x="32" y="216" type="line"/>
      <point x="32" y="208" type="line" smooth="yes"/>
      <point x="32" y="110"/>
      <point x="88" y="52"/>
      <point x="184" y="52" type="curve" smooth="yes"/>
      <point x="278" y="52"/>
      <point x="339" y="112"/>
      <point x="339" y="209" type="curve" smooth="yes"/>
      <point x="339" y="218.452"/>
      <point x="338.397" y="227.456"/>
      <point x="337.244" y="236" type="curve"/>
      <point x="465" y="236" type="line"/>
      <point x="465" y="0" type="line"/>
      <point x="537" y="0" type="line"/>
      <point x="537" y="541" type="line"/>
      <point x="671" y="541" type="line"/>
      <point x="671" y="0" type="line"/>
      <point x="744" y="0" type="line"/>
      <point x="744" y="541" type="line"/>
      <point x="833" y="541" type="line"/>
    </contour>
  </outline>
</glyph>
